<svg xmlns="http://www.w3.org/2000/svg" xmlns:xlink="http://www.w3.org/1999/xlink" width="108.914" height="108.914" viewBox="0 0 108.914 108.914"><defs><filter id="a" x="0" y="0" width="108.914" height="108.914" filterUnits="userSpaceOnUse"><feOffset dy="3" input="SourceAlpha"/><feGaussianBlur stdDeviation="3" result="b"/><feFlood flood-opacity="0.161"/><feComposite operator="in" in2="b"/><feComposite in="SourceGraphic"/></filter></defs><g transform="translate(-276.758 -1016.655)"><g transform="matrix(1, 0, 0, 1, 276.76, 1016.66)" filter="url(#a)"><g transform="translate(9 6)" fill="#cae1f9" opacity="0.859"><path d="M 45.45676803588867 89.41407012939453 C 39.52198028564453 89.41407012939453 33.76551818847656 88.25206756591797 28.34726715087891 85.96034240722656 C 23.11311721801758 83.74648284912109 18.41204261779785 80.57682800292969 14.37464332580566 76.5394287109375 C 10.33724308013916 72.50202941894531 7.167593002319336 67.80095672607422 4.953730583190918 62.56679534912109 C 2.662005424499512 57.14855575561523 1.500005483627319 51.39208221435547 1.500005483627319 45.45729446411133 C 1.500005483627319 39.52198028564453 2.662005424499512 33.76551818847656 4.953730583190918 28.34726905822754 C 7.167593002319336 23.11310577392578 10.33724308013916 18.41203117370605 14.37464332580566 14.37464332580566 C 18.41204261779785 10.33724403381348 23.11311721801758 7.167593955993652 28.34726715087891 4.953731060028076 C 33.76551818847656 2.662006139755249 39.52198028564453 1.500006198883057 45.45676803588867 1.500006198883057 C 51.39155578613281 1.500006198883057 57.14802932739258 2.662006139755249 62.56626892089844 4.953731060028076 C 67.80043029785156 7.167593955993652 72.50150299072266 10.33724403381348 76.53890228271484 14.37464332580566 C 80.57630920410156 18.41203117370605 83.74595642089844 23.11310577392578 85.95981597900391 28.34726905822754 C 88.25154113769531 33.76551818847656 89.41354370117188 39.52198028564453 89.41354370117188 45.45676803588867 C 89.41354370117188 51.39208221435547 88.25154113769531 57.14855575561523 85.95981597900391 62.56679534912109 C 83.74595642089844 67.80095672607422 80.57630920410156 72.50202941894531 76.53890228271484 76.5394287109375 C 72.50150299072266 80.57682800292969 67.80043029785156 83.74648284912109 62.56626892089844 85.96034240722656 C 57.14802932739258 88.25206756591797 51.39155578613281 89.41407012939453 45.45676803588867 89.41407012939453 Z" stroke="none"/><path d="M 45.45676803588867 3 C 39.72381210327148 3 34.1639404296875 4.12213134765625 28.93159484863281 6.335227966308594 C 23.87622833251953 8.473472595214844 19.33542633056641 11.53517150878906 15.43529510498047 15.435302734375 C 11.53517150878906 19.33543395996094 8.473464965820312 23.87622833251953 6.335227966308594 28.93160247802734 C 4.122123718261719 34.16394424438477 3 39.72381591796875 3 45.4572868347168 C 3 51.19024658203125 4.122123718261719 56.75011825561523 6.335227966308594 61.98246002197266 C 8.473464965820312 67.03782653808594 11.53517150878906 71.57862854003906 15.43529510498047 75.478759765625 C 19.33542633056641 79.37889099121094 23.87622833251953 82.44058990478516 28.93159484863281 84.57883453369141 C 34.1639404296875 86.79193115234375 39.72381210327148 87.9140625 45.45676803588867 87.9140625 C 51.18972396850586 87.9140625 56.74959564208984 86.79193115234375 61.98194122314453 84.57883453369141 C 67.03730773925781 82.44058990478516 71.57810974121094 79.37889099121094 75.47824096679688 75.478759765625 C 79.37837219238281 71.57862854003906 82.44007110595703 67.03782653808594 84.57830810546875 61.98246002197266 C 86.79141235351562 56.75011825561523 87.91353607177734 51.19024658203125 87.91353607177734 45.4567756652832 C 87.91353607177734 39.72381591796875 86.79141235351562 34.16394424438477 84.57830810546875 28.93160247802734 C 82.44007110595703 23.87622833251953 79.37837219238281 19.33543395996094 75.47824096679688 15.435302734375 C 71.57810974121094 11.53517150878906 67.03730773925781 8.473472595214844 61.98194122314453 6.335227966308594 C 56.74959564208984 4.12213134765625 51.18972396850586 3 45.45676803588867 3 M 45.45676803588867 0 C 70.56185150146484 0 90.91353607177734 20.35169219970703 90.91353607177734 45.4567756652832 L 90.91353607177734 45.4572868347168 C 90.91353607177734 70.5623779296875 70.56185150146484 90.9140625 45.45676803588867 90.9140625 C 20.3516845703125 90.9140625 0 70.5623779296875 0 45.4572868347168 L 0 45.4567756652832 C 0 20.35169219970703 20.3516845703125 0 45.45676803588867 0 Z" stroke="none" fill="#fff"/></g></g><g transform="translate(302.637 1036.136)"><path d="M17.175,286.937v1.835H8V264h9.175v22.937Z" transform="translate(-7.082 -235.558)" fill="#656d78"/><path d="M113.69,286.422l17.726-2.7a3.5,3.5,0,0,1,.624-.056,3.668,3.668,0,0,1,1.835,6.845L109.1,303.855,88,301.1V280h8.257l14.395,2.808A3.661,3.661,0,0,1,113.69,286.422Z" transform="translate(-77.907 -249.723)" fill="#eac6bb"/><path d="M133.841,316.28a3.651,3.651,0,0,1-1.8,2.685l-24.122,12.52L88,328.79v4.431l21.1,2.753,24.772-13.339a3.652,3.652,0,0,0-.034-6.355Z" transform="translate(-77.907 -281.842)" fill="#d3b1a9"/><path d="M259.561,124.76l9.487,9.551v6.422h-6.422L260.79,138.9v-1.835h-1.835v-1.835H257.12l-4-4a9.166,9.166,0,0,0,6.441-6.468Z" transform="translate(-224.09 -112.287)" fill="#edab37"/><path d="M300.469,124.76a9.18,9.18,0,0,1-1.141,2.545l6.958,7.006v6.422h3.67v-6.422Z" transform="translate(-264.999 -112.287)" fill="#e29f33"/><path d="M167.7,26.678a9.177,9.177,0,1,1-12.974,0A9.169,9.169,0,0,1,167.7,26.678Z" transform="translate(-134.601 -23.077)" fill="#ffce54"/><path d="M224.272,26.706a9.169,9.169,0,0,0-8.322-2.5,9.172,9.172,0,0,1,.586,17.836c-.2.053-.4.081-.593.121a9.235,9.235,0,0,0,4.263-.121,9.173,9.173,0,0,0,4.065-15.34Z" transform="translate(-191.178 -23.105)" fill="#f6bb42"/><path d="M201.122,73.835a.918.918,0,0,1-.01-1.835h.01a.917.917,0,0,1,0,1.835Z" transform="translate(-177.24 -65.578)"/><path d="M41.122,449.835a.917.917,0,0,1-.01-1.835h.01a.917.917,0,1,1,0,1.835Z" transform="translate(-35.589 -398.455)"/><path d="M466.754,312.684a.917.917,0,0,1-.461-1.711,2.754,2.754,0,0,0-1.376-5.138.917.917,0,1,1,0-1.835,4.588,4.588,0,0,1,2.3,8.56A.908.908,0,0,1,466.754,312.684Z" transform="translate(-410.785 -270.97)"/><path d="M264.914,378.89a.917.917,0,0,1-.436-1.725l24.772-13.337a.917.917,0,0,1,.869,1.616L265.347,378.78A.909.909,0,0,1,264.914,378.89Z" transform="translate(-233.718 -323.84)"/><path d="M102.022,460.583a.876.876,0,0,1-.119-.008l-21.1-2.752A.917.917,0,0,1,81.037,456l21.1,2.753a.917.917,0,0,1-.117,1.827Z" transform="translate(-70.826 -405.533)"/><path d="M10.092,282.607H.917A.917.917,0,0,1,0,281.69V256.917A.917.917,0,0,1,.917,256h9.175a.917.917,0,0,1,.917.917V281.69A.917.917,0,0,1,10.092,282.607Zm-8.257-1.835h7.34V257.835H1.835Z" transform="translate(0 -228.475)"/><path d="M304.92,309.01a.918.918,0,0,1-.137-1.825l17.723-2.7a.917.917,0,1,1,.276,1.814L305.06,309A.9.9,0,0,1,304.92,309.01Z" transform="translate(-269.139 -271.393)"/><path d="M272.918,305.6a.917.917,0,1,1,0-1.835,2.752,2.752,0,0,0,.474-5.464.917.917,0,0,1,.312-1.807,4.587,4.587,0,0,1-.786,9.106Z" transform="translate(-240.805 -264.316)"/><path d="M167.306,276.631a.889.889,0,0,1-.176-.017l-14.394-2.808a.918.918,0,1,1,.351-1.8l14.394,2.808a.918.918,0,0,1-.175,1.818Z" transform="translate(-134.562 -242.629)"/><path d="M89.175,273.835H80.917a.917.917,0,1,1,0-1.835h8.257a.917.917,0,1,1,0,1.835Z" transform="translate(-70.825 -242.64)"/><path d="M180.459,354.72l-.072,0-11.541-.9a.917.917,0,1,1,.141-1.829l11.541.9a.917.917,0,0,1-.07,1.832Z" transform="translate(-148.732 -313.453)"/><path d="M459.446,305.888a.917.917,0,0,1-.154-1.821,4.526,4.526,0,0,1,.783-.067.917.917,0,1,1,0,1.835,2.855,2.855,0,0,0-.473.039A.9.9,0,0,1,459.446,305.888Z" transform="translate(-405.942 -270.97)"/><path d="M269.953,361.666a4.585,4.585,0,0,1-.481-.026.918.918,0,0,1,.194-1.825,2.7,2.7,0,0,0,.287.016.918.918,0,1,1,0,1.835Z" transform="translate(-237.84 -320.379)"/><path d="M154.108,36.184a10.093,10.093,0,1,1,7.136-2.956A10.022,10.022,0,0,1,154.108,36.184Zm0-18.349a8.257,8.257,0,1,0,5.839,2.419A8.2,8.2,0,0,0,154.108,17.835Z" transform="translate(-127.499 -16)"/><path d="M255.569,184.487a.915.915,0,0,1-.649-.269l-1.835-1.835a.913.913,0,0,1-.269-.649v-.918H251.9a.917.917,0,0,1-.917-.917v-.918h-.918a.913.913,0,0,1-.649-.269l-4-4a.917.917,0,0,1,1.3-1.3l3.728,3.728H251.9a.917.917,0,0,1,.918.917v.917h.917a.917.917,0,0,1,.917.918v1.455l1.566,1.566a.917.917,0,0,1-.649,1.566Z" transform="translate(-217.034 -155.127)"/><path d="M311.682,128.1a.919.919,0,0,1-.651-.271l-9.487-9.551a.918.918,0,0,1,1.3-1.294l9.487,9.551a.918.918,0,0,1-.651,1.564Z" transform="translate(-266.724 -105.166)"/><path d="M335.34,257.835h-6.422a.917.917,0,0,1,0-1.835h6.422a.917.917,0,1,1,0,1.835Z" transform="translate(-290.383 -228.475)"/><path d="M384.917,208.257a.917.917,0,0,1-.917-.917v-6.422a.917.917,0,1,1,1.835,0v6.422A.917.917,0,0,1,384.917,208.257Z" transform="translate(-339.96 -178.898)"/></g></g></svg>