<svg xmlns="http://www.w3.org/2000/svg" width="62" height="62" viewBox="0 0 62 62"><g transform="translate(-1 -1)"><path d="M49,22a2.015,2.015,0,0,1,2,2,2.006,2.006,0,0,1-2,2H43a2.015,2.015,0,0,1-2-2,2.006,2.006,0,0,1,2-2h6Z" fill="#fc6e51"/><path d="M49,26v4.28A16.492,16.492,0,0,0,46,30a15.572,15.572,0,0,0-3,.29V26Z" fill="#ff826e"/><path d="M55,22v6l-2.36.8a21.379,21.379,0,0,1-.59,2.39A14.92,14.92,0,0,0,49,30.28V26a2.006,2.006,0,0,0,2-2,2.015,2.015,0,0,0-2-2h-.26A17,17,0,0,0,15,25a17.178,17.178,0,0,0,.8,5.15,15.527,15.527,0,0,0-3.85,1.04,21.379,21.379,0,0,1-.59-2.39L9,28V22l2.36-.8a20.78,20.78,0,0,1,3.36-8.12l-1.1-2.22,4.24-4.24,2.22,1.1A20.78,20.78,0,0,1,28.2,4.36L29,2h6l.8,2.36a20.78,20.78,0,0,1,8.12,3.36l2.22-1.1,4.24,4.24-1.1,2.22a20.78,20.78,0,0,1,3.36,8.12Z" fill="#a0d468"/><path d="M48.74,22H44.65a13,13,0,1,0-24.6,8.13A15.458,15.458,0,0,0,18,30a15.938,15.938,0,0,0-2.2.15A17.178,17.178,0,0,1,15,25a17,17,0,0,1,33.74-3Z" fill="#b4dd7f"/><path d="M52.05,31.19A14.92,14.92,0,0,0,49,30.28,16.492,16.492,0,0,0,46,30a15.572,15.572,0,0,0-3,.29,16,16,0,0,0-11,7.96v.01a15.977,15.977,0,0,1,0,15.48v.01A16,16,0,1,0,52.05,31.19Z" fill="#ccd1d9"/><path d="M15.8,30.15A15.938,15.938,0,0,1,18,30a15.458,15.458,0,0,1,2.05.13A16.012,16.012,0,0,1,32,38.25v.01a15.977,15.977,0,0,1,0,15.48v.01A16,16,0,1,1,11.95,31.19a15.527,15.527,0,0,1,3.85-1.04Z" fill="#ffc729"/><circle cx="12" cy="12" r="12" transform="translate(6 34)" fill="#fcd770"/><path d="M58,46a11.984,11.984,0,1,1-3.51-8.49A11.962,11.962,0,0,1,58,46Z" fill="#69d6f4"/><path d="M46,44a2,2,0,1,1-2,2,2.015,2.015,0,0,1,2-2Z" fill="#ff826e"/><path d="M22,42.9a3.906,3.906,0,0,0-3-3.789V37H17v2.117a3.9,3.9,0,0,0-.329,7.494l2.025.676a1.905,1.905,0,0,1-.6,3.713h-.189A1.907,1.907,0,0,1,16,49.095V48H14v1.1a3.906,3.906,0,0,0,3,3.789V55h2V52.883a3.9,3.9,0,0,0,.329-7.494L17.3,44.713a1.905,1.905,0,0,1,.6-3.713h.189A1.907,1.907,0,0,1,20,42.905V43Z"/><path d="M18,33A13,13,0,1,0,31,46,13.015,13.015,0,0,0,18,33Zm0,24A11,11,0,1,1,29,46,11.013,11.013,0,0,1,18,57Z"/><path d="M43,46a3,3,0,0,0,2,2.816V51h2V48.816A2.993,2.993,0,0,0,46,43a2.951,2.951,0,0,0-1.285.3l-3.008-3.008-1.414,1.414L43.3,44.715A2.951,2.951,0,0,0,43,46Zm3-1a1,1,0,1,1-1,1A1,1,0,0,1,46,45Z"/><path d="M53.228,30.636c.1-.36.205-.723.28-1.077L56,28.718V21.281l-2.491-.84a21.715,21.715,0,0,0-3.073-7.435L51.6,10.657,46.342,5.4,43.993,6.564A21.72,21.72,0,0,0,36.557,3.49L35.718,1H28.282l-.84,2.491a21.728,21.728,0,0,0-7.436,3.074L17.658,5.4,12.4,10.659l1.164,2.349a21.687,21.687,0,0,0-3.073,7.435L8,21.282v7.437l2.492.84c.075.354.184.717.28,1.077A16.987,16.987,0,1,0,32,55.621,16.988,16.988,0,1,0,53.228,30.636Zm-40.884-2.02-.1-.58L10,27.282V22.719l2.238-.755.1-.58a19.757,19.757,0,0,1,3.2-7.732l.334-.484-1.045-2.11,3.227-3.227,2.11,1.045.484-.335a19.783,19.783,0,0,1,7.732-3.2l.58-.106L29.718,3h4.564l.754,2.237.58.106a19.762,19.762,0,0,1,7.732,3.2l.484.335,2.11-1.045,3.227,3.227-1.045,2.11.334.484a19.748,19.748,0,0,1,3.2,7.732l.1.58,2.24.755v4.563l-2.238.755-.1.58c-.076.416-.173.84-.281,1.269-.45-.15-.909-.277-1.375-.39V26.816a2.989,2.989,0,0,0-.452-5.761,17.989,17.989,0,1,0-35.005,8.3,16.6,16.6,0,0,0-1.918.53c-.109-.428-.206-.853-.282-1.269Zm8.446.633A11.993,11.993,0,1,1,43.311,21H43a2.993,2.993,0,0,0-1,5.816v2.672a17.02,17.02,0,0,0-10,6.891,17.016,17.016,0,0,0-11.211-7.13Zm-4.251-.175A15.992,15.992,0,1,1,47.488,21H45.409A13.995,13.995,0,1,0,18.6,29.03c-.2-.007-.4-.03-.6-.03-.493,0-.978.033-1.461.074ZM49,25H43a1,1,0,0,1,0-2h6a1,1,0,0,1,0,2Zm-5,2h4v2.128A17.138,17.138,0,0,0,46,29a16.806,16.806,0,0,0-2,.126ZM18,61A15,15,0,1,1,33,46,15.017,15.017,0,0,1,18,61ZM37.552,38.966l1.377,1.377,1.414-1.414-1.377-1.377A10.943,10.943,0,0,1,45,35.051V37h2V35.051a10.954,10.954,0,0,1,6.034,2.5l-1.377,1.377,1.414,1.414,1.377-1.377A10.943,10.943,0,0,1,56.949,45H55v2h1.949a10.954,10.954,0,0,1-2.5,6.034l-1.377-1.377-1.414,1.414,1.377,1.377A10.943,10.943,0,0,1,47,56.949V55H45v1.949a10.954,10.954,0,0,1-6.034-2.5l1.377-1.377-1.414-1.414-1.377,1.377A10.943,10.943,0,0,1,35.051,47H37V45H35.051A10.946,10.946,0,0,1,37.552,38.966ZM46,61a15.007,15.007,0,0,1-12.861-7.3,16.874,16.874,0,0,0,1-2.394,13,13,0,1,0,0-10.6,16.824,16.824,0,0,0-1-2.394A15,15,0,1,1,46,61Z"/><path d="M22,25h2a7.959,7.959,0,0,1,4.445-7.169l-.891-1.791A9.95,9.95,0,0,0,22,25Z"/><path d="M30.222,17.2A8.082,8.082,0,0,1,32,17V15a10.037,10.037,0,0,0-2.222.248Z"/></g></svg>