<svg xmlns="http://www.w3.org/2000/svg" xmlns:xlink="http://www.w3.org/1999/xlink" width="108.914" height="108.914" viewBox="0 0 108.914 108.914"><defs><filter id="a" x="0" y="0" width="108.914" height="108.914" filterUnits="userSpaceOnUse"><feOffset dy="3" input="SourceAlpha"/><feGaussianBlur stdDeviation="3" result="b"/><feFlood flood-opacity="0.161"/><feComposite operator="in" in2="b"/><feComposite in="SourceGraphic"/></filter></defs><g transform="translate(-588.417 -1016.655)"><g transform="matrix(1, 0, 0, 1, 588.42, 1016.66)" filter="url(#a)"><g transform="translate(9 6)" fill="#cae1f9" opacity="0.859"><path d="M 45.45676803588867 89.41407012939453 C 39.52198028564453 89.41407012939453 33.76551818847656 88.25206756591797 28.34726715087891 85.96034240722656 C 23.11311721801758 83.74648284912109 18.41204261779785 80.57682800292969 14.37464332580566 76.5394287109375 C 10.33724308013916 72.50202941894531 7.167593002319336 67.80095672607422 4.953730583190918 62.56679534912109 C 2.662005424499512 57.14855575561523 1.500005483627319 51.39208221435547 1.500005483627319 45.45729446411133 C 1.500005483627319 39.52198028564453 2.662005424499512 33.76551818847656 4.953730583190918 28.34726905822754 C 7.167593002319336 23.11310577392578 10.33724308013916 18.41203117370605 14.37464332580566 14.37464332580566 C 18.41204261779785 10.33724403381348 23.11311721801758 7.167593955993652 28.34726715087891 4.953731060028076 C 33.76551818847656 2.662006139755249 39.52198028564453 1.500006198883057 45.45676803588867 1.500006198883057 C 51.39155578613281 1.500006198883057 57.14802932739258 2.662006139755249 62.56626892089844 4.953731060028076 C 67.80043029785156 7.167593955993652 72.50150299072266 10.33724403381348 76.53890228271484 14.37464332580566 C 80.57630920410156 18.41203117370605 83.74595642089844 23.11310577392578 85.95981597900391 28.34726905822754 C 88.25154113769531 33.76551818847656 89.41354370117188 39.52198028564453 89.41354370117188 45.45676803588867 C 89.41354370117188 51.39208221435547 88.25154113769531 57.14855575561523 85.95981597900391 62.56679534912109 C 83.74595642089844 67.80095672607422 80.57630920410156 72.50202941894531 76.53890228271484 76.5394287109375 C 72.50150299072266 80.57682800292969 67.80043029785156 83.74648284912109 62.56626892089844 85.96034240722656 C 57.14802932739258 88.25206756591797 51.39155578613281 89.41407012939453 45.45676803588867 89.41407012939453 Z" stroke="none"/><path d="M 45.45676803588867 3 C 39.72381210327148 3 34.1639404296875 4.12213134765625 28.93159484863281 6.335227966308594 C 23.87622833251953 8.473472595214844 19.33542633056641 11.53517150878906 15.43529510498047 15.435302734375 C 11.53517150878906 19.33543395996094 8.473464965820312 23.87622833251953 6.335227966308594 28.93160247802734 C 4.122123718261719 34.16394424438477 3 39.72381591796875 3 45.4572868347168 C 3 51.19024658203125 4.122123718261719 56.75011825561523 6.335227966308594 61.98246002197266 C 8.473464965820312 67.03782653808594 11.53517150878906 71.57862854003906 15.43529510498047 75.478759765625 C 19.33542633056641 79.37889099121094 23.87622833251953 82.44058990478516 28.93159484863281 84.57883453369141 C 34.1639404296875 86.79193115234375 39.72381210327148 87.9140625 45.45676803588867 87.9140625 C 51.18972396850586 87.9140625 56.74959564208984 86.79193115234375 61.98194122314453 84.57883453369141 C 67.03730773925781 82.44058990478516 71.57810974121094 79.37889099121094 75.47824096679688 75.478759765625 C 79.37837219238281 71.57862854003906 82.44007110595703 67.03782653808594 84.57830810546875 61.98246002197266 C 86.79141235351562 56.75011825561523 87.91353607177734 51.19024658203125 87.91353607177734 45.4567756652832 C 87.91353607177734 39.72381591796875 86.79141235351562 34.16394424438477 84.57830810546875 28.93160247802734 C 82.44007110595703 23.87622833251953 79.37837219238281 19.33543395996094 75.47824096679688 15.435302734375 C 71.57810974121094 11.53517150878906 67.03730773925781 8.473472595214844 61.98194122314453 6.335227966308594 C 56.74959564208984 4.12213134765625 51.18972396850586 3 45.45676803588867 3 M 45.45676803588867 0 C 70.56185150146484 0 90.91353607177734 20.35169219970703 90.91353607177734 45.4567756652832 L 90.91353607177734 45.4572868347168 C 90.91353607177734 70.5623779296875 70.56185150146484 90.9140625 45.45676803588867 90.9140625 C 20.3516845703125 90.9140625 0 70.5623779296875 0 45.4572868347168 L 0 45.4567756652832 C 0 20.35169219970703 20.3516845703125 0 45.45676803588867 0 Z" stroke="none" fill="#fff"/></g></g><g transform="translate(615.974 1040.689)"><g transform="translate(0 0)"><g transform="translate(0.917 0.892)"><ellipse cx="6.667" cy="6.667" rx="6.667" ry="6.667" fill="#ffd064"/><path d="M74.775,14.8q.284-.024.573-.024a6.667,6.667,0,1,1,0,13.334q-.29,0-.573-.024a6.667,6.667,0,0,0,0-13.285Z" transform="translate(-68.681 -14.774)" fill="#ffc338" fill-rule="evenodd"/><g transform="translate(40.192)"><ellipse cx="6.667" cy="6.667" rx="6.667" ry="6.667" fill="#ffd064"/><path d="M425.225,14.8q.284-.024.573-.024a6.667,6.667,0,0,1,0,13.334q-.29,0-.573-.024a6.667,6.667,0,0,0,0-13.285Z" transform="translate(-419.131 -14.774)" fill="#ffc338" fill-rule="evenodd"/></g><g transform="translate(40.192 41.716)"><g transform="translate(0 0)"><ellipse cx="6.667" cy="6.667" rx="6.667" ry="6.667" transform="translate(0 0)" fill="#ffd064"/><path d="M425.225,378.534q.284-.024.573-.024a6.667,6.667,0,0,1,0,13.334q-.29,0-.573-.024a6.667,6.667,0,0,0,0-13.285Z" transform="translate(-419.131 -378.51)" fill="#ffc338" fill-rule="evenodd"/></g></g><g transform="translate(0 41.716)"><g transform="translate(0 0)"><ellipse cx="6.667" cy="6.667" rx="6.667" ry="6.667" transform="translate(0 0)" fill="#ffd064"/><path d="M74.775,378.534q.284-.024.573-.024a6.667,6.667,0,1,1,0,13.334q-.29,0-.573-.024a6.667,6.667,0,0,0,0-13.285Z" transform="translate(-68.681 -378.51)" fill="#ffc338" fill-rule="evenodd"/></g></g><g transform="translate(11.03 9.968)"><path d="M134.385,101.856l14.157,6.067a1.431,1.431,0,0,1,.883,1.341v11.818c0,9.378-6.717,16.621-15.8,18.206-9.088-1.585-15.8-8.827-15.8-18.206V109.263a1.43,1.43,0,0,1,.883-1.341l14.157-6.067A1.881,1.881,0,0,1,134.385,101.856Z" transform="translate(-117.816 -101.693)" fill="#8ac9fe" fill-rule="evenodd"/><path d="M374.544,151.2l1.283.551a1.431,1.431,0,0,1,.883,1.341v11.818a18.135,18.135,0,0,1-2.166,8.7Z" transform="translate(-345.101 -145.526)" fill="#60b7ff" fill-rule="evenodd"/></g><g transform="translate(17.515 16.991)"><path d="M210.835,176.246l-3.009-.317V169.5a3.564,3.564,0,1,0-7.128,0v6.745l-3.009-.8V169.5a6.573,6.573,0,1,1,13.146,0Z" transform="translate(-195.014 -162.928)" fill="#eceff1" fill-rule="evenodd"/><path d="M175.563,235.759h16.094a1.2,1.2,0,0,1,1.2,1.2v12.791a1.2,1.2,0,0,1-1.2,1.2H175.563a1.2,1.2,0,0,1-1.2-1.2V236.96A1.2,1.2,0,0,1,175.563,235.759Z" transform="translate(-174.362 -227.406)" fill="#837683" fill-rule="evenodd"/><path d="M313.524,235.759h1.335a1.2,1.2,0,0,1,1.2,1.2v12.791a1.2,1.2,0,0,1-1.2,1.2h-1.335a1.2,1.2,0,0,0,1.2-1.2V236.96A1.2,1.2,0,0,0,313.524,235.759Z" transform="translate(-297.564 -227.406)" fill="#685e68" fill-rule="evenodd"/><path d="M236.935,262.2a2.34,2.34,0,0,1,1.226,4.331V270.1a1.227,1.227,0,0,1-2.454,0v-3.569a2.34,2.34,0,0,1,1.228-4.331Z" transform="translate(-227.687 -250.817)" fill="#eceff1" fill-rule="evenodd"/></g></g><path d="M41.686,17.043l15.733,6.744a.918.918,0,0,1,.556.843V37.352A19.287,19.287,0,0,1,42.056,56.278l-.573.1a.92.92,0,0,1-.316,0l-.573-.1a19.287,19.287,0,0,1-15.92-18.926V24.63a.918.918,0,0,1,.556-.843l15.733-6.744a.917.917,0,0,1,.723,0Zm-.361,1.841L26.509,25.235V37.352a17.445,17.445,0,0,0,14.4,17.119l.416.073.416-.073a17.445,17.445,0,0,0,14.4-17.119V25.235Zm7.227,14.068h.5a2.072,2.072,0,0,1,2.069,2.069V47.3A2.069,2.069,0,0,1,49.05,49.37H33.6A2.072,2.072,0,0,1,31.53,47.3V35.021A2.075,2.075,0,0,1,33.6,32.952h.5V31.219a7.227,7.227,0,1,1,14.454,0Zm-12.619,0h1.056V31.219a4.337,4.337,0,1,1,8.675,0v1.733h1.053V31.219a5.392,5.392,0,1,0-10.784,0Zm2.891,0h5V31.219a2.5,2.5,0,1,0-5,0ZM33.6,34.787a.236.236,0,0,0-.237.234V47.3a.235.235,0,0,0,.237.234H49.05a.234.234,0,0,0,.234-.234V35.021a.234.234,0,0,0-.234-.234Zm7.724,1.074a3.166,3.166,0,0,1,2.1,5.535v2.968a2.1,2.1,0,0,1-4.191,0s0-2.968,0-2.968a3.164,3.164,0,0,1,2.1-5.535Zm0,1.835a1.329,1.329,0,0,0-.7,2.461.917.917,0,0,1,.436.781v3.425a.261.261,0,0,0,.521,0V40.939a.918.918,0,0,1,.436-.781,1.33,1.33,0,0,0-.7-2.461ZM21.228,7a7.584,7.584,0,1,1-7.584,7.584A7.588,7.588,0,0,1,21.228,7Zm0,1.835a5.749,5.749,0,1,0,5.749,5.749,5.752,5.752,0,0,0-5.749-5.749Zm-3.614,6.577a.918.918,0,1,1,1.3-1.3l1.111,1.11L23.578,12a.918.918,0,1,1,1.233,1.359l-4.2,3.81a.918.918,0,0,1-1.265-.03ZM61.42,7a7.584,7.584,0,1,1-7.584,7.584A7.588,7.588,0,0,1,61.42,7Zm0,1.835a5.749,5.749,0,1,0,5.749,5.749A5.752,5.752,0,0,0,61.42,8.835Zm-3.614,6.577a.918.918,0,1,1,1.3-1.3l1.112,1.11L63.77,12A.917.917,0,1,1,65,13.359l-4.2,3.81a.918.918,0,0,1-1.265-.03Zm3.614,33.3A7.584,7.584,0,1,1,53.836,56.3a7.588,7.588,0,0,1,7.584-7.584Zm0,1.835A5.749,5.749,0,1,0,67.17,56.3,5.752,5.752,0,0,0,61.42,50.551Zm-3.614,6.577a.917.917,0,1,1,1.3-1.3l1.112,1.11,3.555-3.223A.918.918,0,0,1,65,55.075l-4.2,3.81a.918.918,0,0,1-1.265-.03ZM21.228,48.716A7.584,7.584,0,1,1,13.644,56.3,7.588,7.588,0,0,1,21.228,48.716Zm0,1.835A5.749,5.749,0,1,0,26.978,56.3,5.752,5.752,0,0,0,21.228,50.551Zm-3.614,6.577a.917.917,0,1,1,1.3-1.3l1.111,1.11,3.555-3.223a.918.918,0,1,1,1.233,1.36l-4.2,3.81a.918.918,0,0,1-1.265-.03Zm1.378-11.1a.917.917,0,1,1-1.692.71,26.069,26.069,0,0,1,1.081-22.379.918.918,0,0,1,1.616.87,24.234,24.234,0,0,0-1,20.8ZM50.707,59a.917.917,0,0,1,.713,1.691A26.084,26.084,0,0,1,30.784,60.5a.917.917,0,1,1,.744-1.677A24.25,24.25,0,0,0,50.707,59ZM62.624,25.179a.918.918,0,0,1,1.614-.874,26.068,26.068,0,0,1,1.111,22.434.917.917,0,1,1-1.692-.71,24.233,24.233,0,0,0-1.032-20.851ZM32.169,14.269a.918.918,0,0,1-.7-1.7,26.092,26.092,0,0,1,19.892.079.917.917,0,1,1-.709,1.693,24.257,24.257,0,0,0-18.488-.073Z" transform="translate(-13.644 -7)" fill-rule="evenodd"/></g></g></g></svg>