<svg xmlns="http://www.w3.org/2000/svg" xmlns:xlink="http://www.w3.org/1999/xlink" width="108.914" height="108.914" viewBox="0 0 108.914 108.914"><defs><filter id="a" x="0" y="0" width="108.914" height="108.914" filterUnits="userSpaceOnUse"><feOffset dy="3" input="SourceAlpha"/><feGaussianBlur stdDeviation="3" result="b"/><feFlood flood-opacity="0.161"/><feComposite operator="in" in2="b"/><feComposite in="SourceGraphic"/></filter></defs><g transform="translate(-1219.417 -1018.136)"><g transform="matrix(1, 0, 0, 1, 1219.42, 1018.14)" filter="url(#a)"><g transform="translate(9 6)" fill="#cae1f9" opacity="0.859"><path d="M 45.45676803588867 89.41407012939453 C 39.52198028564453 89.41407012939453 33.76551818847656 88.25206756591797 28.34726715087891 85.96034240722656 C 23.11311721801758 83.74648284912109 18.41204261779785 80.57682800292969 14.37464332580566 76.5394287109375 C 10.33724308013916 72.50202941894531 7.167593002319336 67.80095672607422 4.953730583190918 62.56679534912109 C 2.662005424499512 57.14855575561523 1.500005483627319 51.39208221435547 1.500005483627319 45.45729446411133 C 1.500005483627319 39.52198028564453 2.662005424499512 33.76551818847656 4.953730583190918 28.34726905822754 C 7.167593002319336 23.11310577392578 10.33724308013916 18.41203117370605 14.37464332580566 14.37464332580566 C 18.41204261779785 10.33724403381348 23.11311721801758 7.167593955993652 28.34726715087891 4.953731060028076 C 33.76551818847656 2.662006139755249 39.52198028564453 1.500006198883057 45.45676803588867 1.500006198883057 C 51.39155578613281 1.500006198883057 57.14802932739258 2.662006139755249 62.56626892089844 4.953731060028076 C 67.80043029785156 7.167593955993652 72.50150299072266 10.33724403381348 76.53890228271484 14.37464332580566 C 80.57630920410156 18.41203117370605 83.74595642089844 23.11310577392578 85.95981597900391 28.34726905822754 C 88.25154113769531 33.76551818847656 89.41354370117188 39.52198028564453 89.41354370117188 45.45676803588867 C 89.41354370117188 51.39208221435547 88.25154113769531 57.14855575561523 85.95981597900391 62.56679534912109 C 83.74595642089844 67.80095672607422 80.57630920410156 72.50202941894531 76.53890228271484 76.5394287109375 C 72.50150299072266 80.57682800292969 67.80043029785156 83.74648284912109 62.56626892089844 85.96034240722656 C 57.14802932739258 88.25206756591797 51.39155578613281 89.41407012939453 45.45676803588867 89.41407012939453 Z" stroke="none"/><path d="M 45.45676803588867 3 C 39.72381210327148 3 34.1639404296875 4.12213134765625 28.93159484863281 6.335227966308594 C 23.87622833251953 8.473472595214844 19.33542633056641 11.53517150878906 15.43529510498047 15.435302734375 C 11.53517150878906 19.33543395996094 8.473464965820312 23.87622833251953 6.335227966308594 28.93160247802734 C 4.122123718261719 34.16394424438477 3 39.72381591796875 3 45.4572868347168 C 3 51.19024658203125 4.122123718261719 56.75011825561523 6.335227966308594 61.98246002197266 C 8.473464965820312 67.03782653808594 11.53517150878906 71.57862854003906 15.43529510498047 75.478759765625 C 19.33542633056641 79.37889099121094 23.87622833251953 82.44058990478516 28.93159484863281 84.57883453369141 C 34.1639404296875 86.79193115234375 39.72381210327148 87.9140625 45.45676803588867 87.9140625 C 51.18972396850586 87.9140625 56.74959564208984 86.79193115234375 61.98194122314453 84.57883453369141 C 67.03730773925781 82.44058990478516 71.57810974121094 79.37889099121094 75.47824096679688 75.478759765625 C 79.37837219238281 71.57862854003906 82.44007110595703 67.03782653808594 84.57830810546875 61.98246002197266 C 86.79141235351562 56.75011825561523 87.91353607177734 51.19024658203125 87.91353607177734 45.4567756652832 C 87.91353607177734 39.72381591796875 86.79141235351562 34.16394424438477 84.57830810546875 28.93160247802734 C 82.44007110595703 23.87622833251953 79.37837219238281 19.33543395996094 75.47824096679688 15.435302734375 C 71.57810974121094 11.53517150878906 67.03730773925781 8.473472595214844 61.98194122314453 6.335227966308594 C 56.74959564208984 4.12213134765625 51.18972396850586 3 45.45676803588867 3 M 45.45676803588867 0 C 70.56185150146484 0 90.91353607177734 20.35169219970703 90.91353607177734 45.4567756652832 L 90.91353607177734 45.4572868347168 C 90.91353607177734 70.5623779296875 70.56185150146484 90.9140625 45.45676803588867 90.9140625 C 20.3516845703125 90.9140625 0 70.5623779296875 0 45.4572868347168 L 0 45.4567756652832 C 0 20.35169219970703 20.3516845703125 0 45.45676803588867 0 Z" stroke="none" fill="#fff"/></g></g><g transform="translate(1246.349 1041.607)"><path d="M195.927,51.525V33.175h4.587L192.257,24,184,33.175h4.587v18.35Z" transform="translate(-164.733 -23.083)" fill="#ffc431"/><path d="M59.782,139.265a2.752,2.752,0,0,0,2.752-2.752V133.76a1.835,1.835,0,0,1,1.835-1.835h3.67v4.587l9.175-8.257L68.04,120v4.587H63.452a6.422,6.422,0,0,0-6.422,6.422v2.752H44.185v-2.752a6.422,6.422,0,0,0-6.422-6.422H33.175V120L24,128.255l9.175,8.257v-4.587h3.67a1.835,1.835,0,0,1,1.835,1.835v2.752a2.752,2.752,0,0,0,2.752,2.752Z" transform="translate(-23.083 -108.07)" fill="#ef5e3b"/><path d="M170.752,252.845h-.917L168,250.092l1.835-7.34L176.257,240h3.67l6.422,2.752,1.835,6.422-1.835,3.67h-.918l-.917,4.587H171.67Z" transform="translate(-150.568 -214.31)" fill="#548aff"/><path d="M237.5,200v2.752a2.752,2.752,0,0,1-5.5,0V200Z" transform="translate(-207.228 -178.898)" fill="#ffceb6"/><path d="M232,171.67v-1.557a2.113,2.113,0,0,1,3.285-1.758l2.22,1.48v1.835Z" transform="translate(-207.228 -150.568)" fill="#b1712c"/><path d="M209.067,392l.489,11.01H205.4l-2.752-5.5-2.752,5.5h-4.159l.489-11.01Z" transform="translate(-175.12 -348.878)" fill="#62798c"/><path d="M206.68,337.835h-3.67L199.34,336l-2.752,1.835H192l.917,4.587h12.845Z" transform="translate(-171.815 -299.3)" fill="#4976f2"/><path d="M213.839,281.335,208,283.67V280h1.835Z" transform="translate(-185.98 -249.723)" fill="#ffceb6"/><path d="M264.667,281.07l1.758,3.517,2.753-1.835V280h-1.835Z" transform="translate(-236.148 -249.723)" fill="#ffceb6"/><path d="M163.435,198.251a.918.918,0,0,0,.663.283h4.159a.918.918,0,0,0,.821-.507l1.932-3.864,1.932,3.864a.917.917,0,0,0,.821.507h4.159a.917.917,0,0,0,.917-.958l-.484-10.9.748-3.741h.165a.917.917,0,0,0,.821-.507l1.835-3.67a.917.917,0,0,0,.062-.662l-1.835-6.422a.918.918,0,0,0-.521-.591l-5.265-2.257a3.647,3.647,0,0,0,.316-1.488v-4.587a.917.917,0,0,0-.409-.763l-2.22-1.48a3.03,3.03,0,0,0-4.711,2.521v4.31a3.647,3.647,0,0,0,.316,1.488l-5.265,2.257a.917.917,0,0,0-.529.621l-1.835,7.34a.918.918,0,0,0,.127.731l1.835,2.752a.917.917,0,0,0,.763.409h.165l.748,3.741-.484,10.9A.918.918,0,0,0,163.435,198.251ZM174.33,196.7l-2.5-5a.918.918,0,0,0-1.641,0l-2.5,5h-2.633l.408-9.175h11.09l.408,9.175Zm-5.154-29.36V165.5h3.67v1.835a1.835,1.835,0,0,1-3.67,0Zm1.2-5.5a1.191,1.191,0,0,1,.663.2l1.812,1.208v.426h-3.67v-.64A1.2,1.2,0,0,1,170.37,161.835ZM161.906,179.1l1.626-6.5,5.325-2.282a3.658,3.658,0,0,0,4.306,0l5.342,2.289,1.617,5.66L178.7,181.1h-3.8l-2.062-1.031,3.51-2.34,1.715.572.58-1.741-1.208-.4v-2.4a.918.918,0,0,0-.917-.917H174.68a.917.917,0,0,0-.341.066l-3.024,1.21-3.685-1.228a.919.919,0,0,0-.29-.047h-1.835a.918.918,0,0,0-.917.917v3.67a.917.917,0,0,0,1.258.852L171.561,176l1.019,2.038-4.6,3.067h-4.736Zm13.691-3.072-1.479.986-.848-1.7,1.586-.634h.741Zm-6.92-.849-2.255.9v-1.4h.769Zm-.42,7.762a.918.918,0,0,0,.509-.154l2.31-1.54,3.194,1.6a.918.918,0,0,0,.41.1h2.551l-.55,2.752H165.34l-.55-2.752Z" transform="translate(-143.485 -143.485)"/><path d="M182.423,31.6v-5.5a.918.918,0,0,0-.917-.917h-2.527l6.2-6.886,6.2,6.886h-2.527a.918.918,0,0,0-.918.917V31.6h1.835V27.01h3.67a.918.918,0,0,0,.682-1.531L185.857,16.3a.917.917,0,0,0-1.364,0l-8.257,9.175a.917.917,0,0,0,.682,1.531h3.67V31.6Z" transform="translate(-157.65 -16)"/><path d="M25.479,130.114a.917.917,0,0,0,1.531-.682v-3.67h2.752a.919.919,0,0,1,.917.918v2.752h1.835V126.68a2.756,2.756,0,0,0-2.752-2.752h-3.67a.918.918,0,0,0-.917.917v2.527l-6.886-6.2,6.886-6.2V117.5a.918.918,0,0,0,.917.917H30.68a5.511,5.511,0,0,1,5.5,5.5v1.835H38.02v-1.835a7.348,7.348,0,0,0-7.34-7.34H27.01v-3.67a.917.917,0,0,0-1.531-.682L16.3,120.493a.917.917,0,0,0,0,1.364Z" transform="translate(-16 -100.99)"/><path d="M325.717,120.5l-9.175-8.257a.917.917,0,0,0-1.531.682v3.67h-3.67a7.348,7.348,0,0,0-7.34,7.34v1.835h1.835v-1.835a5.511,5.511,0,0,1,5.5-5.5h4.587a.918.918,0,0,0,.918-.917v-2.527l6.886,6.2-6.886,6.2v-2.527a.918.918,0,0,0-.917-.917h-3.67a2.756,2.756,0,0,0-2.752,2.752v2.752h1.835v-2.752a.919.919,0,0,1,.917-.918h2.753v3.67a.917.917,0,0,0,1.531.682l9.175-8.257a.917.917,0,0,0,0-1.364Z" transform="translate(-270.971 -100.993)"/></g></g></svg>