<svg xmlns="http://www.w3.org/2000/svg" xmlns:xlink="http://www.w3.org/1999/xlink" width="166.122" height="166.123" viewBox="0 0 166.122 166.123"><defs><filter id="a" x="0" y="0" width="166.122" height="166.123" filterUnits="userSpaceOnUse"><feOffset dy="3" input="SourceAlpha"/><feGaussianBlur stdDeviation="3" result="b"/><feFlood flood-opacity="0.161"/><feComposite operator="in" in2="b"/><feComposite in="SourceGraphic"/></filter></defs><g transform="translate(-701.828 -5276.877)"><g transform="matrix(1, 0, 0, 1, 701.83, 5276.88)" filter="url(#a)"><g transform="translate(9 6)" fill="#f5eec2" opacity="0.859"><path d="M 74.06109619140625 146.623046875 C 64.26475524902344 146.623046875 54.76223754882812 144.7047424316406 45.81749725341797 140.9214477539062 C 41.51827621459961 139.1030426025391 37.37155532836914 136.8522644042969 33.49253463745117 134.2316436767578 C 29.64997673034668 131.6356658935547 26.03655624389648 128.654296875 22.75265693664551 125.3704071044922 C 19.46873664855957 122.0864868164062 16.48737525939941 118.4730606079102 13.89139652252197 114.6305236816406 C 11.27077579498291 110.7514801025391 9.020015716552734 106.6047821044922 7.201596260070801 102.3055648803711 C 3.418296098709106 93.36082458496094 1.499996185302734 83.85830688476562 1.499996185302734 74.06196594238281 C 1.499996185302734 64.26476287841797 3.418296098709106 54.76224517822266 7.201596260070801 45.8175048828125 C 9.020015716552734 41.51828384399414 11.27077579498291 37.37156295776367 13.89139652252197 33.4925422668457 C 16.48737525939941 29.64998435974121 19.46873664855957 26.03656387329102 22.75265693664551 22.75266265869141 C 26.03655624389648 19.4687442779541 29.64997673034668 16.48738288879395 33.49253463745117 13.89140319824219 C 37.37155532836914 11.27078342437744 41.51827621459961 9.020023345947266 45.81749725341797 7.201603412628174 C 54.76223754882812 3.418303489685059 64.26475524902344 1.500003457069397 74.06109619140625 1.500003457069397 C 83.85743713378906 1.500003457069397 93.35995483398438 3.418303489685059 102.3046951293945 7.201603412628174 C 106.6039199829102 9.020023345947266 110.7506332397461 11.27078342437744 114.6296539306641 13.89140319824219 C 118.4722137451172 16.48738288879395 122.0856399536133 19.4687442779541 125.3695373535156 22.75266265869141 C 128.6534576416016 26.03656387329102 131.6348114013672 29.64998435974121 134.2307891845703 33.4925422668457 C 136.8514099121094 37.37156295776367 139.1021728515625 41.51828384399414 140.9205932617188 45.8175048828125 C 144.7039031982422 54.76224517822266 146.6221923828125 64.26476287841797 146.6221923828125 74.06110382080078 C 146.6221923828125 83.85830688476562 144.7039031982422 93.36082458496094 140.9205932617188 102.3055648803711 C 139.1021728515625 106.6047821044922 136.8514099121094 110.7514801025391 134.2307891845703 114.6305236816406 C 131.6348114013672 118.4730606079102 128.6534576416016 122.0864868164062 125.3695373535156 125.3704071044922 C 122.0856399536133 128.654296875 118.4722137451172 131.6356658935547 114.6296539306641 134.2316436767578 C 110.7506332397461 136.8522644042969 106.6039199829102 139.1030426025391 102.3046951293945 140.9214477539062 C 93.35995483398438 144.7047424316406 83.85743713378906 146.623046875 74.06109619140625 146.623046875 Z" stroke="none"/><path d="M 74.06109619140625 3 C 64.46659851074219 3 55.16065979003906 4.87841796875 46.40182495117188 8.583099365234375 C 42.19180297851562 10.36380004882812 38.13101196289062 12.56794738769531 34.33224487304688 15.13433837890625 C 30.56880187988281 17.6768798828125 27.02972412109375 20.59690093994141 23.81330108642578 23.81331634521484 C 20.59690856933594 27.02970886230469 17.67686462402344 30.56879425048828 15.13435363769531 34.33225250244141 C 12.56793212890625 38.13102722167969 10.36378479003906 42.19181823730469 8.583099365234375 46.40181732177734 C 4.878433227539062 55.16065216064453 2.999984741210938 64.46658325195312 2.999984741210938 74.06195831298828 C 2.999984741210938 83.65646362304688 4.878433227539062 92.96240234375 8.583099365234375 101.7212371826172 C 10.36378479003906 105.9312286376953 12.56793212890625 109.9920196533203 15.13435363769531 113.7907943725586 C 17.67686462402344 117.5542526245117 20.59690856933594 121.0933380126953 23.81330108642578 124.3097305297852 C 27.02972412109375 127.5261459350586 30.56880187988281 130.4461669921875 34.33224487304688 132.9887084960938 C 38.13101196289062 135.5551147460938 42.19180297851562 137.7592468261719 46.40182495117188 139.5399475097656 C 55.16065979003906 143.24462890625 64.46659851074219 145.123046875 74.06109619140625 145.123046875 C 83.65561676025391 145.123046875 92.96153259277344 143.24462890625 101.7203674316406 139.5399475097656 C 105.9303894042969 137.7592468261719 109.9911804199219 135.5551147460938 113.7899475097656 132.9887084960938 C 117.5533905029297 130.4461669921875 121.0924682617188 127.5261459350586 124.3088836669922 124.3097305297852 C 127.5252838134766 121.0933380126953 130.4453125 117.5542526245117 132.9878540039062 113.7907943725586 C 135.5542449951172 109.9920196533203 137.7583923339844 105.9312286376953 139.5390777587891 101.7212371826172 C 143.2437591552734 92.96240234375 145.1221771240234 83.65646362304688 145.1221771240234 74.06108856201172 C 145.1221771240234 64.46658325195312 143.2437591552734 55.16065216064453 139.5390777587891 46.40181732177734 C 137.7583923339844 42.19181823730469 135.5542449951172 38.13102722167969 132.9878540039062 34.33225250244141 C 130.4453125 30.56879425048828 127.5252838134766 27.02970886230469 124.3088836669922 23.81331634521484 C 121.0924682617188 20.59690093994141 117.5533905029297 17.6768798828125 113.7899475097656 15.13433837890625 C 109.9911804199219 12.56794738769531 105.9303894042969 10.36380004882812 101.7203674316406 8.583099365234375 C 92.96153259277344 4.87841796875 83.65561676025391 3 74.06109619140625 3 M 74.06109619140625 0 C 114.9639282226562 0 148.1221771240234 33.15827178955078 148.1221771240234 74.06108856201172 L 148.1221771240234 74.06195831298828 C 148.1221771240234 114.9647750854492 114.9639282226562 148.123046875 74.06109619140625 148.123046875 C 33.15828704833984 148.123046875 -1.52587890625e-05 114.9647750854492 -1.52587890625e-05 74.06195831298828 L -1.52587890625e-05 74.06108856201172 C -1.52587890625e-05 33.15827178955078 33.15828704833984 0 74.06109619140625 0 Z" stroke="none" fill="#fff"/></g></g><g transform="translate(747.131 5313.815)"><g transform="translate(1.263 70.338)"><path d="M25.418,425.468H17.236a5.906,5.906,0,0,1-5.9-5.9h-.168v5.678a6.067,6.067,0,0,0,6.067,6.067h8.183v-5.846Z" transform="translate(-11.168 -419.231)" fill="#bb5d4c"/><path d="M184.331,417.566v5.9a.337.337,0,0,1-.337.337H147.316v5.846H189a.842.842,0,0,0,.842-.842V417.565Z" transform="translate(-124.382 -417.565)" fill="#bb5d4c"/></g><g transform="translate(1.263 70.677)"><path d="M16.881,425.63a6.067,6.067,0,0,1-5.712-6.056v5.678a6.067,6.067,0,0,0,6.067,6.067h5.7A6.067,6.067,0,0,1,16.881,425.63Z" transform="translate(-11.169 -419.574)" fill="#a44f3e"/></g><g transform="translate(1.263 11.26)"><path d="M389.581,66.848H373.4v52.507a.842.842,0,0,1-.842.842h-4.5v5.729h21.523a.842.842,0,0,0,.842-.842V67.69A.842.842,0,0,0,389.581,66.848Z" transform="translate(-307.941 -66.848)" fill="#dff6fd"/><g transform="translate(60.117 0)"><path d="M399.781,66.848v.111a.833.833,0,0,1,.411-.111Z" transform="translate(-394.437 -66.848)" fill="#c8effe"/><path d="M372.97,387.893v-5a.832.832,0,0,1-.411.111h-4.5v5.729h5.754A.842.842,0,0,1,372.97,387.893Z" transform="translate(-368.058 -329.657)" fill="#c8effe"/></g><path d="M17.236,383.554a6.067,6.067,0,0,0,0,12.135h8.183v-6.406H34.1v6.406H70.781a.505.505,0,0,0,.505-.505v-11.63H17.236Z" transform="translate(-11.169 -330.205)" fill="#fff"/></g><path d="M25.419,389.284h1.566a6.067,6.067,0,0,1,6.058-5.729H17.236a6.067,6.067,0,1,0,0,12.135h8.183Z" transform="translate(-9.906 -318.946)" fill="#f2fbff"/><path d="M25.42,395.683a6.067,6.067,0,0,1,.278-12.128H17.237a6.067,6.067,0,1,0,0,12.135H25.42v-.007Z" transform="translate(-9.906 -318.946)" fill="#01d0fb"/><g transform="translate(15.513 70.338)"><path d="M104.449,431.732V417.566H95.765v14.166a.477.477,0,0,0,.748.392l3.593-2.487,3.593,2.487A.477.477,0,0,0,104.449,431.732Z" transform="translate(-95.765 -417.566)" fill="#fb2b3a"/></g><g transform="translate(15.513 70.338)"><path d="M99.51,417.566H95.765v14.166a.477.477,0,0,0,.748.392l3-2.074Z" transform="translate(-95.765 -417.566)" fill="#e41f2d"/></g><g transform="translate(1.264 1.263)"><path d="M17.237,7.5a6.067,6.067,0,0,0-6.067,6.067V76.913a6.067,6.067,0,0,1,6.067-6.067H75.789A.842.842,0,0,0,76.631,70V8.342a.842.842,0,0,0-.842-.842Z" transform="translate(-11.17 -7.5)" fill="#883f2e"/></g><g transform="translate(1.264 1.263)"><path d="M17.237,70.846h6.4V7.5h-6.4a6.067,6.067,0,0,0-6.067,6.067V76.913A6.067,6.067,0,0,1,17.237,70.846Z" transform="translate(-11.17 -7.5)" fill="#a44f3e"/></g><g transform="translate(1.263 1.263)"><path d="M15.517,13.567A6.067,6.067,0,0,1,21.584,7.5H17.236a6.067,6.067,0,0,0-6.067,6.067V76.913a6.069,6.069,0,0,1,4.348-5.819Z" transform="translate(-11.169 -7.5)" fill="#883f2e"/></g><g transform="translate(19.299 6.83)"><path d="M118.236,92.253V41.05a.505.505,0,0,1,.505-.505H159.59a.505.505,0,0,1,.505.505v51.2a.505.505,0,0,1-.505.505H118.741A.505.505,0,0,1,118.236,92.253Z" transform="translate(-118.236 -40.545)" fill="#ca6e59"/></g><g transform="translate(19.299 6.83)"><path d="M123.924,92.253V41.05a.505.505,0,0,1,.505-.505h-5.687a.505.505,0,0,0-.505.505v51.2a.505.505,0,0,0,.505.505h5.687A.505.505,0,0,1,123.924,92.253Z" transform="translate(-118.236 -40.545)" fill="#bb5d4c"/></g><g transform="translate(30.877 16.775)"><path d="M186.97,108.138v-8.044a.505.505,0,0,1,.505-.505h17.693a.505.505,0,0,1,.505.505v8.044a.505.505,0,0,1-.505.505H187.475a.505.505,0,0,1-.505-.505Z" transform="translate(-186.97 -99.588)" fill="#fac600"/></g><g transform="translate(30.877 16.775)"><path d="M192.7,108.138v-8.044a.505.505,0,0,1,.505-.505h-5.727a.505.505,0,0,0-.505.505v8.044a.505.505,0,0,0,.505.505H193.2A.505.505,0,0,1,192.7,108.138Z" transform="translate(-186.97 -99.588)" fill="#e8b800"/></g><g transform="translate(0 0)"><path d="M87.415,54.435a1.263,1.263,0,0,0,1.263-1.263V12.1A2.108,2.108,0,0,0,86.573,10H71.657V2.106A2.108,2.108,0,0,0,69.551,0H11A7.339,7.339,0,0,0,3.669,7.331V76.354A7.339,7.339,0,0,0,11,83.685h6.919V84.5a1.739,1.739,0,0,0,2.731,1.431l2.874-1.989L26.4,85.936A1.74,1.74,0,0,0,29.129,84.5v-.819H69.551a2.108,2.108,0,0,0,2.106-2.106V71.6H86.573A2.108,2.108,0,0,0,88.679,69.5V59.067a1.263,1.263,0,1,0-2.527,0V69.075H66.313v-3.2h3.238a2.108,2.108,0,0,0,2.106-2.106V60.432h8.088a1.263,1.263,0,0,0,0-2.527H71.657V53.084h8.088a1.263,1.263,0,0,0,0-2.527H71.657V45.737h8.088a1.263,1.263,0,0,0,0-2.527H71.657V38.389h8.088a1.263,1.263,0,0,0,0-2.527H71.657V31.041h8.088a1.263,1.263,0,0,0,0-2.527H71.657V23.693h8.088a1.263,1.263,0,0,0,0-2.527H71.657V12.524H86.152V53.171a1.263,1.263,0,0,0,1.263,1.264ZM6.2,7.331a4.809,4.809,0,0,1,4.8-4.8h5.138V63.346H11a7.3,7.3,0,0,0-4.8,1.8V7.331ZM11,65.873h2.928a7.317,7.317,0,0,0,0,9.608H11a4.8,4.8,0,1,1,0-9.608Zm6.919,15.286H11a4.81,4.81,0,0,1-4.8-4.8v-.148a7.3,7.3,0,0,0,4.8,1.8h6.919v3.151ZM26.6,83l-2.36-1.633a1.263,1.263,0,0,0-1.438,0L20.446,83V71.6H26.6ZM69.13,71.6v9.557h-40V78.007h4.579a1.263,1.263,0,0,0,0-2.527H29.129V70.338a1.263,1.263,0,0,0-1.263-1.263H19.182a1.263,1.263,0,0,0-1.263,1.263v4.887a4.8,4.8,0,0,1,1.542-9.352H63.787v3.2H53.472a1.263,1.263,0,0,0,0,2.527H63.787v3.879H39.6a1.263,1.263,0,1,0,0,2.527h24.94a1.771,1.771,0,0,0,1.769-1.769V71.6Zm0-8.256H18.664V2.527H69.13Z" transform="translate(-3.669 0)"/><path d="M112.5,87.785h40.849a1.771,1.771,0,0,0,1.769-1.769V49.04a1.263,1.263,0,1,0-2.527,0V85.258H113.263V35.572H152.6v7.573a1.263,1.263,0,1,0,2.527,0V34.814a1.771,1.771,0,0,0-1.769-1.769H112.5a1.771,1.771,0,0,0-1.769,1.769v51.2A1.771,1.771,0,0,0,112.5,87.785Z" transform="translate(-92.701 -27.479)"/><path d="M200.7,93.857a1.771,1.771,0,0,0-1.769-1.769H181.239a1.771,1.771,0,0,0-1.769,1.769V101.9a1.771,1.771,0,0,0,1.769,1.769h17.692A1.771,1.771,0,0,0,200.7,101.9Zm-2.527,7.286H182V94.615h16.176Z" transform="translate(-149.857 -76.576)"/><path d="M199.437,270.532h-18.7a1.263,1.263,0,1,0,0,2.527h18.7a1.263,1.263,0,0,0,0-2.527Z" transform="translate(-149.857 -224.961)"/><path d="M199.437,237.925h-18.7a1.263,1.263,0,0,0,0,2.527h18.7a1.263,1.263,0,0,0,0-2.527Z" transform="translate(-149.857 -197.847)"/></g></g></g></svg>