<svg xmlns="http://www.w3.org/2000/svg" xmlns:xlink="http://www.w3.org/1999/xlink" width="166.122" height="166.123" viewBox="0 0 166.122 166.123"><defs><filter id="a" x="0" y="0" width="166.122" height="166.123" filterUnits="userSpaceOnUse"><feOffset dy="3" input="SourceAlpha"/><feGaussianBlur stdDeviation="3" result="b"/><feFlood flood-opacity="0.161"/><feComposite operator="in" in2="b"/><feComposite in="SourceGraphic"/></filter></defs><g transform="translate(-296.876 -5276.877)"><g transform="matrix(1, 0, 0, 1, 296.88, 5276.88)" filter="url(#a)"><g transform="translate(9 6)" fill="#cae1f9" opacity="0.859"><path d="M 74.06109619140625 146.623046875 C 64.26475524902344 146.623046875 54.76223754882812 144.7047424316406 45.81749725341797 140.9214477539062 C 41.51827621459961 139.1030426025391 37.37155532836914 136.8522644042969 33.49253463745117 134.2316436767578 C 29.64997673034668 131.6356658935547 26.03655624389648 128.654296875 22.75265693664551 125.3704071044922 C 19.46873664855957 122.0864868164062 16.48737525939941 118.4730606079102 13.89139652252197 114.6305236816406 C 11.27077579498291 110.7514801025391 9.020015716552734 106.6047821044922 7.201596260070801 102.3055648803711 C 3.418296098709106 93.36082458496094 1.499996185302734 83.85830688476562 1.499996185302734 74.06196594238281 C 1.499996185302734 64.26476287841797 3.418296098709106 54.76224517822266 7.201596260070801 45.8175048828125 C 9.020015716552734 41.51828384399414 11.27077579498291 37.37156295776367 13.89139652252197 33.4925422668457 C 16.48737525939941 29.64998435974121 19.46873664855957 26.03656387329102 22.75265693664551 22.75266265869141 C 26.03655624389648 19.4687442779541 29.64997673034668 16.48738288879395 33.49253463745117 13.89140319824219 C 37.37155532836914 11.27078342437744 41.51827621459961 9.020023345947266 45.81749725341797 7.201603412628174 C 54.76223754882812 3.418303489685059 64.26475524902344 1.500003457069397 74.06109619140625 1.500003457069397 C 83.85743713378906 1.500003457069397 93.35995483398438 3.418303489685059 102.3046951293945 7.201603412628174 C 106.6039199829102 9.020023345947266 110.7506332397461 11.27078342437744 114.6296539306641 13.89140319824219 C 118.4722137451172 16.48738288879395 122.0856399536133 19.4687442779541 125.3695373535156 22.75266265869141 C 128.6534576416016 26.03656387329102 131.6348114013672 29.64998435974121 134.2307891845703 33.4925422668457 C 136.8514099121094 37.37156295776367 139.1021728515625 41.51828384399414 140.9205932617188 45.8175048828125 C 144.7039031982422 54.76224517822266 146.6221923828125 64.26476287841797 146.6221923828125 74.06110382080078 C 146.6221923828125 83.85830688476562 144.7039031982422 93.36082458496094 140.9205932617188 102.3055648803711 C 139.1021728515625 106.6047821044922 136.8514099121094 110.7514801025391 134.2307891845703 114.6305236816406 C 131.6348114013672 118.4730606079102 128.6534576416016 122.0864868164062 125.3695373535156 125.3704071044922 C 122.0856399536133 128.654296875 118.4722137451172 131.6356658935547 114.6296539306641 134.2316436767578 C 110.7506332397461 136.8522644042969 106.6039199829102 139.1030426025391 102.3046951293945 140.9214477539062 C 93.35995483398438 144.7047424316406 83.85743713378906 146.623046875 74.06109619140625 146.623046875 Z" stroke="none"/><path d="M 74.06109619140625 3 C 64.46659851074219 3 55.16065979003906 4.87841796875 46.40182495117188 8.583099365234375 C 42.19180297851562 10.36380004882812 38.13101196289062 12.56794738769531 34.33224487304688 15.13433837890625 C 30.56880187988281 17.6768798828125 27.02972412109375 20.59690093994141 23.81330108642578 23.81331634521484 C 20.59690856933594 27.02970886230469 17.67686462402344 30.56879425048828 15.13435363769531 34.33225250244141 C 12.56793212890625 38.13102722167969 10.36378479003906 42.19181823730469 8.583099365234375 46.40181732177734 C 4.878433227539062 55.16065216064453 2.999984741210938 64.46658325195312 2.999984741210938 74.06195831298828 C 2.999984741210938 83.65646362304688 4.878433227539062 92.96240234375 8.583099365234375 101.7212371826172 C 10.36378479003906 105.9312286376953 12.56793212890625 109.9920196533203 15.13435363769531 113.7907943725586 C 17.67686462402344 117.5542526245117 20.59690856933594 121.0933380126953 23.81330108642578 124.3097305297852 C 27.02972412109375 127.5261459350586 30.56880187988281 130.4461669921875 34.33224487304688 132.9887084960938 C 38.13101196289062 135.5551147460938 42.19180297851562 137.7592468261719 46.40182495117188 139.5399475097656 C 55.16065979003906 143.24462890625 64.46659851074219 145.123046875 74.06109619140625 145.123046875 C 83.65561676025391 145.123046875 92.96153259277344 143.24462890625 101.7203674316406 139.5399475097656 C 105.9303894042969 137.7592468261719 109.9911804199219 135.5551147460938 113.7899475097656 132.9887084960938 C 117.5533905029297 130.4461669921875 121.0924682617188 127.5261459350586 124.3088836669922 124.3097305297852 C 127.5252838134766 121.0933380126953 130.4453125 117.5542526245117 132.9878540039062 113.7907943725586 C 135.5542449951172 109.9920196533203 137.7583923339844 105.9312286376953 139.5390777587891 101.7212371826172 C 143.2437591552734 92.96240234375 145.1221771240234 83.65646362304688 145.1221771240234 74.06108856201172 C 145.1221771240234 64.46658325195312 143.2437591552734 55.16065216064453 139.5390777587891 46.40181732177734 C 137.7583923339844 42.19181823730469 135.5542449951172 38.13102722167969 132.9878540039062 34.33225250244141 C 130.4453125 30.56879425048828 127.5252838134766 27.02970886230469 124.3088836669922 23.81331634521484 C 121.0924682617188 20.59690093994141 117.5533905029297 17.6768798828125 113.7899475097656 15.13433837890625 C 109.9911804199219 12.56794738769531 105.9303894042969 10.36380004882812 101.7203674316406 8.583099365234375 C 92.96153259277344 4.87841796875 83.65561676025391 3 74.06109619140625 3 M 74.06109619140625 0 C 114.9639282226562 0 148.1221771240234 33.15827178955078 148.1221771240234 74.06108856201172 L 148.1221771240234 74.06195831298828 C 148.1221771240234 114.9647750854492 114.9639282226562 148.123046875 74.06109619140625 148.123046875 C 33.15828704833984 148.123046875 -1.52587890625e-05 114.9647750854492 -1.52587890625e-05 74.06195831298828 L -1.52587890625e-05 74.06108856201172 C -1.52587890625e-05 33.15827178955078 33.15828704833984 0 74.06109619140625 0 Z" stroke="none" fill="#fff"/></g></g><g transform="translate(345.102 5319.815)"><path d="M12,46.514V2H56.514L67.642,14.52V46.514Z" transform="translate(-5.045 -0.609)" fill="#c7e2fb"/><path d="M14,2V32.6a2.782,2.782,0,0,0,2.782,2.782h8.586a2.782,2.782,0,0,1,1.967.815l7.412,7.412a2.782,2.782,0,0,0,1.967.815H66.86V14.52L55.732,2Z" transform="translate(-4.263 -0.609)" fill="#ebf7fe"/><path d="M8,30.782V72.514A2.782,2.782,0,0,0,10.782,75.3H71.989a2.782,2.782,0,0,0,2.782-2.782V39.128a2.782,2.782,0,0,0-2.782-2.782H35.821L27.475,28H10.782A2.782,2.782,0,0,0,8,30.782Z" transform="translate(-6.609 9.559)" fill="#f5b95b"/><path d="M70.425,36.346H34.257L25.911,28H12V42.656A27.076,27.076,0,0,0,39.076,69.732H73.207v-30.6A2.782,2.782,0,0,0,70.425,36.346Z" transform="translate(-5.045 9.559)" fill="#f9d18f"/><path d="M44,2V14.52H55.128Z" transform="translate(7.469 -0.609)" fill="#87a5cd"/><path d="M16,6H49.385v8.346H16Z" transform="translate(-3.48 0.955)" fill="#698ec0"/><path d="M49.911,51A6.955,6.955,0,0,1,36,51Z" transform="translate(4.341 18.553)" fill="#976949"/><path d="M43.26,57.886A6.933,6.933,0,0,0,49.52,51H37A6.933,6.933,0,0,0,43.26,57.886Z" transform="translate(4.732 18.553)" fill="#c18e5c"/><ellipse cx="2.782" cy="2.782" rx="2.782" ry="2.782" transform="translate(31.994 51.469)" fill="#976949"/><ellipse cx="2.087" cy="2.683" rx="2.087" ry="2.683" transform="translate(33.385 51.568)" fill="#c18e5c"/><path d="M18,7.484a4.08,4.08,0,0,0,4.08,4.08H48.6V6H18Z" transform="translate(-2.698 0.955)" fill="#87a5cd"/><path d="M31.911,51A6.955,6.955,0,0,1,18,51Z" transform="translate(-2.698 18.553)" fill="#976949"/><path d="M25.26,57.886A6.933,6.933,0,0,0,31.52,51H19A6.933,6.933,0,0,0,25.26,57.886Z" transform="translate(-2.307 18.553)" fill="#c18e5c"/><path d="M72.38,45.514H70.989v-30.6a1.4,1.4,0,0,0-.351-.925L59.51,1.466A1.391,1.391,0,0,0,58.469,1H13.955a1.391,1.391,0,0,0-1.391,1.391V37.168H11.173A4.173,4.173,0,0,0,7,41.341V83.073a4.173,4.173,0,0,0,4.173,4.173H72.38a4.173,4.173,0,0,0,4.173-4.173V49.687A4.173,4.173,0,0,0,72.38,45.514ZM59.86,6.05l6.64,7.47H59.86ZM15.346,3.782H57.078V14.911A1.391,1.391,0,0,0,58.469,16.3h9.737V45.514H36.788l-7.939-7.939a1.391,1.391,0,0,0-.983-.408H15.346Zm58.425,79.29a1.391,1.391,0,0,1-1.391,1.391H11.173a1.391,1.391,0,0,1-1.391-1.391V41.341a1.391,1.391,0,0,1,1.391-1.391H27.29l7.939,7.939a1.391,1.391,0,0,0,.983.408H72.38a1.391,1.391,0,0,1,1.391,1.391Z" transform="translate(-7 -1)"/><path d="M16.391,16.128H49.777a1.391,1.391,0,0,0,1.391-1.391V6.391A1.391,1.391,0,0,0,49.777,5H16.391A1.391,1.391,0,0,0,15,6.391v8.346A1.391,1.391,0,0,0,16.391,16.128Zm1.391-8.346h30.6v5.564h-30.6Z" transform="translate(-3.872 0.564)"/><path d="M15,15H62.3v2.782H15Z" transform="translate(-3.872 4.475)"/><path d="M15,19H56.732v2.782H15Z" transform="translate(-3.872 6.039)"/><path d="M15,23H62.3v2.782H15Z" transform="translate(-3.872 7.603)"/><path d="M27,27H52.039v2.782H27Z" transform="translate(0.821 9.168)"/><path d="M47,19h2.782v2.782H47Z" transform="translate(8.642 6.039)"/><path d="M47,27h2.782v2.782H47Z" transform="translate(8.642 9.168)"/><path d="M58.557,55.8,51.6,43.279a1.391,1.391,0,0,0-1.216-.715h-8.6a4.126,4.126,0,0,0,.256-1.391,4.173,4.173,0,0,0-8.346,0,4.126,4.126,0,0,0,.256,1.391h-8.6a1.391,1.391,0,0,0-1.216.715L17.175,55.8a1.391,1.391,0,0,0-.175.676,8.346,8.346,0,0,0,16.693,0,1.391,1.391,0,0,0-.175-.676L27.711,45.346h8.764V64.821H30.911V67.6H44.821V64.821H39.257V45.346h8.764L42.214,55.8a1.391,1.391,0,0,0-.175.676,8.346,8.346,0,0,0,16.693,0,1.391,1.391,0,0,0-.175-.676Zm-33.21,6.24a5.575,5.575,0,0,1-5.388-4.173H30.734A5.575,5.575,0,0,1,25.346,62.039Zm4.59-6.955H20.756l4.59-8.264Zm6.538-13.911a1.391,1.391,0,1,1,1.391,1.391A1.391,1.391,0,0,1,36.475,41.173Zm13.911,5.646,4.59,8.264H45.795Zm0,15.22A5.575,5.575,0,0,1,45,57.866H55.773a5.575,5.575,0,0,1-5.388,4.173Z" transform="translate(-3.089 13.078)"/></g></g></svg>