<svg xmlns="http://www.w3.org/2000/svg" width="119.743" height="80.509" viewBox="0 0 119.743 80.509"><g transform="translate(0 -76.509)"><g transform="translate(0 76.509)"><path d="M218.881,176.212h-6.129a3.082,3.082,0,0,1-3.009-3.491,3.011,3.011,0,0,1,3.008-3.008h6.13C222.9,169.743,222.9,176.181,218.881,176.212Zm-6.13-3.764c-.374-.008-.256.53-.274.756a.274.274,0,0,0,.274.274h6.13c.374.009.256-.529.274-.756a.274.274,0,0,0-.274-.274h-6.13Z" transform="translate(-155.945 -145.816)" fill="#4a6d92"/><path d="M273.611,91.735a7.651,7.651,0,0,1-7.642-7.642c.359-10.113,14.926-10.111,15.283,0A7.65,7.65,0,0,1,273.611,91.735Zm0-12.548a4.907,4.907,0,1,0,4.862,4.862A4.907,4.907,0,0,0,273.611,79.187Z" transform="translate(-197.775 -76.509)" fill="#4a6d92"/><path d="M113.629,123.745l-17.5-12.878a7.979,7.979,0,0,0-11.155,1.7q-.129.176-.249.358l-4.869,7.439a1.349,1.349,0,0,0-1.165-.694H41.055a1.349,1.349,0,0,0-1.165.694l-4.869-7.439a7.979,7.979,0,0,0-11.045-2.306q-.182.12-.358.249l-17.5,12.878A15.081,15.081,0,0,0,2.854,144.7l8.076,11.127a10.95,10.95,0,0,1,2.028,7.622L11.688,175.2c-.637,6.984,9.445,8.72,11.122,1.861l3.518-15.446a13.62,13.62,0,0,0-1.75-10.321l-4.784-7.636a4.089,4.089,0,0,1,.965-5.422L32.949,128.8l6.738,8.235v21.646a1.367,1.367,0,0,0,1.367,1.367H78.688a1.367,1.367,0,0,0,1.367-1.367V137.038l6.738-8.235,12.191,9.439a4.089,4.089,0,0,1,.965,5.422L95.165,151.3a13.623,13.623,0,0,0-1.749,10.321l3.519,15.446c1.67,6.84,11.754,5.145,11.122-1.861l-1.271-11.758a10.949,10.949,0,0,1,2.028-7.622l8.075-11.127A15.08,15.08,0,0,0,113.629,123.745Zm-79.406,2.3a1.367,1.367,0,0,0-1.9-.215L19.085,136.078a6.813,6.813,0,0,0-1.608,9.037l4.783,7.635a10.9,10.9,0,0,1,1.4,8.261l-3.519,15.446a2.9,2.9,0,0,1-2.84,2.266,2.926,2.926,0,0,1-2.911-2.942q0-.142.015-.284l1.271-11.758a13.682,13.682,0,0,0-2.533-9.522L5.067,143.091a12.337,12.337,0,0,1,2.667-17.141l17.5-12.878a5.242,5.242,0,0,1,7.329,1.114q.086.117.165.238L51.739,143.46a1.258,1.258,0,0,1-.338,1.734,1.273,1.273,0,0,1-1.7-.239Zm27.195,31.118h-2.67v-2.14c.5.148,1.243.525,1.767.3l.9-.3Zm15.9.158H64.153v-4.195a1.378,1.378,0,0,0-1.8-1.3l-2.27.756-2.27-.756a1.377,1.377,0,0,0-1.8,1.3v4.195H42.423V140.38l5.16,6.306a4.023,4.023,0,0,0,5.374.755,3.979,3.979,0,0,0,1.07-5.48l-11.6-17.729V122.4h34.9v1.828l-11.6,17.728a3.977,3.977,0,0,0,1.069,5.479,4.02,4.02,0,0,0,5.374-.754l5.161-6.306v16.936Zm37.355-14.226L106.6,154.218a13.684,13.684,0,0,0-2.533,9.522l1.271,11.758a2.926,2.926,0,0,1-2.612,3.21q-.142.015-.285.015a2.9,2.9,0,0,1-2.84-2.266l-3.518-15.446a10.9,10.9,0,0,1,1.4-8.261l4.784-7.635a6.813,6.813,0,0,0-1.608-9.036L87.415,125.826a1.367,1.367,0,0,0-1.9.215L70.044,144.954a1.267,1.267,0,0,1-2.038-1.494l19.006-29.037a5.241,5.241,0,0,1,7.256-1.517q.121.079.238.165l17.5,12.878A12.337,12.337,0,0,1,114.675,143.09Z" transform="translate(0 -100.904)" fill="#4a6d92"/><path d="M149.082,91.735a7.65,7.65,0,0,1-7.641-7.642c.359-10.114,14.926-10.11,15.283,0A7.65,7.65,0,0,1,149.082,91.735Zm0-12.548a4.907,4.907,0,1,0,4.862,4.862A4.907,4.907,0,0,0,149.082,79.187Z" transform="translate(-105.176 -76.509)" fill="#4a6d92"/></g></g></svg>