<svg xmlns="http://www.w3.org/2000/svg" width="94.667" height="94.667" viewBox="0 0 94.667 94.667"><g transform="translate(4.254 3.061)"><g transform="translate(28.186 16.344)"><path d="M176.834,155.6a1.387,1.387,0,0,1-1.387-1.387V106.339a1.387,1.387,0,0,1,1.387-1.387h5.658a1.387,1.387,0,0,1,1.387,1.387v40.9a1.387,1.387,0,0,1-2.773,0V107.725H178.22v46.484A1.387,1.387,0,0,1,176.834,155.6Z" transform="translate(-175.447 -104.952)" fill="#4a6d92"/></g><g transform="translate(24.6 53.592)"><path d="M157.442,328.885a1.388,1.388,0,0,1-1.35-1.709c3.733-15.638,14.962-20.467,15.438-20.665a1.387,1.387,0,0,1,.532-.106h7.153a1.387,1.387,0,0,1,1.213,2.058l-4.662,8.416a1.63,1.63,0,0,0,.021,1.642,1.61,1.61,0,0,0,1.406.809l10.341.028h0a1.621,1.621,0,0,0,1.152-.478,1.643,1.643,0,0,0,.485-1.171v-1.616a5.859,5.859,0,0,1,5.844-5.86H216.87a5.009,5.009,0,0,1,5,5.01v7.487a1.387,1.387,0,1,1-2.773,0v-7.487a2.232,2.232,0,0,0-2.223-2.236H195.02a3.082,3.082,0,0,0-3.071,3.087v1.616a4.416,4.416,0,0,1-4.411,4.422h-.011l-10.341-.028a4.422,4.422,0,0,1-3.846-6.568l3.521-6.358h-4.5a22.186,22.186,0,0,0-5.4,3.89,29.651,29.651,0,0,0-8.175,14.752A1.388,1.388,0,0,1,157.442,328.885Z" transform="translate(-156.054 -306.404)" fill="#4a6d92"/><g transform="translate(56.85 22.43)"><path d="M467.491,437.938h-2.578a1.387,1.387,0,0,1,0-2.773h2.578a2.234,2.234,0,0,0,2.225-2.238V429.1a1.387,1.387,0,1,1,2.773,0v3.826A5.01,5.01,0,0,1,467.491,437.938Z" transform="translate(-463.526 -427.714)" fill="#4a6d92"/></g><g transform="translate(12.45 29.88)"><path d="M253.379,470.783h-28.6a1.387,1.387,0,1,1,0-2.773h28.6a1.387,1.387,0,0,1,0,2.773Z" transform="translate(-223.389 -468.01)" fill="#4a6d92"/></g></g><g transform="translate(20.757 72.48)"><path d="M144.8,427.686a9.563,9.563,0,1,1,9.533-9.563A9.559,9.559,0,0,1,144.8,427.686Zm0-16.352a6.789,6.789,0,1,0,6.76,6.789A6.783,6.783,0,0,0,144.8,411.334Z" transform="translate(-135.266 -408.561)" fill="#4a6d92"/></g><g transform="translate(25.538 77.267)"><path d="M165.878,444a4.775,4.775,0,1,1,4.752-4.775A4.769,4.769,0,0,1,165.878,444Zm0-6.777a2,2,0,1,0,1.979,2A1.993,1.993,0,0,0,165.878,437.227Z" transform="translate(-161.126 -434.453)" fill="#4a6d92"/></g><g transform="translate(65.653 72.48)"><path d="M387.62,427.686a9.563,9.563,0,1,1,9.533-9.563A9.559,9.559,0,0,1,387.62,427.686Zm0-16.352a6.789,6.789,0,1,0,6.76,6.789A6.783,6.783,0,0,0,387.62,411.334Z" transform="translate(-378.086 -408.561)" fill="#4a6d92"/></g><g transform="translate(70.434 77.267)"><path d="M408.7,444a4.775,4.775,0,1,1,4.752-4.775A4.769,4.769,0,0,1,408.7,444Zm0-6.777a2,2,0,1,0,1.979,2A1.993,1.993,0,0,0,408.7,437.227Z" transform="translate(-403.946 -434.453)" fill="#4a6d92"/></g><g transform="translate(39.222 16.344)"><path d="M236.522,144.971a1.388,1.388,0,0,1-1.353-1.7l8.584-37.248a1.387,1.387,0,1,1,2.7.623L237.872,143.9a1.387,1.387,0,0,1-1.35,1.076Z" transform="translate(-235.134 -104.95)" fill="#4a6d92"/></g><g transform="translate(43.159 16.344)"><path d="M298.083,148.8a1.387,1.387,0,0,1-1.387-1.387V117.033a9.3,9.3,0,0,0-9.269-9.307h-29.61a1.387,1.387,0,1,1,0-2.773h29.61a12.075,12.075,0,0,1,12.043,12.081v30.384A1.387,1.387,0,0,1,298.083,148.8Z" transform="translate(-256.431 -104.952)" fill="#4a6d92"/></g><g transform="translate(57.446 38.045)"><path d="M351.754,244.51H337.769a4.079,4.079,0,0,1,0-8.157h9.916V226.4a4.078,4.078,0,0,1,4.069-4.079h0a4.078,4.078,0,0,1,4.069,4.079v14.035A4.078,4.078,0,0,1,351.754,244.51Zm-13.985-5.384a1.305,1.305,0,0,0,0,2.61h13.985a1.3,1.3,0,0,0,1.3-1.305V226.4a1.3,1.3,0,1,0-2.591,0V237.74a1.387,1.387,0,0,1-1.387,1.387h-11.3Z" transform="translate(-333.7 -222.318)" fill="#4a6d92"/></g><g transform="translate(48.991 40.555)"><path d="M296.647,243.352a1.38,1.38,0,0,1-.748-.22l-7.292-4.685a1.387,1.387,0,0,1,1.5-2.333L297.4,240.8a1.387,1.387,0,0,1-.751,2.554Z" transform="translate(-287.969 -235.893)" fill="#4a6d92"/></g><g transform="translate(0 49.805)"><path d="M41.7,305.218H24.392A1.387,1.387,0,0,1,23,303.831V287.309a1.387,1.387,0,0,1,1.387-1.387H41.7a1.387,1.387,0,0,1,1.387,1.387v16.523a1.387,1.387,0,0,1-1.387,1.387Zm-15.921-2.773H40.313V288.7H25.778Z" transform="translate(-23.005 -285.922)" fill="#4a6d92"/><g transform="translate(5.725)"><path d="M61.212,296.4H55.353a1.387,1.387,0,0,1-1.387-1.387v-7.7a1.387,1.387,0,0,1,1.387-1.387h5.859a1.387,1.387,0,0,1,1.387,1.387v7.7A1.387,1.387,0,0,1,61.212,296.4Zm-4.472-2.773h3.086V288.7H56.739Z" transform="translate(-53.966 -285.922)" fill="#4a6d92"/></g></g><g transform="translate(0 16.538)"><g transform="translate(0 0)"><path d="M41.7,125.3H24.392A1.387,1.387,0,0,1,23,123.912V107.389A1.387,1.387,0,0,1,24.392,106H41.7a1.387,1.387,0,0,1,1.387,1.387v16.523A1.387,1.387,0,0,1,41.7,125.3Zm-15.921-2.773H40.313V108.775H25.778Z" transform="translate(-23.005 -106.002)" fill="#4a6d92"/></g><g transform="translate(5.725)"><path d="M61.212,116.476H55.353a1.387,1.387,0,0,1-1.387-1.387v-7.7A1.387,1.387,0,0,1,55.353,106h5.859a1.387,1.387,0,0,1,1.387,1.387v7.7A1.387,1.387,0,0,1,61.212,116.476ZM56.739,113.7h3.086v-4.927H56.739Z" transform="translate(-53.966 -106.002)" fill="#4a6d92"/></g></g><g transform="translate(0 33.099)"><path d="M41.7,214.866H24.392A1.387,1.387,0,0,1,23,213.48v-4.241a1.387,1.387,0,1,1,2.773,0v2.854H40.313V198.343H25.778v3.538a1.387,1.387,0,1,1-2.773,0v-4.925a1.387,1.387,0,0,1,1.387-1.387H41.7a1.387,1.387,0,0,1,1.387,1.387v16.523a1.387,1.387,0,0,1-1.387,1.387Z" transform="translate(-23.005 -195.57)" fill="#4a6d92"/><g transform="translate(5.725)"><path d="M61.212,206.044H55.353a1.387,1.387,0,0,1-1.387-1.387v-7.7a1.387,1.387,0,0,1,1.387-1.387h5.859a1.387,1.387,0,0,1,1.387,1.387v7.7A1.387,1.387,0,0,1,61.212,206.044Zm-4.472-2.773h3.086v-4.927H56.739Z" transform="translate(-53.966 -195.57)" fill="#4a6d92"/></g></g><path d="M41.7,35.851H24.392A1.387,1.387,0,0,1,23,34.464V17.942a1.387,1.387,0,0,1,1.387-1.387H41.7a1.387,1.387,0,0,1,1.387,1.387V34.464A1.387,1.387,0,0,1,41.7,35.851ZM25.778,33.078H40.313V19.328H25.778Z" transform="translate(-23.005 -16.555)" fill="#4a6d92"/><g transform="translate(5.725)"><path d="M61.212,27.029H55.353a1.387,1.387,0,0,1-1.387-1.387v-7.7a1.387,1.387,0,0,1,1.387-1.387h5.859A1.387,1.387,0,0,1,62.6,17.942v7.7A1.387,1.387,0,0,1,61.212,27.029Zm-4.472-2.773h3.086V19.328H56.739Z" transform="translate(-53.966 -16.555)" fill="#4a6d92"/></g></g><g transform="translate(50.618 46.448)"><path d="M275.151,264.234a1.387,1.387,0,0,1-1.2-2.085l5.972-10.246a1.387,1.387,0,1,1,2.4,1.4l-5.972,10.246A1.386,1.386,0,0,1,275.151,264.234Z" transform="translate(-273.765 -251.215)" fill="#4a6d92"/></g><g transform="translate(26.966 21.849)"><path d="M152.7,120.94h-5.474a1.387,1.387,0,1,1,0-2.773H152.7a1.387,1.387,0,0,1,0,2.773Z" transform="translate(-145.842 -118.167)" fill="#4a6d92"/></g><g transform="translate(26.966 46.805)"><path d="M152.7,255.917h-5.474a1.387,1.387,0,0,1,0-2.773H152.7a1.387,1.387,0,0,1,0,2.773Z" transform="translate(-145.842 -253.144)" fill="#4a6d92"/></g><path d="M28.352,72.166H1.387a1.387,1.387,0,1,1,0-2.773H26.966V1.387a1.387,1.387,0,0,1,2.773,0V70.779A1.387,1.387,0,0,1,28.352,72.166Z" fill="#4a6d92"/></svg>