<svg xmlns="http://www.w3.org/2000/svg" xmlns:xlink="http://www.w3.org/1999/xlink" width="122.291" height="122.291" viewBox="0 0 122.291 122.291"><defs><filter id="a" x="0" y="0" width="122.291" height="122.291" filterUnits="userSpaceOnUse"><feOffset dy="3" input="SourceAlpha"/><feGaussianBlur stdDeviation="3" result="b"/><feFlood flood-opacity="0.412"/><feComposite operator="in" in2="b"/></filter><filter id="c" x="0" y="0" width="122.291" height="122.291" filterUnits="userSpaceOnUse"><feOffset dy="3" input="SourceAlpha"/><feGaussianBlur stdDeviation="3" result="d"/><feFlood flood-opacity="0.161" result="e"/><feComposite operator="out" in="SourceGraphic" in2="d"/><feComposite operator="in" in="e"/><feComposite operator="in" in2="SourceGraphic"/></filter><clipPath id="f"><rect width="103.011" height="99.263" fill="none"/></clipPath><clipPath id="g"><rect width="103.011" height="99.263" transform="translate(0 0)" fill="none"/></clipPath><clipPath id="h"><rect width="13.621" height="7.228" transform="translate(60.079 10.684)" fill="none"/></clipPath><clipPath id="i"><rect width="36.122" height="75.804" transform="translate(30.769)" fill="none"/></clipPath><clipPath id="j"><rect width="21.507" height="60.149" transform="translate(58.849 38.472)" fill="none"/></clipPath><clipPath id="k"><rect width="72.709" height="36.35" transform="translate(3.551 43.992)" fill="none"/></clipPath><clipPath id="l"><rect width="11.315" height="7.123" transform="translate(3.551 81.995)" fill="none"/></clipPath><clipPath id="m"><rect width="34.235" height="15.212" transform="translate(42.024 79.349)" fill="none"/></clipPath><clipPath id="n"><rect width="21.108" height="61.171" transform="translate(20.162 38.092)" fill="none"/></clipPath><clipPath id="o"><rect width="6.175" height="6.175" transform="translate(32.207 74.006)" fill="none"/></clipPath><clipPath id="p"><rect width="4.578" height="13.014" transform="translate(30.718 72.449)" fill="none"/></clipPath><clipPath id="q"><rect width="6.175" height="6.176" transform="translate(53.491 55.725)" fill="none"/></clipPath><clipPath id="r"><rect width="4.578" height="13.014" transform="translate(52.001 54.167)" fill="none"/></clipPath><clipPath id="s"><rect width="7.559" height="7.559" transform="translate(10.508 53.32)" fill="none"/></clipPath><clipPath id="t"><rect width="5.606" height="15.93" transform="translate(8.682 51.41)" fill="none"/></clipPath></defs><g transform="translate(-1266.556 -329.826)"><g data-type="innerShadowGroup"><g transform="matrix(1, 0, 0, 1, 1266.56, 329.83)" filter="url(#a)"><g transform="translate(9 6)" fill="#f2f5f4" opacity="0.9"><path d="M 52.1455078125 102.7910232543945 C 45.3077507019043 102.7910232543945 38.67532348632812 101.4521636962891 32.43244934082031 98.81166839599609 C 26.40179443359375 96.26091003417969 20.98540687561035 92.60896301269531 16.33372116088867 87.95729064941406 C 11.68205070495605 83.30561065673828 8.030121803283691 77.88920593261719 5.47936487197876 71.85856628417969 C 2.838850736618042 65.61569213867188 1.50000786781311 58.9832649230957 1.50000786781311 52.1455078125 C 1.50000786781311 45.3077507019043 2.838850736618042 38.67532348632812 5.47936487197876 32.43244934082031 C 8.030121803283691 26.40179443359375 11.68205070495605 20.98540687561035 16.33372116088867 16.33372116088867 C 20.98540687561035 11.68205070495605 26.40179443359375 8.030121803283691 32.43244934082031 5.47936487197876 C 38.67532348632812 2.838850736618042 45.3077507019043 1.50000786781311 52.1455078125 1.50000786781311 C 58.9832649230957 1.50000786781311 65.61569213867188 2.838850736618042 71.85856628417969 5.47936487197876 C 77.88920593261719 8.030121803283691 83.30561065673828 11.68205070495605 87.95729064941406 16.33372116088867 C 92.60896301269531 20.98540687561035 96.26091003417969 26.40179443359375 98.81166839599609 32.43244934082031 C 101.4521636962891 38.67532348632812 102.7910232543945 45.3077507019043 102.7910232543945 52.1455078125 C 102.7910232543945 58.9832649230957 101.4521636962891 65.61569213867188 98.81166839599609 71.85856628417969 C 96.26091003417969 77.88920593261719 92.60896301269531 83.30561065673828 87.95729064941406 87.95729064941406 C 83.30561065673828 92.60896301269531 77.88920593261719 96.26091003417969 71.85856628417969 98.81166839599609 C 65.61569213867188 101.4521636962891 58.9832649230957 102.7910232543945 52.1455078125 102.7910232543945 Z" stroke="none"/><path d="M 52.1455078125 2.999992370605469 C 45.50959014892578 2.999992370605469 39.07376098632812 4.298973083496094 33.01677703857422 6.860855102539062 C 27.16492462158203 9.335990905761719 21.90879058837891 12.87997436523438 17.39437103271484 17.39437103271484 C 12.87997436523438 21.90879058837891 9.335990905761719 27.16492462158203 6.860855102539062 33.01677703857422 C 4.298973083496094 39.07376098632812 2.999992370605469 45.50959014892578 2.999992370605469 52.1455078125 C 2.999992370605469 58.78142547607422 4.298973083496094 65.21725463867188 6.860855102539062 71.27422332763672 C 9.335990905761719 77.12607574462891 12.87997436523438 82.38220977783203 17.39437103271484 86.89662170410156 C 21.90879058837891 91.41102600097656 27.16492462158203 94.95500946044922 33.01677703857422 97.43013763427734 C 39.07376098632812 99.99202728271484 45.50959014892578 101.2910079956055 52.1455078125 101.2910079956055 C 58.78142547607422 101.2910079956055 65.21725463867188 99.99202728271484 71.27422332763672 97.43013763427734 C 77.12607574462891 94.95500946044922 82.38220977783203 91.41102600097656 86.89662170410156 86.89662170410156 C 91.41102600097656 82.38220977783203 94.95500946044922 77.12607574462891 97.43013763427734 71.27422332763672 C 99.99202728271484 65.21725463867188 101.2910079956055 58.78142547607422 101.2910079956055 52.1455078125 C 101.2910079956055 45.50959014892578 99.99202728271484 39.07376098632812 97.43013763427734 33.01677703857422 C 94.95500946044922 27.16492462158203 91.41102600097656 21.90879058837891 86.89662170410156 17.39437103271484 C 82.38220977783203 12.87997436523438 77.12607574462891 9.335990905761719 71.27422332763672 6.860855102539062 C 65.21725463867188 4.298973083496094 58.78142547607422 2.999992370605469 52.1455078125 2.999992370605469 M 52.1455078125 -7.62939453125e-06 C 80.94465637207031 -7.62939453125e-06 104.2910079956055 23.34634399414062 104.2910079956055 52.1455078125 C 104.2910079956055 80.94465637207031 80.94465637207031 104.2910079956055 52.1455078125 104.2910079956055 C 23.34634399414062 104.2910079956055 -7.62939453125e-06 80.94465637207031 -7.62939453125e-06 52.1455078125 C -7.62939453125e-06 23.34634399414062 23.34634399414062 -7.62939453125e-06 52.1455078125 -7.62939453125e-06 Z" stroke="none" fill="#fff"/></g></g><g transform="translate(1275.556 335.826)" fill="#f2f5f4" opacity="0.9"><path d="M 52.1455078125 102.7910232543945 C 45.3077507019043 102.7910232543945 38.67532348632812 101.4521636962891 32.43244934082031 98.81166839599609 C 26.40179443359375 96.26091003417969 20.98540687561035 92.60896301269531 16.33372116088867 87.95729064941406 C 11.68205070495605 83.30561065673828 8.030121803283691 77.88920593261719 5.47936487197876 71.85856628417969 C 2.838850736618042 65.61569213867188 1.50000786781311 58.9832649230957 1.50000786781311 52.1455078125 C 1.50000786781311 45.3077507019043 2.838850736618042 38.67532348632812 5.47936487197876 32.43244934082031 C 8.030121803283691 26.40179443359375 11.68205070495605 20.98540687561035 16.33372116088867 16.33372116088867 C 20.98540687561035 11.68205070495605 26.40179443359375 8.030121803283691 32.43244934082031 5.47936487197876 C 38.67532348632812 2.838850736618042 45.3077507019043 1.50000786781311 52.1455078125 1.50000786781311 C 58.9832649230957 1.50000786781311 65.61569213867188 2.838850736618042 71.85856628417969 5.47936487197876 C 77.88920593261719 8.030121803283691 83.30561065673828 11.68205070495605 87.95729064941406 16.33372116088867 C 92.60896301269531 20.98540687561035 96.26091003417969 26.40179443359375 98.81166839599609 32.43244934082031 C 101.4521636962891 38.67532348632812 102.7910232543945 45.3077507019043 102.7910232543945 52.1455078125 C 102.7910232543945 58.9832649230957 101.4521636962891 65.61569213867188 98.81166839599609 71.85856628417969 C 96.26091003417969 77.88920593261719 92.60896301269531 83.30561065673828 87.95729064941406 87.95729064941406 C 83.30561065673828 92.60896301269531 77.88920593261719 96.26091003417969 71.85856628417969 98.81166839599609 C 65.61569213867188 101.4521636962891 58.9832649230957 102.7910232543945 52.1455078125 102.7910232543945 Z" stroke="none"/><path d="M 52.1455078125 2.999992370605469 C 45.50959014892578 2.999992370605469 39.07376098632812 4.298973083496094 33.01677703857422 6.860855102539062 C 27.16492462158203 9.335990905761719 21.90879058837891 12.87997436523438 17.39437103271484 17.39437103271484 C 12.87997436523438 21.90879058837891 9.335990905761719 27.16492462158203 6.860855102539062 33.01677703857422 C 4.298973083496094 39.07376098632812 2.999992370605469 45.50959014892578 2.999992370605469 52.1455078125 C 2.999992370605469 58.78142547607422 4.298973083496094 65.21725463867188 6.860855102539062 71.27422332763672 C 9.335990905761719 77.12607574462891 12.87997436523438 82.38220977783203 17.39437103271484 86.89662170410156 C 21.90879058837891 91.41102600097656 27.16492462158203 94.95500946044922 33.01677703857422 97.43013763427734 C 39.07376098632812 99.99202728271484 45.50959014892578 101.2910079956055 52.1455078125 101.2910079956055 C 58.78142547607422 101.2910079956055 65.21725463867188 99.99202728271484 71.27422332763672 97.43013763427734 C 77.12607574462891 94.95500946044922 82.38220977783203 91.41102600097656 86.89662170410156 86.89662170410156 C 91.41102600097656 82.38220977783203 94.95500946044922 77.12607574462891 97.43013763427734 71.27422332763672 C 99.99202728271484 65.21725463867188 101.2910079956055 58.78142547607422 101.2910079956055 52.1455078125 C 101.2910079956055 45.50959014892578 99.99202728271484 39.07376098632812 97.43013763427734 33.01677703857422 C 94.95500946044922 27.16492462158203 91.41102600097656 21.90879058837891 86.89662170410156 17.39437103271484 C 82.38220977783203 12.87997436523438 77.12607574462891 9.335990905761719 71.27422332763672 6.860855102539062 C 65.21725463867188 4.298973083496094 58.78142547607422 2.999992370605469 52.1455078125 2.999992370605469 M 52.1455078125 -7.62939453125e-06 C 80.94465637207031 -7.62939453125e-06 104.2910079956055 23.34634399414062 104.2910079956055 52.1455078125 C 104.2910079956055 80.94465637207031 80.94465637207031 104.2910079956055 52.1455078125 104.2910079956055 C 23.34634399414062 104.2910079956055 -7.62939453125e-06 80.94465637207031 -7.62939453125e-06 52.1455078125 C -7.62939453125e-06 23.34634399414062 23.34634399414062 -7.62939453125e-06 52.1455078125 -7.62939453125e-06 Z" stroke="none"/></g><g transform="matrix(1, 0, 0, 1, 1266.56, 329.83)" filter="url(#c)"><g transform="translate(9 6)" fill="#fff" opacity="0.9"><path d="M 52.1455078125 102.7910232543945 C 45.3077507019043 102.7910232543945 38.67532348632812 101.4521636962891 32.43244934082031 98.81166839599609 C 26.40179443359375 96.26091003417969 20.98540687561035 92.60896301269531 16.33372116088867 87.95729064941406 C 11.68205070495605 83.30561065673828 8.030121803283691 77.88920593261719 5.47936487197876 71.85856628417969 C 2.838850736618042 65.61569213867188 1.50000786781311 58.9832649230957 1.50000786781311 52.1455078125 C 1.50000786781311 45.3077507019043 2.838850736618042 38.67532348632812 5.47936487197876 32.43244934082031 C 8.030121803283691 26.40179443359375 11.68205070495605 20.98540687561035 16.33372116088867 16.33372116088867 C 20.98540687561035 11.68205070495605 26.40179443359375 8.030121803283691 32.43244934082031 5.47936487197876 C 38.67532348632812 2.838850736618042 45.3077507019043 1.50000786781311 52.1455078125 1.50000786781311 C 58.9832649230957 1.50000786781311 65.61569213867188 2.838850736618042 71.85856628417969 5.47936487197876 C 77.88920593261719 8.030121803283691 83.30561065673828 11.68205070495605 87.95729064941406 16.33372116088867 C 92.60896301269531 20.98540687561035 96.26091003417969 26.40179443359375 98.81166839599609 32.43244934082031 C 101.4521636962891 38.67532348632812 102.7910232543945 45.3077507019043 102.7910232543945 52.1455078125 C 102.7910232543945 58.9832649230957 101.4521636962891 65.61569213867188 98.81166839599609 71.85856628417969 C 96.26091003417969 77.88920593261719 92.60896301269531 83.30561065673828 87.95729064941406 87.95729064941406 C 83.30561065673828 92.60896301269531 77.88920593261719 96.26091003417969 71.85856628417969 98.81166839599609 C 65.61569213867188 101.4521636962891 58.9832649230957 102.7910232543945 52.1455078125 102.7910232543945 Z" stroke="none"/><path d="M 52.1455078125 2.999992370605469 C 45.50959014892578 2.999992370605469 39.07376098632812 4.298973083496094 33.01677703857422 6.860855102539062 C 27.16492462158203 9.335990905761719 21.90879058837891 12.87997436523438 17.39437103271484 17.39437103271484 C 12.87997436523438 21.90879058837891 9.335990905761719 27.16492462158203 6.860855102539062 33.01677703857422 C 4.298973083496094 39.07376098632812 2.999992370605469 45.50959014892578 2.999992370605469 52.1455078125 C 2.999992370605469 58.78142547607422 4.298973083496094 65.21725463867188 6.860855102539062 71.27422332763672 C 9.335990905761719 77.12607574462891 12.87997436523438 82.38220977783203 17.39437103271484 86.89662170410156 C 21.90879058837891 91.41102600097656 27.16492462158203 94.95500946044922 33.01677703857422 97.43013763427734 C 39.07376098632812 99.99202728271484 45.50959014892578 101.2910079956055 52.1455078125 101.2910079956055 C 58.78142547607422 101.2910079956055 65.21725463867188 99.99202728271484 71.27422332763672 97.43013763427734 C 77.12607574462891 94.95500946044922 82.38220977783203 91.41102600097656 86.89662170410156 86.89662170410156 C 91.41102600097656 82.38220977783203 94.95500946044922 77.12607574462891 97.43013763427734 71.27422332763672 C 99.99202728271484 65.21725463867188 101.2910079956055 58.78142547607422 101.2910079956055 52.1455078125 C 101.2910079956055 45.50959014892578 99.99202728271484 39.07376098632812 97.43013763427734 33.01677703857422 C 94.95500946044922 27.16492462158203 91.41102600097656 21.90879058837891 86.89662170410156 17.39437103271484 C 82.38220977783203 12.87997436523438 77.12607574462891 9.335990905761719 71.27422332763672 6.860855102539062 C 65.21725463867188 4.298973083496094 58.78142547607422 2.999992370605469 52.1455078125 2.999992370605469 M 52.1455078125 -7.62939453125e-06 C 80.94465637207031 -7.62939453125e-06 104.2910079956055 23.34634399414062 104.2910079956055 52.1455078125 C 104.2910079956055 80.94465637207031 80.94465637207031 104.2910079956055 52.1455078125 104.2910079956055 C 23.34634399414062 104.2910079956055 -7.62939453125e-06 80.94465637207031 -7.62939453125e-06 52.1455078125 C -7.62939453125e-06 23.34634399414062 23.34634399414062 -7.62939453125e-06 52.1455078125 -7.62939453125e-06 Z" stroke="none"/></g></g><g transform="translate(1275.556 335.826)" fill="none" opacity="0.9"><path d="M 52.1455078125 102.7910232543945 C 45.3077507019043 102.7910232543945 38.67532348632812 101.4521636962891 32.43244934082031 98.81166839599609 C 26.40179443359375 96.26091003417969 20.98540687561035 92.60896301269531 16.33372116088867 87.95729064941406 C 11.68205070495605 83.30561065673828 8.030121803283691 77.88920593261719 5.47936487197876 71.85856628417969 C 2.838850736618042 65.61569213867188 1.50000786781311 58.9832649230957 1.50000786781311 52.1455078125 C 1.50000786781311 45.3077507019043 2.838850736618042 38.67532348632812 5.47936487197876 32.43244934082031 C 8.030121803283691 26.40179443359375 11.68205070495605 20.98540687561035 16.33372116088867 16.33372116088867 C 20.98540687561035 11.68205070495605 26.40179443359375 8.030121803283691 32.43244934082031 5.47936487197876 C 38.67532348632812 2.838850736618042 45.3077507019043 1.50000786781311 52.1455078125 1.50000786781311 C 58.9832649230957 1.50000786781311 65.61569213867188 2.838850736618042 71.85856628417969 5.47936487197876 C 77.88920593261719 8.030121803283691 83.30561065673828 11.68205070495605 87.95729064941406 16.33372116088867 C 92.60896301269531 20.98540687561035 96.26091003417969 26.40179443359375 98.81166839599609 32.43244934082031 C 101.4521636962891 38.67532348632812 102.7910232543945 45.3077507019043 102.7910232543945 52.1455078125 C 102.7910232543945 58.9832649230957 101.4521636962891 65.61569213867188 98.81166839599609 71.85856628417969 C 96.26091003417969 77.88920593261719 92.60896301269531 83.30561065673828 87.95729064941406 87.95729064941406 C 83.30561065673828 92.60896301269531 77.88920593261719 96.26091003417969 71.85856628417969 98.81166839599609 C 65.61569213867188 101.4521636962891 58.9832649230957 102.7910232543945 52.1455078125 102.7910232543945 Z" stroke="none"/><path d="M 52.1455078125 2.999992370605469 C 45.50959014892578 2.999992370605469 39.07376098632812 4.298973083496094 33.01677703857422 6.860855102539062 C 27.16492462158203 9.335990905761719 21.90879058837891 12.87997436523438 17.39437103271484 17.39437103271484 C 12.87997436523438 21.90879058837891 9.335990905761719 27.16492462158203 6.860855102539062 33.01677703857422 C 4.298973083496094 39.07376098632812 2.999992370605469 45.50959014892578 2.999992370605469 52.1455078125 C 2.999992370605469 58.78142547607422 4.298973083496094 65.21725463867188 6.860855102539062 71.27422332763672 C 9.335990905761719 77.12607574462891 12.87997436523438 82.38220977783203 17.39437103271484 86.89662170410156 C 21.90879058837891 91.41102600097656 27.16492462158203 94.95500946044922 33.01677703857422 97.43013763427734 C 39.07376098632812 99.99202728271484 45.50959014892578 101.2910079956055 52.1455078125 101.2910079956055 C 58.78142547607422 101.2910079956055 65.21725463867188 99.99202728271484 71.27422332763672 97.43013763427734 C 77.12607574462891 94.95500946044922 82.38220977783203 91.41102600097656 86.89662170410156 86.89662170410156 C 91.41102600097656 82.38220977783203 94.95500946044922 77.12607574462891 97.43013763427734 71.27422332763672 C 99.99202728271484 65.21725463867188 101.2910079956055 58.78142547607422 101.2910079956055 52.1455078125 C 101.2910079956055 45.50959014892578 99.99202728271484 39.07376098632812 97.43013763427734 33.01677703857422 C 94.95500946044922 27.16492462158203 91.41102600097656 21.90879058837891 86.89662170410156 17.39437103271484 C 82.38220977783203 12.87997436523438 77.12607574462891 9.335990905761719 71.27422332763672 6.860855102539062 C 65.21725463867188 4.298973083496094 58.78142547607422 2.999992370605469 52.1455078125 2.999992370605469 M 52.1455078125 -7.62939453125e-06 C 80.94465637207031 -7.62939453125e-06 104.2910079956055 23.34634399414062 104.2910079956055 52.1455078125 C 104.2910079956055 80.94465637207031 80.94465637207031 104.2910079956055 52.1455078125 104.2910079956055 C 23.34634399414062 104.2910079956055 -7.62939453125e-06 80.94465637207031 -7.62939453125e-06 52.1455078125 C -7.62939453125e-06 23.34634399414062 23.34634399414062 -7.62939453125e-06 52.1455078125 -7.62939453125e-06 Z" stroke="none" fill="#fff"/></g></g><g transform="translate(1275.556 340.854)"><g clip-path="url(#f)"><rect width="72.241" height="65.12" transform="translate(30.769 10.684)" fill="#fa753a"/><path d="M40.947,0,30.771,10.683H103.01L92.837,0Z" fill="#ffa970"/><path d="M71.781,7.093H62l-1.92,3.591H73.7Z" fill="#fff"/><rect width="16.79" height="14.942" transform="translate(83.914 57.184)" fill="#fff"/><rect width="0.848" height="12.425" transform="translate(85.313 58.445)" fill="#403036"/><rect width="1.236" height="12.425" transform="translate(88.02 58.445)" fill="#403036"/><rect width="1.237" height="12.425" transform="translate(86.415 58.445)" fill="#403036"/><rect width="1.234" height="12.425" transform="translate(92.027 58.445)" fill="#403036"/><rect width="0.849" height="12.425" transform="translate(89.881 58.445)" fill="#403036"/><rect width="0.849" height="12.425" transform="translate(89.881 58.445)" fill="#403036"/><rect width="1.234" height="12.425" transform="translate(96.476 58.445)" fill="#403036"/><rect width="1.233" height="12.425" transform="translate(98.205 58.445)" fill="#403036"/><rect width="0.848" height="12.425" transform="translate(93.833 58.445)" fill="#403036"/><rect width="0.85" height="12.425" transform="translate(95.371 58.445)" fill="#403036"/><g clip-path="url(#g)"><path d="M92.6,20.431a4.907,4.907,0,1,0-9.814,0h4.138v4.107c-.293.322-.719.658-.987.636-.181-.017-.411-.281-.619-.7l-1.57.764a2.554,2.554,0,0,0,2.037,1.679,1.52,1.52,0,0,0,.176.01,3.679,3.679,0,0,0,2.543-1.558l.165-.229v-4.7Z" fill="#735a62"/><path d="M97.557,25.523V20.912c2.345-.5,2.907-3.028,2.907-5.266H92.9c0,2.238.569,4.768,2.906,5.266v4.613c-1.632.154-2.041.749-2.041,1.278H99.6c0-.529-.406-1.124-2.042-1.28" fill="#735a62"/><rect width="72.24" height="9.467" transform="translate(30.771 38.556)" fill="#ffa970"/><rect width="13.621" height="7.228" transform="translate(60.079 10.683)" fill="#fff"/><g style="mix-blend-mode:multiply;isolation:isolate"><g clip-path="url(#h)"><rect width="13.621" height="7.228" transform="translate(60.079 10.683)" fill="#f7ead7"/></g></g><g style="mix-blend-mode:multiply;isolation:isolate"><g clip-path="url(#i)"><path d="M30.769,10.684V75.8H66.891V0H40.947L30.771,10.684Z" fill="#f7ead7"/></g></g><path d="M1.5,44.695v49.5l18.662-5.527,21.108,8.4,17.579-6.94L78.308,95.9V44.695L58.849,40.6,41.27,47.084,20.276,40.258Z" fill="#735a62"/><path d="M41.267,98.674,20.089,90.251,0,96.2V43.508L20.339,38.7l20.9,6.8,17.5-6.453,21.073,4.434V97.91l-20.89-6.2Zm-21.034-11.6,21.038,8.368,17.508-6.912L76.808,93.89V45.912L58.963,42.157,41.3,48.672,20.212,41.814,3,45.882v46.3Z" fill="#403036"/><g style="mix-blend-mode:multiply;isolation:isolate"><g clip-path="url(#j)"><path d="M58.849,38.472V92.324l.094-.038,21.32,6.331.093,0V43.144Z" fill="#e3d8db"/></g></g><g style="mix-blend-mode:multiply;isolation:isolate"><g clip-path="url(#k)"><path d="M41.252,59.48,34.075,58.4l-14.3-13.124-6.4-1.282L7.008,45.5,18.47,47.787l10.425,9.567L19.07,55.37,3.551,59.618v2.832l15.618-4.275,22.121,4.1,17.5-8.035,9.62,5.134L57.159,67.18,41.052,76.76l-20.946.866.3,2.715L41.486,79.4l17.085-9.881,13.137-8.844,4.552,2.083V59.736L58.91,51.41Z" fill="#e3d8db"/></g></g><g style="mix-blend-mode:multiply;isolation:isolate"><g clip-path="url(#l)"><path d="M3.551,81.995v2.658l.394.015,7.476,4.45L14.866,88.1,4.38,82.033Z" fill="#e3d8db"/></g></g><g style="mix-blend-mode:multiply;isolation:isolate"><g clip-path="url(#m)"><path d="M76.26,79.349l-17.543.486L42.025,94.561,49.262,91.7l10.27-9.16,14.143-.393-8.433,5.415-1.165,1.97,2.7.8.486-.823,9-5.774Z" fill="#e3d8db"/></g></g><path d="M76.26,55.006V52.222L58.2,55.843,43.9,68.967l-2.606.527L20.1,64.616,3.551,69.98v2.871l3.443-1.117,12.4,8.352,21.346,8.906,12.146,1.28,5.484-2.164-16.76-1.715-20.8-8.648-10.519-7.08,9.929-3.22,21.029,4.844L58.8,68.741l17.457,4.78V70.69L58.9,65.938l-9.822,1.983L59.5,58.354Z" fill="#403036"/><g style="mix-blend-mode:multiply;isolation:isolate"><g clip-path="url(#n)"><path d="M20.162,90.87l21.1,8.393h0V44.9l-.044.014L20.241,38.093l-.079.027Z" fill="#e3d8db"/></g></g><path d="M35.3,72.449s-4.729,0-4.575,4.412,4.575,8.6,4.575,8.6,4.418-4.184,4.574-8.6S35.3,72.449,35.3,72.449m0,6.649a2,2,0,1,1,2-2,2,2,0,0,1-2,2" fill="#fa753a"/><g style="mix-blend-mode:multiply;isolation:isolate"><g clip-path="url(#o)"><path d="M35.3,74.006A3.088,3.088,0,1,0,38.382,77.1,3.09,3.09,0,0,0,35.3,74.006m0,5.092a2,2,0,1,1,2-2,2,2,0,0,1-2,2" fill="#e3d8db"/></g></g><g style="mix-blend-mode:multiply;isolation:isolate"><g clip-path="url(#p)"><path d="M33.291,77.1A2.006,2.006,0,0,1,35.3,75.091V72.449s-4.729,0-4.575,4.413,4.575,8.6,4.575,8.6V79.1a2,2,0,0,1-2.005-2" fill="#e3d8db"/></g></g><path d="M56.58,54.167s-4.729,0-4.575,4.415,4.575,8.6,4.575,8.6S61,63,61.155,58.582s-4.575-4.415-4.575-4.415m0,6.652a2,2,0,1,1,2-2,2.006,2.006,0,0,1-2,2" fill="#fff"/><g style="mix-blend-mode:multiply;isolation:isolate"><g clip-path="url(#q)"><path d="M56.58,55.725a3.088,3.088,0,1,0,3.086,3.091,3.089,3.089,0,0,0-3.086-3.091m0,5.094a2,2,0,1,1,2-2,2.006,2.006,0,0,1-2,2" fill="#e3d8db"/></g></g><g style="mix-blend-mode:multiply;isolation:isolate"><g clip-path="url(#r)"><path d="M54.574,58.817a2.007,2.007,0,0,1,2.006-2.006V54.168s-4.729,0-4.575,4.415,4.575,8.6,4.575,8.6V60.82a2.005,2.005,0,0,1-2.006-2" fill="#e3d8db"/></g></g><path d="M14.288,51.41s-5.789,0-5.6,5.4,5.6,10.528,5.6,10.528,5.409-5.121,5.6-10.528-5.6-5.4-5.6-5.4m0,8.139a2.452,2.452,0,1,1,2.45-2.447,2.451,2.451,0,0,1-2.45,2.447" fill="#fff"/><g style="mix-blend-mode:multiply;isolation:isolate"><g clip-path="url(#s)"><path d="M14.288,53.32A3.78,3.78,0,1,0,18.067,57.1a3.78,3.78,0,0,0-3.779-3.782m0,6.229a2.452,2.452,0,1,1,2.45-2.447,2.451,2.451,0,0,1-2.45,2.447" fill="#e3d8db"/></g></g><g style="mix-blend-mode:multiply;isolation:isolate"><g clip-path="url(#t)"><path d="M11.835,57.1a2.453,2.453,0,0,1,2.453-2.456V51.411s-5.789,0-5.6,5.4,5.6,10.527,5.6,10.527V59.549A2.451,2.451,0,0,1,11.835,57.1" fill="#e3d8db"/></g></g></g></g></g></g></svg>