<svg xmlns="http://www.w3.org/2000/svg" xmlns:xlink="http://www.w3.org/1999/xlink" width="138.621" height="122.291" viewBox="0 0 138.621 122.291"><defs><filter id="a" x="16.33" y="0" width="122.291" height="122.291" filterUnits="userSpaceOnUse"><feOffset dy="3" input="SourceAlpha"/><feGaussianBlur stdDeviation="3" result="b"/><feFlood flood-opacity="0.412"/><feComposite operator="in" in2="b"/></filter><filter id="c" x="16.33" y="0" width="122.291" height="122.291" filterUnits="userSpaceOnUse"><feOffset dy="3" input="SourceAlpha"/><feGaussianBlur stdDeviation="3" result="d"/><feFlood flood-opacity="0.161" result="e"/><feComposite operator="out" in="SourceGraphic" in2="d"/><feComposite operator="in" in="e"/><feComposite operator="in" in2="SourceGraphic"/></filter><clipPath id="f"><rect width="117.5" height="83.758" fill="none"/></clipPath><clipPath id="h"><rect width="77.113" height="18.675" fill="none"/></clipPath><clipPath id="i"><rect width="16.295" height="55.435" fill="none"/></clipPath></defs><g transform="translate(-1299.339 -110.807)"><path d="M487.792,337.206a8.906,8.906,0,1,1-8.906-8.906A8.911,8.911,0,0,1,487.792,337.206Z" transform="translate(852.927 -115.747)" fill="#12263f"/><path d="M505.709,346.165A17.865,17.865,0,1,1,487.845,328.3,17.875,17.875,0,0,1,505.709,346.165Z" transform="translate(829.358 -159.349)" fill="#e8e8e8"/><g data-type="innerShadowGroup"><g transform="matrix(1, 0, 0, 1, 1299.34, 110.81)" filter="url(#a)"><g transform="translate(25.33 6)" fill="#f2f5f4" opacity="0.9"><path d="M 52.1455078125 102.7910232543945 C 45.3077507019043 102.7910232543945 38.67532348632812 101.4521636962891 32.43244934082031 98.81166839599609 C 26.40179443359375 96.26091003417969 20.98540687561035 92.60896301269531 16.33372116088867 87.95729064941406 C 11.68205070495605 83.30561065673828 8.030121803283691 77.88920593261719 5.47936487197876 71.85856628417969 C 2.838850736618042 65.61569213867188 1.50000786781311 58.9832649230957 1.50000786781311 52.1455078125 C 1.50000786781311 45.3077507019043 2.838850736618042 38.67532348632812 5.47936487197876 32.43244934082031 C 8.030121803283691 26.40179443359375 11.68205070495605 20.98540687561035 16.33372116088867 16.33372116088867 C 20.98540687561035 11.68205070495605 26.40179443359375 8.030121803283691 32.43244934082031 5.47936487197876 C 38.67532348632812 2.838850736618042 45.3077507019043 1.50000786781311 52.1455078125 1.50000786781311 C 58.9832649230957 1.50000786781311 65.61569213867188 2.838850736618042 71.85856628417969 5.47936487197876 C 77.88920593261719 8.030121803283691 83.30561065673828 11.68205070495605 87.95729064941406 16.33372116088867 C 92.60896301269531 20.98540687561035 96.26091003417969 26.40179443359375 98.81166839599609 32.43244934082031 C 101.4521636962891 38.67532348632812 102.7910232543945 45.3077507019043 102.7910232543945 52.1455078125 C 102.7910232543945 58.9832649230957 101.4521636962891 65.61569213867188 98.81166839599609 71.85856628417969 C 96.26091003417969 77.88920593261719 92.60896301269531 83.30561065673828 87.95729064941406 87.95729064941406 C 83.30561065673828 92.60896301269531 77.88920593261719 96.26091003417969 71.85856628417969 98.81166839599609 C 65.61569213867188 101.4521636962891 58.9832649230957 102.7910232543945 52.1455078125 102.7910232543945 Z" stroke="none"/><path d="M 52.1455078125 2.999992370605469 C 45.50959014892578 2.999992370605469 39.07376098632812 4.298973083496094 33.01677703857422 6.860855102539062 C 27.16492462158203 9.335990905761719 21.90879058837891 12.87997436523438 17.39437103271484 17.39437103271484 C 12.87997436523438 21.90879058837891 9.335990905761719 27.16492462158203 6.860855102539062 33.01677703857422 C 4.298973083496094 39.07376098632812 2.999992370605469 45.50959014892578 2.999992370605469 52.1455078125 C 2.999992370605469 58.78142547607422 4.298973083496094 65.21725463867188 6.860855102539062 71.27422332763672 C 9.335990905761719 77.12607574462891 12.87997436523438 82.38220977783203 17.39437103271484 86.89662170410156 C 21.90879058837891 91.41102600097656 27.16492462158203 94.95500946044922 33.01677703857422 97.43013763427734 C 39.07376098632812 99.99202728271484 45.50959014892578 101.2910079956055 52.1455078125 101.2910079956055 C 58.78142547607422 101.2910079956055 65.21725463867188 99.99202728271484 71.27422332763672 97.43013763427734 C 77.12607574462891 94.95500946044922 82.38220977783203 91.41102600097656 86.89662170410156 86.89662170410156 C 91.41102600097656 82.38220977783203 94.95500946044922 77.12607574462891 97.43013763427734 71.27422332763672 C 99.99202728271484 65.21725463867188 101.2910079956055 58.78142547607422 101.2910079956055 52.1455078125 C 101.2910079956055 45.50959014892578 99.99202728271484 39.07376098632812 97.43013763427734 33.01677703857422 C 94.95500946044922 27.16492462158203 91.41102600097656 21.90879058837891 86.89662170410156 17.39437103271484 C 82.38220977783203 12.87997436523438 77.12607574462891 9.335990905761719 71.27422332763672 6.860855102539062 C 65.21725463867188 4.298973083496094 58.78142547607422 2.999992370605469 52.1455078125 2.999992370605469 M 52.1455078125 -7.62939453125e-06 C 80.94465637207031 -7.62939453125e-06 104.2910079956055 23.34634399414062 104.2910079956055 52.1455078125 C 104.2910079956055 80.94465637207031 80.94465637207031 104.2910079956055 52.1455078125 104.2910079956055 C 23.34634399414062 104.2910079956055 -7.62939453125e-06 80.94465637207031 -7.62939453125e-06 52.1455078125 C -7.62939453125e-06 23.34634399414062 23.34634399414062 -7.62939453125e-06 52.1455078125 -7.62939453125e-06 Z" stroke="none" fill="#fff"/></g></g><g transform="translate(1324.669 116.807)" fill="#f2f5f4" opacity="0.9"><path d="M 52.1455078125 102.7910232543945 C 45.3077507019043 102.7910232543945 38.67532348632812 101.4521636962891 32.43244934082031 98.81166839599609 C 26.40179443359375 96.26091003417969 20.98540687561035 92.60896301269531 16.33372116088867 87.95729064941406 C 11.68205070495605 83.30561065673828 8.030121803283691 77.88920593261719 5.47936487197876 71.85856628417969 C 2.838850736618042 65.61569213867188 1.50000786781311 58.9832649230957 1.50000786781311 52.1455078125 C 1.50000786781311 45.3077507019043 2.838850736618042 38.67532348632812 5.47936487197876 32.43244934082031 C 8.030121803283691 26.40179443359375 11.68205070495605 20.98540687561035 16.33372116088867 16.33372116088867 C 20.98540687561035 11.68205070495605 26.40179443359375 8.030121803283691 32.43244934082031 5.47936487197876 C 38.67532348632812 2.838850736618042 45.3077507019043 1.50000786781311 52.1455078125 1.50000786781311 C 58.9832649230957 1.50000786781311 65.61569213867188 2.838850736618042 71.85856628417969 5.47936487197876 C 77.88920593261719 8.030121803283691 83.30561065673828 11.68205070495605 87.95729064941406 16.33372116088867 C 92.60896301269531 20.98540687561035 96.26091003417969 26.40179443359375 98.81166839599609 32.43244934082031 C 101.4521636962891 38.67532348632812 102.7910232543945 45.3077507019043 102.7910232543945 52.1455078125 C 102.7910232543945 58.9832649230957 101.4521636962891 65.61569213867188 98.81166839599609 71.85856628417969 C 96.26091003417969 77.88920593261719 92.60896301269531 83.30561065673828 87.95729064941406 87.95729064941406 C 83.30561065673828 92.60896301269531 77.88920593261719 96.26091003417969 71.85856628417969 98.81166839599609 C 65.61569213867188 101.4521636962891 58.9832649230957 102.7910232543945 52.1455078125 102.7910232543945 Z" stroke="none"/><path d="M 52.1455078125 2.999992370605469 C 45.50959014892578 2.999992370605469 39.07376098632812 4.298973083496094 33.01677703857422 6.860855102539062 C 27.16492462158203 9.335990905761719 21.90879058837891 12.87997436523438 17.39437103271484 17.39437103271484 C 12.87997436523438 21.90879058837891 9.335990905761719 27.16492462158203 6.860855102539062 33.01677703857422 C 4.298973083496094 39.07376098632812 2.999992370605469 45.50959014892578 2.999992370605469 52.1455078125 C 2.999992370605469 58.78142547607422 4.298973083496094 65.21725463867188 6.860855102539062 71.27422332763672 C 9.335990905761719 77.12607574462891 12.87997436523438 82.38220977783203 17.39437103271484 86.89662170410156 C 21.90879058837891 91.41102600097656 27.16492462158203 94.95500946044922 33.01677703857422 97.43013763427734 C 39.07376098632812 99.99202728271484 45.50959014892578 101.2910079956055 52.1455078125 101.2910079956055 C 58.78142547607422 101.2910079956055 65.21725463867188 99.99202728271484 71.27422332763672 97.43013763427734 C 77.12607574462891 94.95500946044922 82.38220977783203 91.41102600097656 86.89662170410156 86.89662170410156 C 91.41102600097656 82.38220977783203 94.95500946044922 77.12607574462891 97.43013763427734 71.27422332763672 C 99.99202728271484 65.21725463867188 101.2910079956055 58.78142547607422 101.2910079956055 52.1455078125 C 101.2910079956055 45.50959014892578 99.99202728271484 39.07376098632812 97.43013763427734 33.01677703857422 C 94.95500946044922 27.16492462158203 91.41102600097656 21.90879058837891 86.89662170410156 17.39437103271484 C 82.38220977783203 12.87997436523438 77.12607574462891 9.335990905761719 71.27422332763672 6.860855102539062 C 65.21725463867188 4.298973083496094 58.78142547607422 2.999992370605469 52.1455078125 2.999992370605469 M 52.1455078125 -7.62939453125e-06 C 80.94465637207031 -7.62939453125e-06 104.2910079956055 23.34634399414062 104.2910079956055 52.1455078125 C 104.2910079956055 80.94465637207031 80.94465637207031 104.2910079956055 52.1455078125 104.2910079956055 C 23.34634399414062 104.2910079956055 -7.62939453125e-06 80.94465637207031 -7.62939453125e-06 52.1455078125 C -7.62939453125e-06 23.34634399414062 23.34634399414062 -7.62939453125e-06 52.1455078125 -7.62939453125e-06 Z" stroke="none"/></g><g transform="matrix(1, 0, 0, 1, 1299.34, 110.81)" filter="url(#c)"><g transform="translate(25.33 6)" fill="#fff" opacity="0.9"><path d="M 52.1455078125 102.7910232543945 C 45.3077507019043 102.7910232543945 38.67532348632812 101.4521636962891 32.43244934082031 98.81166839599609 C 26.40179443359375 96.26091003417969 20.98540687561035 92.60896301269531 16.33372116088867 87.95729064941406 C 11.68205070495605 83.30561065673828 8.030121803283691 77.88920593261719 5.47936487197876 71.85856628417969 C 2.838850736618042 65.61569213867188 1.50000786781311 58.9832649230957 1.50000786781311 52.1455078125 C 1.50000786781311 45.3077507019043 2.838850736618042 38.67532348632812 5.47936487197876 32.43244934082031 C 8.030121803283691 26.40179443359375 11.68205070495605 20.98540687561035 16.33372116088867 16.33372116088867 C 20.98540687561035 11.68205070495605 26.40179443359375 8.030121803283691 32.43244934082031 5.47936487197876 C 38.67532348632812 2.838850736618042 45.3077507019043 1.50000786781311 52.1455078125 1.50000786781311 C 58.9832649230957 1.50000786781311 65.61569213867188 2.838850736618042 71.85856628417969 5.47936487197876 C 77.88920593261719 8.030121803283691 83.30561065673828 11.68205070495605 87.95729064941406 16.33372116088867 C 92.60896301269531 20.98540687561035 96.26091003417969 26.40179443359375 98.81166839599609 32.43244934082031 C 101.4521636962891 38.67532348632812 102.7910232543945 45.3077507019043 102.7910232543945 52.1455078125 C 102.7910232543945 58.9832649230957 101.4521636962891 65.61569213867188 98.81166839599609 71.85856628417969 C 96.26091003417969 77.88920593261719 92.60896301269531 83.30561065673828 87.95729064941406 87.95729064941406 C 83.30561065673828 92.60896301269531 77.88920593261719 96.26091003417969 71.85856628417969 98.81166839599609 C 65.61569213867188 101.4521636962891 58.9832649230957 102.7910232543945 52.1455078125 102.7910232543945 Z" stroke="none"/><path d="M 52.1455078125 2.999992370605469 C 45.50959014892578 2.999992370605469 39.07376098632812 4.298973083496094 33.01677703857422 6.860855102539062 C 27.16492462158203 9.335990905761719 21.90879058837891 12.87997436523438 17.39437103271484 17.39437103271484 C 12.87997436523438 21.90879058837891 9.335990905761719 27.16492462158203 6.860855102539062 33.01677703857422 C 4.298973083496094 39.07376098632812 2.999992370605469 45.50959014892578 2.999992370605469 52.1455078125 C 2.999992370605469 58.78142547607422 4.298973083496094 65.21725463867188 6.860855102539062 71.27422332763672 C 9.335990905761719 77.12607574462891 12.87997436523438 82.38220977783203 17.39437103271484 86.89662170410156 C 21.90879058837891 91.41102600097656 27.16492462158203 94.95500946044922 33.01677703857422 97.43013763427734 C 39.07376098632812 99.99202728271484 45.50959014892578 101.2910079956055 52.1455078125 101.2910079956055 C 58.78142547607422 101.2910079956055 65.21725463867188 99.99202728271484 71.27422332763672 97.43013763427734 C 77.12607574462891 94.95500946044922 82.38220977783203 91.41102600097656 86.89662170410156 86.89662170410156 C 91.41102600097656 82.38220977783203 94.95500946044922 77.12607574462891 97.43013763427734 71.27422332763672 C 99.99202728271484 65.21725463867188 101.2910079956055 58.78142547607422 101.2910079956055 52.1455078125 C 101.2910079956055 45.50959014892578 99.99202728271484 39.07376098632812 97.43013763427734 33.01677703857422 C 94.95500946044922 27.16492462158203 91.41102600097656 21.90879058837891 86.89662170410156 17.39437103271484 C 82.38220977783203 12.87997436523438 77.12607574462891 9.335990905761719 71.27422332763672 6.860855102539062 C 65.21725463867188 4.298973083496094 58.78142547607422 2.999992370605469 52.1455078125 2.999992370605469 M 52.1455078125 -7.62939453125e-06 C 80.94465637207031 -7.62939453125e-06 104.2910079956055 23.34634399414062 104.2910079956055 52.1455078125 C 104.2910079956055 80.94465637207031 80.94465637207031 104.2910079956055 52.1455078125 104.2910079956055 C 23.34634399414062 104.2910079956055 -7.62939453125e-06 80.94465637207031 -7.62939453125e-06 52.1455078125 C -7.62939453125e-06 23.34634399414062 23.34634399414062 -7.62939453125e-06 52.1455078125 -7.62939453125e-06 Z" stroke="none"/></g></g><g transform="translate(1324.669 116.807)" fill="none" opacity="0.9"><path d="M 52.1455078125 102.7910232543945 C 45.3077507019043 102.7910232543945 38.67532348632812 101.4521636962891 32.43244934082031 98.81166839599609 C 26.40179443359375 96.26091003417969 20.98540687561035 92.60896301269531 16.33372116088867 87.95729064941406 C 11.68205070495605 83.30561065673828 8.030121803283691 77.88920593261719 5.47936487197876 71.85856628417969 C 2.838850736618042 65.61569213867188 1.50000786781311 58.9832649230957 1.50000786781311 52.1455078125 C 1.50000786781311 45.3077507019043 2.838850736618042 38.67532348632812 5.47936487197876 32.43244934082031 C 8.030121803283691 26.40179443359375 11.68205070495605 20.98540687561035 16.33372116088867 16.33372116088867 C 20.98540687561035 11.68205070495605 26.40179443359375 8.030121803283691 32.43244934082031 5.47936487197876 C 38.67532348632812 2.838850736618042 45.3077507019043 1.50000786781311 52.1455078125 1.50000786781311 C 58.9832649230957 1.50000786781311 65.61569213867188 2.838850736618042 71.85856628417969 5.47936487197876 C 77.88920593261719 8.030121803283691 83.30561065673828 11.68205070495605 87.95729064941406 16.33372116088867 C 92.60896301269531 20.98540687561035 96.26091003417969 26.40179443359375 98.81166839599609 32.43244934082031 C 101.4521636962891 38.67532348632812 102.7910232543945 45.3077507019043 102.7910232543945 52.1455078125 C 102.7910232543945 58.9832649230957 101.4521636962891 65.61569213867188 98.81166839599609 71.85856628417969 C 96.26091003417969 77.88920593261719 92.60896301269531 83.30561065673828 87.95729064941406 87.95729064941406 C 83.30561065673828 92.60896301269531 77.88920593261719 96.26091003417969 71.85856628417969 98.81166839599609 C 65.61569213867188 101.4521636962891 58.9832649230957 102.7910232543945 52.1455078125 102.7910232543945 Z" stroke="none"/><path d="M 52.1455078125 2.999992370605469 C 45.50959014892578 2.999992370605469 39.07376098632812 4.298973083496094 33.01677703857422 6.860855102539062 C 27.16492462158203 9.335990905761719 21.90879058837891 12.87997436523438 17.39437103271484 17.39437103271484 C 12.87997436523438 21.90879058837891 9.335990905761719 27.16492462158203 6.860855102539062 33.01677703857422 C 4.298973083496094 39.07376098632812 2.999992370605469 45.50959014892578 2.999992370605469 52.1455078125 C 2.999992370605469 58.78142547607422 4.298973083496094 65.21725463867188 6.860855102539062 71.27422332763672 C 9.335990905761719 77.12607574462891 12.87997436523438 82.38220977783203 17.39437103271484 86.89662170410156 C 21.90879058837891 91.41102600097656 27.16492462158203 94.95500946044922 33.01677703857422 97.43013763427734 C 39.07376098632812 99.99202728271484 45.50959014892578 101.2910079956055 52.1455078125 101.2910079956055 C 58.78142547607422 101.2910079956055 65.21725463867188 99.99202728271484 71.27422332763672 97.43013763427734 C 77.12607574462891 94.95500946044922 82.38220977783203 91.41102600097656 86.89662170410156 86.89662170410156 C 91.41102600097656 82.38220977783203 94.95500946044922 77.12607574462891 97.43013763427734 71.27422332763672 C 99.99202728271484 65.21725463867188 101.2910079956055 58.78142547607422 101.2910079956055 52.1455078125 C 101.2910079956055 45.50959014892578 99.99202728271484 39.07376098632812 97.43013763427734 33.01677703857422 C 94.95500946044922 27.16492462158203 91.41102600097656 21.90879058837891 86.89662170410156 17.39437103271484 C 82.38220977783203 12.87997436523438 77.12607574462891 9.335990905761719 71.27422332763672 6.860855102539062 C 65.21725463867188 4.298973083496094 58.78142547607422 2.999992370605469 52.1455078125 2.999992370605469 M 52.1455078125 -7.62939453125e-06 C 80.94465637207031 -7.62939453125e-06 104.2910079956055 23.34634399414062 104.2910079956055 52.1455078125 C 104.2910079956055 80.94465637207031 80.94465637207031 104.2910079956055 52.1455078125 104.2910079956055 C 23.34634399414062 104.2910079956055 -7.62939453125e-06 80.94465637207031 -7.62939453125e-06 52.1455078125 C -7.62939453125e-06 23.34634399414062 23.34634399414062 -7.62939453125e-06 52.1455078125 -7.62939453125e-06 Z" stroke="none" fill="#fff"/></g></g><g transform="translate(1311.46 124.378)"><g clip-path="url(#f)"><path d="M57.281,37.718l12.158-9.473,1.827,1.961L64.771,41.778l-8.466.407Z" transform="translate(2.423 1.215)" fill="#735a62"/><g transform="translate(0 0)"><g clip-path="url(#f)"><path d="M73.051,32.288a1.34,1.34,0,0,1-1.92,1.81L65.16,27.766a1.341,1.341,0,0,1,1.919-1.812Z" transform="translate(2.792 1.103)" fill="#735a62"/><path d="M102.017,13.455H97.675a1.628,1.628,0,0,0-1.623,1.624v13.8H85.225A1.627,1.627,0,0,0,83.6,30.505v6.224a1.629,1.629,0,0,0,1.621,1.625H96.053a1.627,1.627,0,0,0,1.623,1.623h4.341a1.629,1.629,0,0,0,1.625-1.623V15.079a1.63,1.63,0,0,0-1.625-1.624" transform="translate(3.597 0.579)" fill="#735a62"/><path d="M71.312,62.767,51.833,51.433,64.241,1.277h39.915l9.184,46.952ZM55.435,49.907,71.645,59.34l38.1-13.18L101.578,4.406H66.69Z" transform="translate(2.23 0.055)" fill="#403036"/><rect width="30.104" height="26.877" transform="translate(2.729 42.941)" fill="#f06b30"/><path d="M8.772,61.676A2.622,2.622,0,0,0,6.3,58.928a2.622,2.622,0,0,0-2.474,2.748H5.911v2.3c-.151.181-.365.368-.5.356-.092-.009-.208-.159-.312-.394l-.792.428c.32.727.736.912,1.025.942l.09,0c.693,0,1.223-.778,1.284-.873l.082-.125V61.676Z" transform="translate(0.164 2.535)" fill="#403036"/><path d="M11.089,64.525V61.943c1.182-.277,1.464-1.7,1.464-2.95H8.744c0,1.253.285,2.669,1.463,2.95v2.584c-.821.088-1.032.42-1.032.718h2.943c0-.3-.2-.63-1.031-.719" transform="translate(0.376 2.538)" fill="#403036"/><rect width="4.803" height="4.384" transform="translate(28.029 54.208)" fill="#ffa970"/><rect width="4.802" height="4.384" transform="translate(2.729 54.208)" fill="#ffa970"/><rect width="30.104" height="26.876" transform="translate(2.729 16.023)" fill="#ffa970"/><path d="M26.46,35.868a2.623,2.623,0,0,0-2.474-2.749,2.623,2.623,0,0,0-2.474,2.749H23.6v2.3c-.149.18-.365.367-.5.356-.093-.01-.209-.158-.312-.4L22,38.558c.319.726.733.914,1.024.942a.9.9,0,0,0,.091,0c.693,0,1.221-.777,1.282-.871l.083-.128V35.868Z" transform="translate(0.926 1.425)" fill="#403036"/><path d="M28.776,38.718V36.135c1.185-.277,1.465-1.695,1.465-2.949H26.434c0,1.254.283,2.669,1.461,2.949v2.587c-.822.083-1.028.417-1.028.716h2.94c0-.3-.2-.632-1.032-.719" transform="translate(1.137 1.428)" fill="#403036"/><rect width="4.803" height="4.383" transform="translate(28.029 27.291)" fill="#fa753a"/><rect width="4.802" height="4.383" transform="translate(2.729 27.291)" fill="#fa753a"/><path d="M38.721,72.408V53.733L54.149,41.554H78.508s-1.624-8.18,9.743-8.107c14.616.092,18.65,0,18.65,0s8.934-.687,8.934,8.918V72.408Z" transform="translate(1.666 1.438)" fill="#fa753a"/><rect width="77.114" height="1.658" transform="translate(40.386 67.41)" fill="#fff"/><rect width="77.114" height="3.789" transform="translate(40.386 61.937)" fill="#fff"/><path d="M63.672,71.209A9.91,9.91,0,1,1,53.763,61.3a9.91,9.91,0,0,1,9.909,9.912" transform="translate(1.887 2.637)" fill="#403036"/><path d="M111.938,71.209a9.912,9.912,0,1,1-9.912-9.912,9.913,9.913,0,0,1,9.912,9.912" transform="translate(3.963 2.637)" fill="#403036"/><g transform="translate(40.387 55.172)" style="mix-blend-mode:multiply;isolation:isolate"><g clip-path="url(#h)"><rect width="77.114" height="18.674" transform="translate(-0.001 0)" fill="#f7ead7"/></g></g><g transform="translate(2.728 16.023)" style="mix-blend-mode:multiply;isolation:isolate"><g clip-path="url(#i)"><rect width="16.295" height="55.435" transform="translate(0 0)" fill="#f7ead7"/></g></g><rect width="3.802" height="73.846" transform="translate(34.958)" fill="#735a62"/><path d="M60.18,71.071a6.556,6.556,0,1,1-6.555-6.559,6.557,6.557,0,0,1,6.555,6.559" transform="translate(2.025 2.775)" fill="#f06b30"/><path d="M108.445,71.071a6.557,6.557,0,1,1-6.558-6.559,6.559,6.559,0,0,1,6.558,6.559" transform="translate(4.102 2.775)" fill="#f06b30"/><rect width="38.045" height="4.778" transform="translate(0 69.068)" fill="#735a62"/></g></g></g></g></g></svg>