<svg xmlns="http://www.w3.org/2000/svg" xmlns:xlink="http://www.w3.org/1999/xlink" width="138.62" height="125.624" viewBox="0 0 138.62 125.624"><defs><filter id="a" x="16.329" y="3.333" width="122.291" height="122.291" filterUnits="userSpaceOnUse"><feOffset dy="3" input="SourceAlpha"/><feGaussianBlur stdDeviation="3" result="b"/><feFlood flood-opacity="0.412"/><feComposite operator="in" in2="b"/></filter><filter id="c" x="16.329" y="3.333" width="122.291" height="122.291" filterUnits="userSpaceOnUse"><feOffset dy="3" input="SourceAlpha"/><feGaussianBlur stdDeviation="3" result="d"/><feFlood flood-opacity="0.161" result="e"/><feComposite operator="out" in="SourceGraphic" in2="d"/><feComposite operator="in" in="e"/><feComposite operator="in" in2="SourceGraphic"/></filter><clipPath id="f"><rect width="102.573" height="110.497" fill="none"/></clipPath><clipPath id="g"><rect width="102.573" height="110.497" transform="translate(0 0)" fill="none"/></clipPath><clipPath id="h"><rect width="20.064" height="34.498" transform="translate(25.184 0)" fill="none"/></clipPath><clipPath id="i"><rect width="24.521" height="18.933" transform="translate(44.272 27.504)" fill="none"/></clipPath><clipPath id="j"><rect width="30.863" height="22.454" transform="translate(10.118 23.845)" fill="none"/></clipPath><clipPath id="k"><rect width="42.187" height="62.18" transform="translate(0 37.696)" fill="none"/></clipPath><clipPath id="l"><rect width="29.402" height="70.084" transform="translate(43.59 40.409)" fill="none"/></clipPath></defs><g transform="translate(-945.542 -267.667)"><path d="M487.792,337.206a8.906,8.906,0,1,1-8.906-8.906A8.911,8.911,0,0,1,487.792,337.206Z" transform="translate(499.13 44.447)" fill="#12263f"/><path d="M505.709,346.165A17.865,17.865,0,1,1,487.845,328.3,17.875,17.875,0,0,1,505.709,346.165Z" transform="translate(475.562 0.846)" fill="#e8e8e8"/><g data-type="innerShadowGroup"><g transform="matrix(1, 0, 0, 1, 945.54, 267.67)" filter="url(#a)"><g transform="translate(25.33 9.33)" fill="#f2f5f4" opacity="0.9"><path d="M 52.1455078125 102.7910232543945 C 45.3077507019043 102.7910232543945 38.67532348632812 101.4521636962891 32.43244934082031 98.81166839599609 C 26.40179443359375 96.26091003417969 20.98540687561035 92.60896301269531 16.33372116088867 87.95729064941406 C 11.68205070495605 83.30561065673828 8.030121803283691 77.88920593261719 5.47936487197876 71.85856628417969 C 2.838850736618042 65.61569213867188 1.50000786781311 58.9832649230957 1.50000786781311 52.1455078125 C 1.50000786781311 45.3077507019043 2.838850736618042 38.67532348632812 5.47936487197876 32.43244934082031 C 8.030121803283691 26.40179443359375 11.68205070495605 20.98540687561035 16.33372116088867 16.33372116088867 C 20.98540687561035 11.68205070495605 26.40179443359375 8.030121803283691 32.43244934082031 5.47936487197876 C 38.67532348632812 2.838850736618042 45.3077507019043 1.50000786781311 52.1455078125 1.50000786781311 C 58.9832649230957 1.50000786781311 65.61569213867188 2.838850736618042 71.85856628417969 5.47936487197876 C 77.88920593261719 8.030121803283691 83.30561065673828 11.68205070495605 87.95729064941406 16.33372116088867 C 92.60896301269531 20.98540687561035 96.26091003417969 26.40179443359375 98.81166839599609 32.43244934082031 C 101.4521636962891 38.67532348632812 102.7910232543945 45.3077507019043 102.7910232543945 52.1455078125 C 102.7910232543945 58.9832649230957 101.4521636962891 65.61569213867188 98.81166839599609 71.85856628417969 C 96.26091003417969 77.88920593261719 92.60896301269531 83.30561065673828 87.95729064941406 87.95729064941406 C 83.30561065673828 92.60896301269531 77.88920593261719 96.26091003417969 71.85856628417969 98.81166839599609 C 65.61569213867188 101.4521636962891 58.9832649230957 102.7910232543945 52.1455078125 102.7910232543945 Z" stroke="none"/><path d="M 52.1455078125 2.999992370605469 C 45.50959014892578 2.999992370605469 39.07376098632812 4.298973083496094 33.01677703857422 6.860855102539062 C 27.16492462158203 9.335990905761719 21.90879058837891 12.87997436523438 17.39437103271484 17.39437103271484 C 12.87997436523438 21.90879058837891 9.335990905761719 27.16492462158203 6.860855102539062 33.01677703857422 C 4.298973083496094 39.07376098632812 2.999992370605469 45.50959014892578 2.999992370605469 52.1455078125 C 2.999992370605469 58.78142547607422 4.298973083496094 65.21725463867188 6.860855102539062 71.27422332763672 C 9.335990905761719 77.12607574462891 12.87997436523438 82.38220977783203 17.39437103271484 86.89662170410156 C 21.90879058837891 91.41102600097656 27.16492462158203 94.95500946044922 33.01677703857422 97.43013763427734 C 39.07376098632812 99.99202728271484 45.50959014892578 101.2910079956055 52.1455078125 101.2910079956055 C 58.78142547607422 101.2910079956055 65.21725463867188 99.99202728271484 71.27422332763672 97.43013763427734 C 77.12607574462891 94.95500946044922 82.38220977783203 91.41102600097656 86.89662170410156 86.89662170410156 C 91.41102600097656 82.38220977783203 94.95500946044922 77.12607574462891 97.43013763427734 71.27422332763672 C 99.99202728271484 65.21725463867188 101.2910079956055 58.78142547607422 101.2910079956055 52.1455078125 C 101.2910079956055 45.50959014892578 99.99202728271484 39.07376098632812 97.43013763427734 33.01677703857422 C 94.95500946044922 27.16492462158203 91.41102600097656 21.90879058837891 86.89662170410156 17.39437103271484 C 82.38220977783203 12.87997436523438 77.12607574462891 9.335990905761719 71.27422332763672 6.860855102539062 C 65.21725463867188 4.298973083496094 58.78142547607422 2.999992370605469 52.1455078125 2.999992370605469 M 52.1455078125 -7.62939453125e-06 C 80.94465637207031 -7.62939453125e-06 104.2910079956055 23.34634399414062 104.2910079956055 52.1455078125 C 104.2910079956055 80.94465637207031 80.94465637207031 104.2910079956055 52.1455078125 104.2910079956055 C 23.34634399414062 104.2910079956055 -7.62939453125e-06 80.94465637207031 -7.62939453125e-06 52.1455078125 C -7.62939453125e-06 23.34634399414062 23.34634399414062 -7.62939453125e-06 52.1455078125 -7.62939453125e-06 Z" stroke="none" fill="#fff"/></g></g><g transform="translate(970.871 277)" fill="#f2f5f4" opacity="0.9"><path d="M 52.1455078125 102.7910232543945 C 45.3077507019043 102.7910232543945 38.67532348632812 101.4521636962891 32.43244934082031 98.81166839599609 C 26.40179443359375 96.26091003417969 20.98540687561035 92.60896301269531 16.33372116088867 87.95729064941406 C 11.68205070495605 83.30561065673828 8.030121803283691 77.88920593261719 5.47936487197876 71.85856628417969 C 2.838850736618042 65.61569213867188 1.50000786781311 58.9832649230957 1.50000786781311 52.1455078125 C 1.50000786781311 45.3077507019043 2.838850736618042 38.67532348632812 5.47936487197876 32.43244934082031 C 8.030121803283691 26.40179443359375 11.68205070495605 20.98540687561035 16.33372116088867 16.33372116088867 C 20.98540687561035 11.68205070495605 26.40179443359375 8.030121803283691 32.43244934082031 5.47936487197876 C 38.67532348632812 2.838850736618042 45.3077507019043 1.50000786781311 52.1455078125 1.50000786781311 C 58.9832649230957 1.50000786781311 65.61569213867188 2.838850736618042 71.85856628417969 5.47936487197876 C 77.88920593261719 8.030121803283691 83.30561065673828 11.68205070495605 87.95729064941406 16.33372116088867 C 92.60896301269531 20.98540687561035 96.26091003417969 26.40179443359375 98.81166839599609 32.43244934082031 C 101.4521636962891 38.67532348632812 102.7910232543945 45.3077507019043 102.7910232543945 52.1455078125 C 102.7910232543945 58.9832649230957 101.4521636962891 65.61569213867188 98.81166839599609 71.85856628417969 C 96.26091003417969 77.88920593261719 92.60896301269531 83.30561065673828 87.95729064941406 87.95729064941406 C 83.30561065673828 92.60896301269531 77.88920593261719 96.26091003417969 71.85856628417969 98.81166839599609 C 65.61569213867188 101.4521636962891 58.9832649230957 102.7910232543945 52.1455078125 102.7910232543945 Z" stroke="none"/><path d="M 52.1455078125 2.999992370605469 C 45.50959014892578 2.999992370605469 39.07376098632812 4.298973083496094 33.01677703857422 6.860855102539062 C 27.16492462158203 9.335990905761719 21.90879058837891 12.87997436523438 17.39437103271484 17.39437103271484 C 12.87997436523438 21.90879058837891 9.335990905761719 27.16492462158203 6.860855102539062 33.01677703857422 C 4.298973083496094 39.07376098632812 2.999992370605469 45.50959014892578 2.999992370605469 52.1455078125 C 2.999992370605469 58.78142547607422 4.298973083496094 65.21725463867188 6.860855102539062 71.27422332763672 C 9.335990905761719 77.12607574462891 12.87997436523438 82.38220977783203 17.39437103271484 86.89662170410156 C 21.90879058837891 91.41102600097656 27.16492462158203 94.95500946044922 33.01677703857422 97.43013763427734 C 39.07376098632812 99.99202728271484 45.50959014892578 101.2910079956055 52.1455078125 101.2910079956055 C 58.78142547607422 101.2910079956055 65.21725463867188 99.99202728271484 71.27422332763672 97.43013763427734 C 77.12607574462891 94.95500946044922 82.38220977783203 91.41102600097656 86.89662170410156 86.89662170410156 C 91.41102600097656 82.38220977783203 94.95500946044922 77.12607574462891 97.43013763427734 71.27422332763672 C 99.99202728271484 65.21725463867188 101.2910079956055 58.78142547607422 101.2910079956055 52.1455078125 C 101.2910079956055 45.50959014892578 99.99202728271484 39.07376098632812 97.43013763427734 33.01677703857422 C 94.95500946044922 27.16492462158203 91.41102600097656 21.90879058837891 86.89662170410156 17.39437103271484 C 82.38220977783203 12.87997436523438 77.12607574462891 9.335990905761719 71.27422332763672 6.860855102539062 C 65.21725463867188 4.298973083496094 58.78142547607422 2.999992370605469 52.1455078125 2.999992370605469 M 52.1455078125 -7.62939453125e-06 C 80.94465637207031 -7.62939453125e-06 104.2910079956055 23.34634399414062 104.2910079956055 52.1455078125 C 104.2910079956055 80.94465637207031 80.94465637207031 104.2910079956055 52.1455078125 104.2910079956055 C 23.34634399414062 104.2910079956055 -7.62939453125e-06 80.94465637207031 -7.62939453125e-06 52.1455078125 C -7.62939453125e-06 23.34634399414062 23.34634399414062 -7.62939453125e-06 52.1455078125 -7.62939453125e-06 Z" stroke="none"/></g><g transform="matrix(1, 0, 0, 1, 945.54, 267.67)" filter="url(#c)"><g transform="translate(25.33 9.33)" fill="#fff" opacity="0.9"><path d="M 52.1455078125 102.7910232543945 C 45.3077507019043 102.7910232543945 38.67532348632812 101.4521636962891 32.43244934082031 98.81166839599609 C 26.40179443359375 96.26091003417969 20.98540687561035 92.60896301269531 16.33372116088867 87.95729064941406 C 11.68205070495605 83.30561065673828 8.030121803283691 77.88920593261719 5.47936487197876 71.85856628417969 C 2.838850736618042 65.61569213867188 1.50000786781311 58.9832649230957 1.50000786781311 52.1455078125 C 1.50000786781311 45.3077507019043 2.838850736618042 38.67532348632812 5.47936487197876 32.43244934082031 C 8.030121803283691 26.40179443359375 11.68205070495605 20.98540687561035 16.33372116088867 16.33372116088867 C 20.98540687561035 11.68205070495605 26.40179443359375 8.030121803283691 32.43244934082031 5.47936487197876 C 38.67532348632812 2.838850736618042 45.3077507019043 1.50000786781311 52.1455078125 1.50000786781311 C 58.9832649230957 1.50000786781311 65.61569213867188 2.838850736618042 71.85856628417969 5.47936487197876 C 77.88920593261719 8.030121803283691 83.30561065673828 11.68205070495605 87.95729064941406 16.33372116088867 C 92.60896301269531 20.98540687561035 96.26091003417969 26.40179443359375 98.81166839599609 32.43244934082031 C 101.4521636962891 38.67532348632812 102.7910232543945 45.3077507019043 102.7910232543945 52.1455078125 C 102.7910232543945 58.9832649230957 101.4521636962891 65.61569213867188 98.81166839599609 71.85856628417969 C 96.26091003417969 77.88920593261719 92.60896301269531 83.30561065673828 87.95729064941406 87.95729064941406 C 83.30561065673828 92.60896301269531 77.88920593261719 96.26091003417969 71.85856628417969 98.81166839599609 C 65.61569213867188 101.4521636962891 58.9832649230957 102.7910232543945 52.1455078125 102.7910232543945 Z" stroke="none"/><path d="M 52.1455078125 2.999992370605469 C 45.50959014892578 2.999992370605469 39.07376098632812 4.298973083496094 33.01677703857422 6.860855102539062 C 27.16492462158203 9.335990905761719 21.90879058837891 12.87997436523438 17.39437103271484 17.39437103271484 C 12.87997436523438 21.90879058837891 9.335990905761719 27.16492462158203 6.860855102539062 33.01677703857422 C 4.298973083496094 39.07376098632812 2.999992370605469 45.50959014892578 2.999992370605469 52.1455078125 C 2.999992370605469 58.78142547607422 4.298973083496094 65.21725463867188 6.860855102539062 71.27422332763672 C 9.335990905761719 77.12607574462891 12.87997436523438 82.38220977783203 17.39437103271484 86.89662170410156 C 21.90879058837891 91.41102600097656 27.16492462158203 94.95500946044922 33.01677703857422 97.43013763427734 C 39.07376098632812 99.99202728271484 45.50959014892578 101.2910079956055 52.1455078125 101.2910079956055 C 58.78142547607422 101.2910079956055 65.21725463867188 99.99202728271484 71.27422332763672 97.43013763427734 C 77.12607574462891 94.95500946044922 82.38220977783203 91.41102600097656 86.89662170410156 86.89662170410156 C 91.41102600097656 82.38220977783203 94.95500946044922 77.12607574462891 97.43013763427734 71.27422332763672 C 99.99202728271484 65.21725463867188 101.2910079956055 58.78142547607422 101.2910079956055 52.1455078125 C 101.2910079956055 45.50959014892578 99.99202728271484 39.07376098632812 97.43013763427734 33.01677703857422 C 94.95500946044922 27.16492462158203 91.41102600097656 21.90879058837891 86.89662170410156 17.39437103271484 C 82.38220977783203 12.87997436523438 77.12607574462891 9.335990905761719 71.27422332763672 6.860855102539062 C 65.21725463867188 4.298973083496094 58.78142547607422 2.999992370605469 52.1455078125 2.999992370605469 M 52.1455078125 -7.62939453125e-06 C 80.94465637207031 -7.62939453125e-06 104.2910079956055 23.34634399414062 104.2910079956055 52.1455078125 C 104.2910079956055 80.94465637207031 80.94465637207031 104.2910079956055 52.1455078125 104.2910079956055 C 23.34634399414062 104.2910079956055 -7.62939453125e-06 80.94465637207031 -7.62939453125e-06 52.1455078125 C -7.62939453125e-06 23.34634399414062 23.34634399414062 -7.62939453125e-06 52.1455078125 -7.62939453125e-06 Z" stroke="none"/></g></g><g transform="translate(970.871 277)" fill="none" opacity="0.9"><path d="M 52.1455078125 102.7910232543945 C 45.3077507019043 102.7910232543945 38.67532348632812 101.4521636962891 32.43244934082031 98.81166839599609 C 26.40179443359375 96.26091003417969 20.98540687561035 92.60896301269531 16.33372116088867 87.95729064941406 C 11.68205070495605 83.30561065673828 8.030121803283691 77.88920593261719 5.47936487197876 71.85856628417969 C 2.838850736618042 65.61569213867188 1.50000786781311 58.9832649230957 1.50000786781311 52.1455078125 C 1.50000786781311 45.3077507019043 2.838850736618042 38.67532348632812 5.47936487197876 32.43244934082031 C 8.030121803283691 26.40179443359375 11.68205070495605 20.98540687561035 16.33372116088867 16.33372116088867 C 20.98540687561035 11.68205070495605 26.40179443359375 8.030121803283691 32.43244934082031 5.47936487197876 C 38.67532348632812 2.838850736618042 45.3077507019043 1.50000786781311 52.1455078125 1.50000786781311 C 58.9832649230957 1.50000786781311 65.61569213867188 2.838850736618042 71.85856628417969 5.47936487197876 C 77.88920593261719 8.030121803283691 83.30561065673828 11.68205070495605 87.95729064941406 16.33372116088867 C 92.60896301269531 20.98540687561035 96.26091003417969 26.40179443359375 98.81166839599609 32.43244934082031 C 101.4521636962891 38.67532348632812 102.7910232543945 45.3077507019043 102.7910232543945 52.1455078125 C 102.7910232543945 58.9832649230957 101.4521636962891 65.61569213867188 98.81166839599609 71.85856628417969 C 96.26091003417969 77.88920593261719 92.60896301269531 83.30561065673828 87.95729064941406 87.95729064941406 C 83.30561065673828 92.60896301269531 77.88920593261719 96.26091003417969 71.85856628417969 98.81166839599609 C 65.61569213867188 101.4521636962891 58.9832649230957 102.7910232543945 52.1455078125 102.7910232543945 Z" stroke="none"/><path d="M 52.1455078125 2.999992370605469 C 45.50959014892578 2.999992370605469 39.07376098632812 4.298973083496094 33.01677703857422 6.860855102539062 C 27.16492462158203 9.335990905761719 21.90879058837891 12.87997436523438 17.39437103271484 17.39437103271484 C 12.87997436523438 21.90879058837891 9.335990905761719 27.16492462158203 6.860855102539062 33.01677703857422 C 4.298973083496094 39.07376098632812 2.999992370605469 45.50959014892578 2.999992370605469 52.1455078125 C 2.999992370605469 58.78142547607422 4.298973083496094 65.21725463867188 6.860855102539062 71.27422332763672 C 9.335990905761719 77.12607574462891 12.87997436523438 82.38220977783203 17.39437103271484 86.89662170410156 C 21.90879058837891 91.41102600097656 27.16492462158203 94.95500946044922 33.01677703857422 97.43013763427734 C 39.07376098632812 99.99202728271484 45.50959014892578 101.2910079956055 52.1455078125 101.2910079956055 C 58.78142547607422 101.2910079956055 65.21725463867188 99.99202728271484 71.27422332763672 97.43013763427734 C 77.12607574462891 94.95500946044922 82.38220977783203 91.41102600097656 86.89662170410156 86.89662170410156 C 91.41102600097656 82.38220977783203 94.95500946044922 77.12607574462891 97.43013763427734 71.27422332763672 C 99.99202728271484 65.21725463867188 101.2910079956055 58.78142547607422 101.2910079956055 52.1455078125 C 101.2910079956055 45.50959014892578 99.99202728271484 39.07376098632812 97.43013763427734 33.01677703857422 C 94.95500946044922 27.16492462158203 91.41102600097656 21.90879058837891 86.89662170410156 17.39437103271484 C 82.38220977783203 12.87997436523438 77.12607574462891 9.335990905761719 71.27422332763672 6.860855102539062 C 65.21725463867188 4.298973083496094 58.78142547607422 2.999992370605469 52.1455078125 2.999992370605469 M 52.1455078125 -7.62939453125e-06 C 80.94465637207031 -7.62939453125e-06 104.2910079956055 23.34634399414062 104.2910079956055 52.1455078125 C 104.2910079956055 80.94465637207031 80.94465637207031 104.2910079956055 52.1455078125 104.2910079956055 C 23.34634399414062 104.2910079956055 -7.62939453125e-06 80.94465637207031 -7.62939453125e-06 52.1455078125 C -7.62939453125e-06 23.34634399414062 23.34634399414062 -7.62939453125e-06 52.1455078125 -7.62939453125e-06 Z" stroke="none" fill="#fff"/></g></g><g transform="translate(977.016 267.667)"><g clip-path="url(#f)"><g clip-path="url(#g)"><path d="M29.054,6.367A6.367,6.367,0,1,0,35.42,0a6.369,6.369,0,0,0-6.366,6.367m3,0A3.367,3.367,0,1,1,35.42,9.734a3.367,3.367,0,0,1-3.365-3.367" fill="#f06b30"/><path d="M25.209,22.192c.424-7,8.09-5.216,7.427-11.033-.01-.082,1.285-.152,1.291-.23h3.894c-.193,2.913.175,6.285-1.966,6.465-5.1.433-4.574,9.6.639,9.678,3.172.048,5.24-1.476,6.115-5.959.411-2.092,3.181-4.226,2.545,3.412A10.473,10.473,0,0,1,34.97,34.5c-5.1,0-10.187-5.3-9.761-12.306" fill="#f06b30"/><g style="mix-blend-mode:multiply;isolation:isolate"><g clip-path="url(#h)"><path d="M25.209,22.192c.4-6.593,7.213-5.4,7.455-10.091A6.363,6.363,0,1,1,40.117,2.079,5.742,5.742,0,0,0,30.53,6.367c0,2.894,4.525,5.68,4.525,5.68-.006.065-1.066.123-1.058.19.544,4.765-5.734,3.3-6.082,9.036s3.822,10.08,7.992,10.08a8.578,8.578,0,0,0,8.343-8.167c.186-2.237.013-3.438-.3-4,.8-.224,1.57.915,1.2,5.336A10.473,10.473,0,0,1,34.97,34.5c-5.1,0-10.187-5.3-9.761-12.306" fill="#e3d8db"/></g></g><path d="M68.637,41.863a1.644,1.644,0,0,1,.753,2.189l-.721,1.468a1.64,1.64,0,0,1-2.187.752L43.77,29.255a11.438,11.438,0,0,0,1.368-4.6Z" fill="#735a62"/><path d="M10.423,41.841,26.8,29.218l6.061-4.671,4.12-3.175a3.417,3.417,0,0,1,2.881-.107l2.326,1.494a5.689,5.689,0,0,1-3.08,3.84,3.339,3.339,0,0,0-1.92.341l-.131.1L29.874,32.7,12.907,46.076a1.642,1.642,0,0,1-2.239-.585l-.829-1.412a1.641,1.641,0,0,1,.584-2.238" fill="#735a62"/><g style="mix-blend-mode:multiply;isolation:isolate"><g clip-path="url(#i)"><path d="M68.16,44.71,44.661,27.5a12.6,12.6,0,0,1-.389,2.128l22.209,16.64a1.641,1.641,0,0,0,2.188-.752l.124-.249a1.619,1.619,0,0,0-.633-.561" fill="#e3d8db"/></g></g><path d="M37.187,26.94l-.131.1a5.926,5.926,0,0,0,2.051-.444,3.339,3.339,0,0,0-1.92.341" fill="#735a62"/><g style="mix-blend-mode:multiply;isolation:isolate"><g clip-path="url(#j)"><path d="M36.5,24.22,32.383,27.4l-6.06,4.67-16.2,12.492.55.934a1.642,1.642,0,0,0,2.24.586L29.875,32.7l7.181-5.658.131-.1a3.343,3.343,0,0,1,1.921-.341,4.7,4.7,0,0,0,1.873-1.461l-1.6-1.026a3.416,3.416,0,0,0-2.881.107" fill="#e3d8db"/></g></g><rect width="75.898" height="62.18" transform="translate(0 37.696)" fill="#f06b30"/><rect width="6.401" height="52.121" transform="translate(63.325 42.726)" fill="#403036"/><rect width="6.401" height="52.121" transform="translate(51.894 42.726)" fill="#403036"/><rect width="6.404" height="52.121" transform="translate(40.46 42.726)" fill="#403036"/><rect width="6.399" height="52.121" transform="translate(29.033 42.726)" fill="#403036"/><rect width="6.4" height="52.121" transform="translate(17.601 42.726)" fill="#403036"/><rect width="6.401" height="52.121" transform="translate(6.17 42.726)" fill="#403036"/><g style="mix-blend-mode:multiply;isolation:isolate"><g clip-path="url(#k)"><rect width="42.187" height="62.18" transform="translate(0 37.696)" fill="#e3d8db"/></g></g><path d="M58.507,58.154a1.794,1.794,0,1,1-2.8,2.239L50.265,53.58a1.792,1.792,0,1,1,2.8-2.237Z" fill="#403036"/><path d="M87.842,58.154a1.795,1.795,0,1,0,2.806,2.239l5.436-6.813a1.792,1.792,0,1,0-2.8-2.237Z" fill="#403036"/><path d="M99.178,81a26.1,26.1,0,1,1-26.1-26.1A26.1,26.1,0,0,1,99.178,81" fill="#fff"/><path d="M73.081,52.143A28.858,28.858,0,1,0,101.94,81,28.858,28.858,0,0,0,73.081,52.143m0,53.317A24.459,24.459,0,1,1,97.543,81,24.461,24.461,0,0,1,73.081,105.46" fill="#403036"/><path d="M73.081,51.508A29.495,29.495,0,1,0,102.573,81,29.491,29.491,0,0,0,73.081,51.508m0,55.589A26.1,26.1,0,1,1,99.178,81a26.1,26.1,0,0,1-26.1,26.1" fill="#735a62"/><path d="M79.209,51.743a3.062,3.062,0,0,1-3.063,3.062H70.2a3.063,3.063,0,0,1,0-6.127h5.946a3.064,3.064,0,0,1,3.063,3.065" fill="#735a62"/><path d="M73.172,40.4a5.555,5.555,0,1,0,5.556,5.555A5.554,5.554,0,0,0,73.172,40.4m0,9.577a4.022,4.022,0,1,1,4.023-4.022,4.02,4.02,0,0,1-4.023,4.022" fill="#735a62"/><path d="M74.21,63.255a1.05,1.05,0,0,1-2.074,0V59.107a1.05,1.05,0,0,1,2.074,0Z" fill="#f06b30"/><path d="M55.334,79.873a1.049,1.049,0,0,1,0,2.073H51.188a1.049,1.049,0,0,1,0-2.073Z" fill="#f06b30"/><path d="M71.953,98.748a1.05,1.05,0,0,1,2.074,0V102.9a1.051,1.051,0,0,1-2.074,0Z" fill="#f06b30"/><path d="M90.828,82.131a1.05,1.05,0,0,1,0-2.074h4.15a1.05,1.05,0,0,1,0,2.074Z" fill="#f06b30"/><path d="M61.333,67.652a1.052,1.052,0,0,1-1.47,1.468l-2.93-2.936A1.05,1.05,0,0,1,58.4,64.719Z" fill="#f06b30"/><path d="M59.734,92.752a1.052,1.052,0,0,1,1.47,1.466l-2.939,2.935A1.05,1.05,0,0,1,56.8,95.686Z" fill="#f06b30"/><path d="M84.833,94.349A1.051,1.051,0,0,1,86.3,92.881l2.933,2.935a1.052,1.052,0,0,1-1.466,1.468Z" fill="#f06b30"/><path d="M86.43,69.252a1.052,1.052,0,0,1-1.468-1.468L87.9,64.852a1.05,1.05,0,0,1,1.469,1.464Z" fill="#f06b30"/><path d="M76.549,80.91a3.559,3.559,0,1,1-3.557-3.561,3.558,3.558,0,0,1,3.557,3.561" fill="#403036"/><path d="M77.388,87.9c.186.463-.217,1.063-.9,1.339s-1.392.122-1.577-.344L65.224,64.824c-.188-.464.217-1.064.9-1.339s1.391-.122,1.579.344Z" fill="#403036"/><path d="M56.486,49.248a2.389,2.389,0,0,1-.375,3.352L50.98,56.7a2.384,2.384,0,1,1-2.972-3.728l5.126-4.095a2.385,2.385,0,0,1,3.352.375" fill="#ffa970"/><path d="M89.862,49.248a2.39,2.39,0,0,0,.374,3.352l5.132,4.1a2.385,2.385,0,0,0,2.976-3.728l-5.133-4.095a2.382,2.382,0,0,0-3.349.375" fill="#f06b30"/><g style="mix-blend-mode:multiply;isolation:isolate"><g clip-path="url(#l)"><path d="M72.992,48.678H70.231a4,4,0,0,1,2.761-6.727V40.409a5.545,5.545,0,0,0-4.371,8.72,3.049,3.049,0,0,0-1.484,2.614,3.51,3.51,0,0,0,.035.357,29.332,29.332,0,0,0-10.166,4.178l-2.141-2.684,1.246-.994a2.385,2.385,0,0,0-2.976-3.728l-5.127,4.095a2.384,2.384,0,1,0,2.972,3.728l1.082-.863,2.062,2.581a29.49,29.49,0,0,0,18.868,52.08Z" fill="#e3d8db"/></g></g></g></g></g></g></svg>