<svg xmlns="http://www.w3.org/2000/svg" xmlns:xlink="http://www.w3.org/1999/xlink" width="108.914" height="108.914" viewBox="0 0 108.914 108.914"><defs><filter id="a" x="0" y="0" width="108.914" height="108.914" filterUnits="userSpaceOnUse"><feOffset dy="3" input="SourceAlpha"/><feGaussianBlur stdDeviation="3" result="b"/><feFlood flood-opacity="0.161"/><feComposite operator="in" in2="b"/><feComposite in="SourceGraphic"/></filter></defs><g transform="translate(-907.758 -1018.136)"><g transform="matrix(1, 0, 0, 1, 907.76, 1018.14)" filter="url(#a)"><g transform="translate(9 6)" fill="#cae1f9" opacity="0.859"><path d="M 45.45676803588867 89.41407012939453 C 39.52198028564453 89.41407012939453 33.76551818847656 88.25206756591797 28.34726715087891 85.96034240722656 C 23.11311721801758 83.74648284912109 18.41204261779785 80.57682800292969 14.37464332580566 76.5394287109375 C 10.33724308013916 72.50202941894531 7.167593002319336 67.80095672607422 4.953730583190918 62.56679534912109 C 2.662005424499512 57.14855575561523 1.500005483627319 51.39208221435547 1.500005483627319 45.45729446411133 C 1.500005483627319 39.52198028564453 2.662005424499512 33.76551818847656 4.953730583190918 28.34726905822754 C 7.167593002319336 23.11310577392578 10.33724308013916 18.41203117370605 14.37464332580566 14.37464332580566 C 18.41204261779785 10.33724403381348 23.11311721801758 7.167593955993652 28.34726715087891 4.953731060028076 C 33.76551818847656 2.662006139755249 39.52198028564453 1.500006198883057 45.45676803588867 1.500006198883057 C 51.39155578613281 1.500006198883057 57.14802932739258 2.662006139755249 62.56626892089844 4.953731060028076 C 67.80043029785156 7.167593955993652 72.50150299072266 10.33724403381348 76.53890228271484 14.37464332580566 C 80.57630920410156 18.41203117370605 83.74595642089844 23.11310577392578 85.95981597900391 28.34726905822754 C 88.25154113769531 33.76551818847656 89.41354370117188 39.52198028564453 89.41354370117188 45.45676803588867 C 89.41354370117188 51.39208221435547 88.25154113769531 57.14855575561523 85.95981597900391 62.56679534912109 C 83.74595642089844 67.80095672607422 80.57630920410156 72.50202941894531 76.53890228271484 76.5394287109375 C 72.50150299072266 80.57682800292969 67.80043029785156 83.74648284912109 62.56626892089844 85.96034240722656 C 57.14802932739258 88.25206756591797 51.39155578613281 89.41407012939453 45.45676803588867 89.41407012939453 Z" stroke="none"/><path d="M 45.45676803588867 3 C 39.72381210327148 3 34.1639404296875 4.12213134765625 28.93159484863281 6.335227966308594 C 23.87622833251953 8.473472595214844 19.33542633056641 11.53517150878906 15.43529510498047 15.435302734375 C 11.53517150878906 19.33543395996094 8.473464965820312 23.87622833251953 6.335227966308594 28.93160247802734 C 4.122123718261719 34.16394424438477 3 39.72381591796875 3 45.4572868347168 C 3 51.19024658203125 4.122123718261719 56.75011825561523 6.335227966308594 61.98246002197266 C 8.473464965820312 67.03782653808594 11.53517150878906 71.57862854003906 15.43529510498047 75.478759765625 C 19.33542633056641 79.37889099121094 23.87622833251953 82.44058990478516 28.93159484863281 84.57883453369141 C 34.1639404296875 86.79193115234375 39.72381210327148 87.9140625 45.45676803588867 87.9140625 C 51.18972396850586 87.9140625 56.74959564208984 86.79193115234375 61.98194122314453 84.57883453369141 C 67.03730773925781 82.44058990478516 71.57810974121094 79.37889099121094 75.47824096679688 75.478759765625 C 79.37837219238281 71.57862854003906 82.44007110595703 67.03782653808594 84.57830810546875 61.98246002197266 C 86.79141235351562 56.75011825561523 87.91353607177734 51.19024658203125 87.91353607177734 45.4567756652832 C 87.91353607177734 39.72381591796875 86.79141235351562 34.16394424438477 84.57830810546875 28.93160247802734 C 82.44007110595703 23.87622833251953 79.37837219238281 19.33543395996094 75.47824096679688 15.435302734375 C 71.57810974121094 11.53517150878906 67.03730773925781 8.473472595214844 61.98194122314453 6.335227966308594 C 56.74959564208984 4.12213134765625 51.18972396850586 3 45.45676803588867 3 M 45.45676803588867 0 C 70.56185150146484 0 90.91353607177734 20.35169219970703 90.91353607177734 45.4567756652832 L 90.91353607177734 45.4572868347168 C 90.91353607177734 70.5623779296875 70.56185150146484 90.9140625 45.45676803588867 90.9140625 C 20.3516845703125 90.9140625 0 70.5623779296875 0 45.4572868347168 L 0 45.4567756652832 C 0 20.35169219970703 20.3516845703125 0 45.45676803588867 0 Z" stroke="none" fill="#fff"/></g></g><g transform="translate(933.563 1040.229)"><rect width="22.134" height="26.401" rx="11.067" transform="translate(22.14 7.435)" fill="#b6dbff"/><rect width="20.851" height="26.401" rx="10.425" transform="translate(22.14 7.435)" fill="#e3f1ff"/><path d="M252.909,37.55a2.047,2.047,0,0,0-2.047,2.047v.281l-2.029-.355a1.013,1.013,0,0,0-1.187,1v2.2h10.528v-2.2a1.013,1.013,0,0,0-1.187-1l-2.03.355V39.6a2.047,2.047,0,0,0-2.047-2.047Z" transform="translate(-219.702 -33.701)" fill="#c86f5c" fill-rule="evenodd"/><path d="M250.864,42.954v.281l-2.029-.355a1.013,1.013,0,0,0-1.187,1v2.2h9.609V44.039a1.013,1.013,0,0,0-1.187-1l-1.111.194-.495.086-.26.045c.032-2.826-3.339-2.437-3.339-.413Z" transform="translate(-219.704 -37.057)" fill="#f29988" fill-rule="evenodd"/><path d="M36.436,18.259l-1.787-.352-.785-1.892L34.88,14.5l-2.093-2.093-1.514,1.015-1.892-.785-.352-1.787h-2.96l-.352,1.787-1.892.785L22.31,12.408,20.217,14.5l1.015,1.514-.785,1.892-1.787.352v2.96l1.787.352.785,1.892-1.015,1.514,2.093,2.093,1.514-1.015,1.892.785.352,1.787h2.96l.352-1.787,1.892-.785,1.514,1.015,2.093-2.093-1.015-1.514.785-1.892,1.787-.352Z" transform="translate(-16.979 -10.064)" fill="#7986bf" fill-rule="evenodd"/><path d="M35.572,21.219l-1.787.352L33,23.464l1.015,1.514L32.27,26.724l-1.327-.89L28.517,26.84l-.352,1.787h-2.1l-.352-1.787L23.29,25.834l-1.327.89-1.746-1.746,1.015-1.514-.785-1.892-1.787-.352v-2.96l1.787-.352.785-1.892L20.217,14.5l1.746-1.746,1.327.89,2.426-1.006.352-1.787h2.1l.352,1.787,2.426,1.006,1.327-.89L34.016,14.5,33,16.015l.785,1.892,1.787.352Z" transform="translate(-16.979 -10.064)" fill="#909cd1" fill-rule="evenodd"/><ellipse cx="4.572" cy="4.572" rx="4.572" ry="4.572" transform="matrix(0.983, -0.183, 0.183, 0.983, 4.518, 6.011)" fill="#7986bf"/><ellipse cx="4.554" cy="4.554" rx="4.554" ry="4.554" transform="matrix(0.983, -0.183, 0.183, 0.983, 5.262, 6.025)" fill="#f3f3ff"/><path d="M310.356,161.985a8.23,8.23,0,0,1,7.077,12.428,1.4,1.4,0,0,0,.215,1.718l1.469,1.469-1.373,1.373-1.469-1.469a1.4,1.4,0,0,0-1.718-.215,8.229,8.229,0,1,1-4.2-15.3Z" transform="translate(-267.936 -143.865)" fill="#fdb0a0" fill-rule="evenodd"/><path d="M318.55,180.675l-.805.805-1.469-1.469a1.4,1.4,0,0,0-1.718-.215,8.325,8.325,0,1,1-5.012-14.98c6.424,0,10.39,6.576,6.845,12.2a1.4,1.4,0,0,0,.215,1.718Z" transform="translate(-267.937 -146.371)" fill="#ffcec0" fill-rule="evenodd"/><path d="M438.569,295.922l-4.769-4.769a.855.855,0,0,0-1.207,0l-1.3,1.3a.855.855,0,0,0,0,1.207l4.769,4.769a1.77,1.77,0,0,0,2.5-2.5Z" transform="translate(-382.071 -257.998)" fill="#a34f41" fill-rule="evenodd"/><path d="M432.342,295.256,431.3,296.3a.855.855,0,0,0,0,1.208l4.769,4.769a1.266,1.266,0,1,0,1.923-1.378l-5.608-5.608Z" transform="translate(-382.07 -261.851)" fill="#c86f5c" fill-rule="evenodd"/><ellipse cx="5.848" cy="5.848" rx="5.848" ry="5.848" transform="translate(34.914 21.717) rotate(-10.894)" fill="#fdb0a0"/><ellipse cx="5.848" cy="5.848" rx="5.848" ry="5.848" transform="translate(34.553 23.732) rotate(-26.565)" fill="#f3f3ff"/><g transform="translate(0 0)"><path d="M76.457,322.179a2.29,2.29,0,0,0-2.053-3.455c-14.846,0-14.872-12.072-28.759,5.788l7.349,7.7c3.273-3.3,7.164-3.453,11.456-3.2,2.341.14,5.135.478,7.7.421,3.581-.079,5.776-1.051,8.921-2.717,3.58-1.9,9.8-5.674,10.889-7.1,1.554-2.042-.452-3.966-2.822-2.6a85.3,85.3,0,0,1-13.968,6.189,2.68,2.68,0,0,0,1.29-1.035Z" transform="translate(-40.869 -279.097)" fill="#fdb0a0" fill-rule="evenodd"/><path d="M76.457,322.179a2.29,2.29,0,0,0-2.053-3.455c-14.846,0-14.872-12.072-28.759,5.788l5.673,5.947c3.43-3.382,7.5-3.538,11.976-3.27,2.468.148,5.413.5,8.115.444,3.775-.083,6.089-1.108,9.4-2.864,3.737-1.98,10.2-5.9,11.442-7.44-.514-.788-1.757-1.091-3.12-.3a85.3,85.3,0,0,1-13.968,6.189,2.68,2.68,0,0,0,1.29-1.035Z" transform="translate(-40.869 -279.097)" fill="#ffcec0" fill-rule="evenodd"/><path d="M212.99,354.7a2.3,2.3,0,0,0-.969-3.23c.822.9.271,2.179-1.019,2.648a8.982,8.982,0,0,1-2.72.408,18.016,18.016,0,0,1-7.111-1.22.893.893,0,1,0-.824,1.585,20.072,20.072,0,0,0,7.977,1.415,10.291,10.291,0,0,0,3.376-.572A2.679,2.679,0,0,0,212.99,354.7Z" transform="translate(-177.402 -311.619)" fill="#fdb0a0" fill-rule="evenodd"/><path d="M11.234,379.091l3.4-3.4a1.722,1.722,0,0,1,2.429,0l8.088,8.088a1.723,1.723,0,0,1,0,2.429l-3.4,3.4Z" transform="translate(-10.404 -332.616)" fill="#2a92fa" fill-rule="evenodd"/><path d="M11.234,379.091l3.4-3.4a1.722,1.722,0,0,1,2.428,0h0l6.37,6.37a1.722,1.722,0,0,1,0,2.429l-3.4,3.4Z" transform="translate(-10.404 -332.616)" fill="#4eb1fc" fill-rule="evenodd"/><path d="M59.915,43.832a.965.965,0,0,1-1.364,0l-4.764-4.763a.046.046,0,0,1-.014-.036A.045.045,0,0,1,53.787,39L55.08,37.7a.052.052,0,0,1,.035-.013.049.049,0,0,1,.035.013l4.764,4.763a.967.967,0,0,1,0,1.365ZM50.2,36.717a2.209,2.209,0,0,1,2.694.336l.281.281.237-.237-.28-.281a2.208,2.208,0,0,1-.337-2.694A7.411,7.411,0,1,0,50.2,36.717Zm-22.387.3a.869.869,0,0,1-.868-.868V13.109a.869.869,0,0,1,.868-.868h3.295v.8a.8.8,0,0,0,.8.8H42.493a.8.8,0,0,0,.8-.8v-.8H46.59a.869.869,0,0,1,.868.868v8.269a9.07,9.07,0,0,0-1.038-.062,8.963,8.963,0,0,0-4.357,1.125H31.072a.8.8,0,1,0,0,1.605h8.891a9.043,9.043,0,0,0-1.953,3.034H31.072a.8.8,0,0,0,0,1.606h6.482a8.939,8.939,0,0,0-.048,3.033H31.072a.8.8,0,1,0,0,1.605H37.91a9.037,9.037,0,0,0,2.447,3.688H27.818Zm4.9-26.185a.215.215,0,0,1,.252-.212l2.039.357a.8.8,0,0,0,.941-.791V9.9a1.254,1.254,0,0,1,2.509,0v.282a.8.8,0,0,0,.94.791l2.039-.357a.215.215,0,0,1,.252.212v1.41H32.718v-1.41ZM54.471,44.02c.43-.567.506-1.11.2-1.455s-1.067-.494-1.987.035A86.229,86.229,0,0,1,38.565,48.86a10.545,10.545,0,0,1-3.927.627c-.3,0-.585-.008-.865-.02a18.808,18.808,0,0,1-6.656-1.4.8.8,0,0,1,.741-1.425,17.474,17.474,0,0,0,5.985,1.216c2.651.116,4.542-.336,5.062-1.21a1.49,1.49,0,0,0-1.335-2.245h-.03a27.367,27.367,0,0,1-11.4-2.579c-4.732-1.962-7.371-3.056-14.411,5.18L18.9,54.18c2.843-1.293,5.981-1.234,8.726-1.069.712.042,1.451.1,2.232.164a53.434,53.434,0,0,0,5.409.256c3.508-.077,5.671-1.09,8.572-2.626,4.1-2.17,9.753-5.724,10.636-6.885Zm-36.3,13-2.838,2.839L5.937,50.46l2.838-2.837a.921.921,0,0,1,1.3,0l8.1,8.1a.921.921,0,0,1,0,1.3ZM61.05,41.332l-4.763-4.763a1.652,1.652,0,0,0-1.563-.434l-.453-.453a.59.59,0,0,1-.092-.737,9.024,9.024,0,0,0-5.115-13.231v-8.6a2.477,2.477,0,0,0-2.474-2.474h-3.3a1.821,1.821,0,0,0-2.124-1.6l-1.175.205a2.86,2.86,0,0,0-5.566,0l-1.175-.205a1.819,1.819,0,0,0-2.124,1.6h-3.3a2.477,2.477,0,0,0-2.474,2.474V36.144a2.476,2.476,0,0,0,2.474,2.474H42.844a9.019,9.019,0,0,0,8.182-.522.592.592,0,0,1,.739.092l.45.452a1.765,1.765,0,0,0-.048.394,1.644,1.644,0,0,0,.484,1.171l.508.507a4.306,4.306,0,0,0-1.275.5,98.179,98.179,0,0,1-11.212,5.24A3.105,3.105,0,0,0,37.526,42.8a25.668,25.668,0,0,1-10.772-2.457c-2.531-1.05-4.718-1.957-7.309-1.329-2.608.632-5.381,2.788-8.956,6.971a2.528,2.528,0,0,0-2.85.5l-3.406,3.4a.8.8,0,0,0,0,1.135L14.762,61.557a.8.8,0,0,0,1.135,0L19.3,58.15a2.52,2.52,0,0,0,.582-2.651c2.159-.894,4.568-.97,7.643-.787.7.042,1.426.1,2.2.163a55.118,55.118,0,0,0,5.573.26c3.861-.085,6.184-1.17,9.287-2.813,3.161-1.673,9.9-5.673,11.163-7.332a3.613,3.613,0,0,0,.583-1.108l1.084,1.084a2.57,2.57,0,1,0,3.635-3.636ZM46.42,35.346a5.008,5.008,0,1,1,5.008-5.008A5.014,5.014,0,0,1,46.42,35.346Zm0-11.622a6.614,6.614,0,1,1-6.614,6.614A6.622,6.622,0,0,1,46.42,23.723ZM30.27,18.606a.8.8,0,0,0,.8.8H43.336a.8.8,0,1,0,0-1.606H31.073A.8.8,0,0,0,30.27,18.606Zm-15.7-8.692a3.747,3.747,0,1,1-3.747,3.747A3.752,3.752,0,0,1,14.567,9.914Zm0,9.1a5.352,5.352,0,1,1,5.352-5.353A5.358,5.358,0,0,1,14.567,19.014ZM6.5,12.844l1.137-.225a.8.8,0,0,0,.586-.479L9,10.251A.8.8,0,0,0,8.93,9.5l-.646-.963L9.439,7.377l.963.647a.806.806,0,0,0,.755.075l1.889-.783a.805.805,0,0,0,.48-.587l.224-1.137h1.635l.224,1.137a.8.8,0,0,0,.48.587l1.888.783a.8.8,0,0,0,.755-.076l.963-.646L20.85,8.533,20.2,9.5a.8.8,0,0,0-.075.755l.783,1.889a.8.8,0,0,0,.587.479l1.136.225v1.634L21.5,14.7a.8.8,0,0,0-.586.48L20.13,17.07a.8.8,0,0,0,.075.755l.646.963-1.155,1.156-.963-.646a.805.805,0,0,0-.755-.076l-1.888.784a.8.8,0,0,0-.48.586l-.224,1.137H13.749l-.224-1.137a.8.8,0,0,0-.48-.586l-1.889-.784a.8.8,0,0,0-.755.076l-.963.646L8.283,18.788l.646-.963A.8.8,0,0,0,9,17.07L8.22,15.183a.8.8,0,0,0-.586-.48L6.5,14.478V12.844ZM5.54,15.926a.8.8,0,0,1-.647-.788V12.184A.8.8,0,0,1,5.54,11.4L6.9,11.128l.454-1.094L6.583,8.88a.8.8,0,0,1,.1-1.015l2.089-2.09a.8.8,0,0,1,1.015-.1l1.154.774L12.034,6,12.3,4.634a.8.8,0,0,1,.788-.648h2.954a.8.8,0,0,1,.787.648L17.1,6l1.095.454,1.154-.774a.8.8,0,0,1,1.014.1l2.089,2.09a.8.8,0,0,1,.1,1.015l-.774,1.154.454,1.094,1.363.269a.8.8,0,0,1,.647.788v2.954a.8.8,0,0,1-.647.788l-1.363.268-.454,1.095.774,1.154a.8.8,0,0,1-.1,1.015l-2.089,2.09a.8.8,0,0,1-1.014.1l-1.154-.774-1.095.454-.269,1.363a.8.8,0,0,1-.787.648H13.09a.8.8,0,0,1-.788-.648l-.269-1.363-1.095-.454-1.154.774a.8.8,0,0,1-1.015-.1l-2.089-2.09a.8.8,0,0,1-.1-1.015l.774-1.154L6.9,16.194Z" transform="translate(-3.999 -3.986)" fill-rule="evenodd"/></g></g></g></svg>