<svg xmlns="http://www.w3.org/2000/svg" width="78.938" height="84.581" viewBox="0 0 78.938 84.581"><g transform="translate(-17.079)"><path d="M94.778,64.648H90.911V6.625a1.239,1.239,0,0,0-1.239-1.239H85.327a1.239,1.239,0,1,0,0,2.478h3.106V37h-35V7.864H79.354a1.239,1.239,0,0,0,0-2.478H52.19a1.239,1.239,0,0,0-1.239,1.239V64.648h-2.2V62.023a5.31,5.31,0,0,0-2.033-4.177l-4.236-47.8a1.239,1.239,0,0,0-.715-1.016S22.716-.016,21.268,0a4.189,4.189,0,0,0-1.691,8.021l14.5,6.4.834,8.771a1.239,1.239,0,1,0,2.467-.235l-.9-9.494a1.239,1.239,0,0,0-.733-1.016L25.993,8.144V4.487l14.086,6.5,4.057,45.771a7.074,7.074,0,0,0-3.5.369L37.938,28.8a1.239,1.239,0,1,0-2.467.235L38.32,59a5.287,5.287,0,0,0-.944,3.019v9.442A1.239,1.239,0,0,0,38.615,72.7h5.176a9.658,9.658,0,0,0,.82,3.331,6.35,6.35,0,1,0,9.08-3.331H79.661a9.659,9.659,0,0,0,.82,3.331,6.35,6.35,0,1,0,9.08-3.331h5.217a1.239,1.239,0,0,0,1.239-1.239V65.887a1.239,1.239,0,0,0-1.239-1.239ZM23.515,7.05l-2.938-1.3c-1.745-.619-.936-3.762,1.068-3.231.032-.043,1.769.779,1.869.822V7.05ZM73.961,39.481v9.635H67.9V39.481Zm-30.526,19.7a2.843,2.843,0,0,1,2.84,2.84v2.625H39.854V62.023a2.843,2.843,0,0,1,2.84-2.84Zm5.894,17.751a3.3,3.3,0,0,1-2.292-1.6,6.4,6.4,0,0,1-.762-2.631H49.33v4.23ZM50.568,82.1a3.876,3.876,0,0,1-3.861-3.588,6.075,6.075,0,0,0,3.312.952,4.873,4.873,0,0,0,.755-.051,1.239,1.239,0,0,0,1.033-1.222V74.563a3.872,3.872,0,0,1-1.239,7.54ZM85.2,76.935a3.313,3.313,0,0,1-2.3-1.606,6.416,6.416,0,0,1-.758-2.624H85.2ZM86.439,82.1a3.876,3.876,0,0,1-3.861-3.588,6.076,6.076,0,0,0,3.312.952,4.874,4.874,0,0,0,.755-.051,1.239,1.239,0,0,0,1.033-1.222V74.563a3.872,3.872,0,0,1-1.239,7.54Zm7.1-11.876H39.854v-3.1H57.563a1.239,1.239,0,0,0,0-2.478H53.429V39.481H65.423V50.354a1.239,1.239,0,0,0,1.239,1.239H75.2a1.239,1.239,0,0,0,1.239-1.239V39.481H88.433V64.648H63.386a1.239,1.239,0,0,0,0,2.478H93.539Z" transform="translate(0 0)" fill="#4a6d92"/><path d="M271.7,67.392a1.239,1.239,0,0,0-1.239-1.239h-8.056a1.239,1.239,0,1,0,0,2.478h8.056A1.239,1.239,0,0,0,271.7,67.392Z" transform="translate(-203.767 -55.225)" fill="#4a6d92"/><path d="M262.408,96.364a1.239,1.239,0,1,0,0,2.478h3.55a1.239,1.239,0,0,0,0-2.478Z" transform="translate(-203.767 -80.445)" fill="#4a6d92"/></g></svg>