<svg xmlns="http://www.w3.org/2000/svg" xmlns:xlink="http://www.w3.org/1999/xlink" width="166.122" height="166.123" viewBox="0 0 166.122 166.123"><defs><filter id="a" x="0" y="0" width="166.122" height="166.123" filterUnits="userSpaceOnUse"><feOffset dy="3" input="SourceAlpha"/><feGaussianBlur stdDeviation="3" result="b"/><feFlood flood-opacity="0.161"/><feComposite operator="in" in2="b"/><feComposite in="SourceGraphic"/></filter></defs><g transform="translate(-1116.631 -5282.877)"><g transform="matrix(1, 0, 0, 1, 1116.63, 5282.88)" filter="url(#a)"><g transform="translate(9 6)" fill="#ffb892" opacity="0.859"><path d="M 74.06109619140625 146.623046875 C 64.26475524902344 146.623046875 54.76223754882812 144.7047424316406 45.81749725341797 140.9214477539062 C 41.51827621459961 139.1030426025391 37.37155532836914 136.8522644042969 33.49253463745117 134.2316436767578 C 29.64997673034668 131.6356658935547 26.03655624389648 128.654296875 22.75265693664551 125.3704071044922 C 19.46873664855957 122.0864868164062 16.48737525939941 118.4730606079102 13.89139652252197 114.6305236816406 C 11.27077579498291 110.7514801025391 9.020015716552734 106.6047821044922 7.201596260070801 102.3055648803711 C 3.418296098709106 93.36082458496094 1.499996185302734 83.85830688476562 1.499996185302734 74.06196594238281 C 1.499996185302734 64.26476287841797 3.418296098709106 54.76224517822266 7.201596260070801 45.8175048828125 C 9.020015716552734 41.51828384399414 11.27077579498291 37.37156295776367 13.89139652252197 33.4925422668457 C 16.48737525939941 29.64998435974121 19.46873664855957 26.03656387329102 22.75265693664551 22.75266265869141 C 26.03655624389648 19.4687442779541 29.64997673034668 16.48738288879395 33.49253463745117 13.89140319824219 C 37.37155532836914 11.27078342437744 41.51827621459961 9.020023345947266 45.81749725341797 7.201603412628174 C 54.76223754882812 3.418303489685059 64.26475524902344 1.500003457069397 74.06109619140625 1.500003457069397 C 83.85743713378906 1.500003457069397 93.35995483398438 3.418303489685059 102.3046951293945 7.201603412628174 C 106.6039199829102 9.020023345947266 110.7506332397461 11.27078342437744 114.6296539306641 13.89140319824219 C 118.4722137451172 16.48738288879395 122.0856399536133 19.4687442779541 125.3695373535156 22.75266265869141 C 128.6534576416016 26.03656387329102 131.6348114013672 29.64998435974121 134.2307891845703 33.4925422668457 C 136.8514099121094 37.37156295776367 139.1021728515625 41.51828384399414 140.9205932617188 45.8175048828125 C 144.7039031982422 54.76224517822266 146.6221923828125 64.26476287841797 146.6221923828125 74.06110382080078 C 146.6221923828125 83.85830688476562 144.7039031982422 93.36082458496094 140.9205932617188 102.3055648803711 C 139.1021728515625 106.6047821044922 136.8514099121094 110.7514801025391 134.2307891845703 114.6305236816406 C 131.6348114013672 118.4730606079102 128.6534576416016 122.0864868164062 125.3695373535156 125.3704071044922 C 122.0856399536133 128.654296875 118.4722137451172 131.6356658935547 114.6296539306641 134.2316436767578 C 110.7506332397461 136.8522644042969 106.6039199829102 139.1030426025391 102.3046951293945 140.9214477539062 C 93.35995483398438 144.7047424316406 83.85743713378906 146.623046875 74.06109619140625 146.623046875 Z" stroke="none"/><path d="M 74.06109619140625 3 C 64.46659851074219 3 55.16065979003906 4.87841796875 46.40182495117188 8.583099365234375 C 42.19180297851562 10.36380004882812 38.13101196289062 12.56794738769531 34.33224487304688 15.13433837890625 C 30.56880187988281 17.6768798828125 27.02972412109375 20.59690093994141 23.81330108642578 23.81331634521484 C 20.59690856933594 27.02970886230469 17.67686462402344 30.56879425048828 15.13435363769531 34.33225250244141 C 12.56793212890625 38.13102722167969 10.36378479003906 42.19181823730469 8.583099365234375 46.40181732177734 C 4.878433227539062 55.16065216064453 2.999984741210938 64.46658325195312 2.999984741210938 74.06195831298828 C 2.999984741210938 83.65646362304688 4.878433227539062 92.96240234375 8.583099365234375 101.7212371826172 C 10.36378479003906 105.9312286376953 12.56793212890625 109.9920196533203 15.13435363769531 113.7907943725586 C 17.67686462402344 117.5542526245117 20.59690856933594 121.0933380126953 23.81330108642578 124.3097305297852 C 27.02972412109375 127.5261459350586 30.56880187988281 130.4461669921875 34.33224487304688 132.9887084960938 C 38.13101196289062 135.5551147460938 42.19180297851562 137.7592468261719 46.40182495117188 139.5399475097656 C 55.16065979003906 143.24462890625 64.46659851074219 145.123046875 74.06109619140625 145.123046875 C 83.65561676025391 145.123046875 92.96153259277344 143.24462890625 101.7203674316406 139.5399475097656 C 105.9303894042969 137.7592468261719 109.9911804199219 135.5551147460938 113.7899475097656 132.9887084960938 C 117.5533905029297 130.4461669921875 121.0924682617188 127.5261459350586 124.3088836669922 124.3097305297852 C 127.5252838134766 121.0933380126953 130.4453125 117.5542526245117 132.9878540039062 113.7907943725586 C 135.5542449951172 109.9920196533203 137.7583923339844 105.9312286376953 139.5390777587891 101.7212371826172 C 143.2437591552734 92.96240234375 145.1221771240234 83.65646362304688 145.1221771240234 74.06108856201172 C 145.1221771240234 64.46658325195312 143.2437591552734 55.16065216064453 139.5390777587891 46.40181732177734 C 137.7583923339844 42.19181823730469 135.5542449951172 38.13102722167969 132.9878540039062 34.33225250244141 C 130.4453125 30.56879425048828 127.5252838134766 27.02970886230469 124.3088836669922 23.81331634521484 C 121.0924682617188 20.59690093994141 117.5533905029297 17.6768798828125 113.7899475097656 15.13433837890625 C 109.9911804199219 12.56794738769531 105.9303894042969 10.36380004882812 101.7203674316406 8.583099365234375 C 92.96153259277344 4.87841796875 83.65561676025391 3 74.06109619140625 3 M 74.06109619140625 0 C 114.9639282226562 0 148.1221771240234 33.15827178955078 148.1221771240234 74.06108856201172 L 148.1221771240234 74.06195831298828 C 148.1221771240234 114.9647750854492 114.9639282226562 148.123046875 74.06109619140625 148.123046875 C 33.15828704833984 148.123046875 -1.52587890625e-05 114.9647750854492 -1.52587890625e-05 74.06195831298828 L -1.52587890625e-05 74.06108856201172 C -1.52587890625e-05 33.15827178955078 33.15828704833984 0 74.06109619140625 0 Z" stroke="none" fill="#fff"/></g></g><g transform="translate(1159.11 5319.815)"><g transform="translate(17.053 1.263)"><path d="M170.8,7.5H117.157a.842.842,0,0,0-.842.842V31.694h5.524a4.128,4.128,0,0,1,.288,8.246v5.121h0a1.683,1.683,0,0,1,1.428,1.663V57.18a1.683,1.683,0,0,1-1.428,1.663h0v5.121a4.128,4.128,0,0,1-.288,8.246h-5.524v6.913H127.94a1.684,1.684,0,0,1,1.684,1.684v3.352s0,0,0,0h1.283a1.684,1.684,0,0,1,1.684,1.684v5.372h39.05V8.342A.842.842,0,0,0,170.8,7.5Z" transform="translate(-116.315 -7.5)" fill="#fff3de"/></g><g transform="translate(17.053 1.263)"><path d="M121.839,31.694c.05,0,.1,0,.15,0V8.342a.842.842,0,0,1,.842-.842h-5.674a.842.842,0,0,0-.842.842V31.694Z" transform="translate(-116.315 -7.5)" fill="#ffe5c2"/><path d="M121.839,391.631h-5.524v6.913h5.674v-6.916C121.939,391.629,121.889,391.631,121.839,391.631Z" transform="translate(-116.315 -326.921)" fill="#ffe5c2"/></g><g transform="translate(1.263 25.457)"><g transform="translate(23.03 17.377)"><path d="M159.3,254.29h7.8v5.76h-7.8Z" transform="translate(-159.296 -254.29)" fill="#883f2e"/><path d="M237.5,254.29h11.137v5.76H237.5Z" transform="translate(-224.328 -254.29)" fill="#883f2e"/></g><g transform="translate(23.03 20.361)"><path d="M159.3,272h7.8v2.777h-7.8Z" transform="translate(-159.296 -272)" fill="#6d3326"/><path d="M237.5,272h11.137v2.777H237.5Z" transform="translate(-224.328 -272)" fill="#6d3326"/></g><g transform="translate(47.34 16.033)"><path d="M334.915,250.535a4.224,4.224,0,0,1-4.224,4.224H304.576a.96.96,0,0,1-.96-.96V247.27a.96.96,0,0,1,.96-.96H330.69A4.225,4.225,0,0,1,334.915,250.535Z" transform="translate(-303.616 -246.31)" fill="#ca6e59"/></g><g transform="translate(47.34 16.033)"><path d="M309.357,251.143a.96.96,0,0,1-.96-.96V246.31h-3.821a.96.96,0,0,0-.96.96V253.8a.96.96,0,0,0,.96.96H330.69a4.225,4.225,0,0,0,4.18-3.616Z" transform="translate(-303.616 -246.31)" fill="#bb5d4c"/></g><g transform="translate(30.827 16.033)"><path d="M210.961,247.153v6.764a.842.842,0,0,1-.842.842h-3.692a.842.842,0,0,1-.842-.842v-6.764a.842.842,0,0,1,.842-.842h3.692A.842.842,0,0,1,210.961,247.153Z" transform="translate(-205.585 -246.311)" fill="#ca6e59"/></g><g transform="translate(30.827 16.033)"><path d="M208.027,253.917v-6.764a.842.842,0,0,1,.842-.842h-2.442a.842.842,0,0,0-.842.842v6.764a.842.842,0,0,0,.842.842h2.442A.842.842,0,0,1,208.027,253.917Z" transform="translate(-205.585 -246.311)" fill="#bb5d4c"/></g><g transform="translate(10.465 8.246)"><path d="M95.584,312.319H84.959a1.7,1.7,0,0,1-.256-.022v5.121c.1-.007.191-.011.288-.011H95.552c.1,0,.193,0,.288.011V312.3A1.671,1.671,0,0,1,95.584,312.319Z" transform="translate(-84.703 -293.394)" fill="#883f2e"/><path d="M84.959,312.319a1.7,1.7,0,0,1-.256-.022v5.121c.1-.007.191-.011.288-.011h3.954v-5.089H84.959Z" transform="translate(-84.703 -293.394)" fill="#6d3326"/><path d="M84.959,205.178H95.584a1.694,1.694,0,0,1,.256.022v-5.121c-.1.007-.191.011-.288.011H84.991c-.1,0-.193,0-.288-.011V205.2A1.7,1.7,0,0,1,84.959,205.178Z" transform="translate(-84.703 -200.079)" fill="#883f2e"/><path d="M84.959,205.178h3.985v-5.089H84.991c-.1,0-.193,0-.288-.011V205.2A1.715,1.715,0,0,1,84.959,205.178Z" transform="translate(-84.703 -200.078)" fill="#6d3326"/></g><g transform="translate(9.037 13.345)"><path d="M90.218,232.037v10.456a1.684,1.684,0,0,1-1.684,1.684H77.909a1.684,1.684,0,0,1-1.684-1.684V232.037a1.684,1.684,0,0,1,1.684-1.684H88.534A1.684,1.684,0,0,1,90.218,232.037Z" transform="translate(-76.225 -230.352)" fill="#ca6e59"/></g><g transform="translate(9.037 13.345)"><path d="M81.914,242.493V232.036a1.684,1.684,0,0,1,1.684-1.685H77.909a1.684,1.684,0,0,0-1.684,1.685v10.456a1.684,1.684,0,0,0,1.684,1.685H83.6A1.684,1.684,0,0,1,81.914,242.493Z" transform="translate(-76.225 -230.352)" fill="#bb5d4c"/></g><g transform="translate(0 47.428)"><path d="M66.318,437.894a1.725,1.725,0,0,0,.009-.173v-3.352a1.684,1.684,0,0,0-1.684-1.684H41.879a1.684,1.684,0,0,0-1.684,1.684v3.352a1.723,1.723,0,0,0,.009.173Z" transform="translate(-37.227 -432.685)" fill="#ca6e59"/><path d="M45.9,437.894a1.722,1.722,0,0,1-.009-.173v-3.352a1.684,1.684,0,0,1,1.684-1.684H41.879a1.684,1.684,0,0,0-1.684,1.684v3.352a1.724,1.724,0,0,0,.009.173Z" transform="translate(-37.227 -432.685)" fill="#bb5d4c"/><g transform="translate(0 5.04)"><path d="M54.645,469.665H23.42a.842.842,0,0,1-.842-.842v-4.53a1.684,1.684,0,0,1,1.684-1.685h28.7a1.684,1.684,0,0,1,1.684,1.685Z" transform="translate(-22.578 -462.608)" fill="#883f2e"/></g><g transform="translate(0 5.04)"><path d="M28.208,468.822v-4.53a1.684,1.684,0,0,1,1.684-1.685h-5.63a1.684,1.684,0,0,0-1.684,1.685v4.53a.842.842,0,0,0,.842.842h5.63A.842.842,0,0,1,28.208,468.822Z" transform="translate(-22.578 -462.608)" fill="#6d3326"/></g></g><g transform="translate(6.625)"><g transform="translate(0 32.259)"><path d="M80.723,346.761a4.128,4.128,0,0,1-4.128,4.128H66.033a4.128,4.128,0,0,1,0-8.257H76.594A4.128,4.128,0,0,1,80.723,346.761Z" transform="translate(-61.905 -342.633)" fill="#ca6e59"/></g><g transform="translate(0 32.259)"><path d="M67.528,346.761a4.128,4.128,0,0,1,4.128-4.128H66.033a4.128,4.128,0,0,0,0,8.257h5.623A4.128,4.128,0,0,1,67.528,346.761Z" transform="translate(-61.905 -342.633)" fill="#bb5d4c"/></g><g transform="translate(0)"><path d="M80.723,155.256a4.128,4.128,0,0,1-4.128,4.128H66.033a4.128,4.128,0,0,1,0-8.257H76.594A4.128,4.128,0,0,1,80.723,155.256Z" transform="translate(-61.905 -151.128)" fill="#ca6e59"/></g><path d="M67.528,155.256a4.128,4.128,0,0,1,4.128-4.128H66.033a4.128,4.128,0,0,0,0,8.257h5.623A4.128,4.128,0,0,1,67.528,155.256Z" transform="translate(-61.905 -151.128)" fill="#bb5d4c"/></g></g><g transform="translate(32.897 9.114)"><ellipse cx="11.82" cy="11.82" rx="11.82" ry="11.82" fill="#4fc123"/><g transform="translate(0)"><path d="M216.037,65.927a11.823,11.823,0,0,1,8.988-11.476,11.82,11.82,0,1,0,0,22.952A11.823,11.823,0,0,1,216.037,65.927Z" transform="translate(-210.372 -54.107)" fill="#47a920"/></g></g><g transform="translate(0 0)"><path d="M90.756,40.227H88.722V18.361a1.264,1.264,0,0,0-1.3-1.263A1.3,1.3,0,0,0,86.2,18.414V40.227H77.728a1.263,1.263,0,1,0,0,2.527H90.756a2.961,2.961,0,1,1,0,5.922H64.945V42.754h6.887a1.263,1.263,0,1,0,0-2.527h-7.19A2.226,2.226,0,0,0,62.6,41.571H53.664A2.107,2.107,0,0,0,51.7,40.227H48.011a2.108,2.108,0,0,0-1.961,1.344H40.635V40.487a2.946,2.946,0,0,0-1.428-2.521V34.749a5.391,5.391,0,0,0-1.551-10.555H33.394V2.527H86.2v9.938a1.264,1.264,0,0,0,1.3,1.263,1.3,1.3,0,0,0,1.225-1.316V2.106A2.106,2.106,0,0,0,86.616,0H32.973a2.106,2.106,0,0,0-2.106,2.106V24.194H27.094a5.391,5.391,0,0,0-1.551,10.555v3.217a2.946,2.946,0,0,0-1.428,2.521V50.943a2.946,2.946,0,0,0,1.428,2.521v3.217a5.391,5.391,0,0,0,1.551,10.555h3.773v4.386H20.993a2.951,2.951,0,0,0-2.948,2.948v2.093h-.02a2.951,2.951,0,0,0-2.948,2.948v4.53a2.108,2.108,0,0,0,2.106,2.106H86.616a2.106,2.106,0,0,0,2.106-2.106V51.2h2.034a5.488,5.488,0,0,0,0-10.975ZM53.808,44.1h8.61v3.234h-8.61Zm-5.376-1.344h2.85v5.922h-2.85Zm-7.8,1.344h5.271v3.234H40.635ZM24.229,29.586a2.868,2.868,0,0,1,2.865-2.865H37.655a2.865,2.865,0,0,1,0,5.73H27.094A2.868,2.868,0,0,1,24.229,29.586Zm2.833,21.779a.422.422,0,0,1-.421-.421V40.487a.422.422,0,0,1,.421-.421H37.687a.422.422,0,0,1,.421.421V50.943a.422.422,0,0,1-.421.421Zm9.617,2.527v2.562H28.07V53.891ZM28.07,37.539V34.977h8.61v2.562Zm-.975,27.17a2.865,2.865,0,1,1,0-5.73H37.655a2.865,2.865,0,1,1,0,5.73Zm20.05,19.01H17.6V79.61a.422.422,0,0,1,.421-.421h7.82a1.263,1.263,0,1,0,0-2.527H20.572V74.57a.422.422,0,0,1,.421-.421H43.756a.422.422,0,0,1,.421.421v2.093H31.741a1.263,1.263,0,1,0,0,2.527H46.724a.422.422,0,0,1,.421.421Zm39.051,0H49.671V79.61a2.951,2.951,0,0,0-2.948-2.948H46.7V74.57a2.951,2.951,0,0,0-2.948-2.948H33.394V67.236h4.261a5.391,5.391,0,0,0,1.551-10.555V53.464a2.946,2.946,0,0,0,1.428-2.521V49.858H46.05A2.107,2.107,0,0,0,48.011,51.2H51.7a2.108,2.108,0,0,0,1.961-1.344H62.6A2.226,2.226,0,0,0,64.642,51.2H86.2V83.719Z" transform="translate(-15.078 0)"/><path d="M202.872,59.69a13.083,13.083,0,1,0,13.083-13.083A13.1,13.1,0,0,0,202.872,59.69Zm23.64,0a10.557,10.557,0,1,1-10.557-10.557A10.568,10.568,0,0,1,226.512,59.69Z" transform="translate(-171.238 -38.756)"/><path d="M248.5,103.667a1.263,1.263,0,1,0-1.787,1.787l3.886,3.886a1.264,1.264,0,0,0,1.787,0l6.023-6.023a1.263,1.263,0,0,0-1.787-1.787l-5.13,5.13Z" transform="translate(-207.387 -84.119)"/><path d="M243.681,328.332a1.263,1.263,0,0,0,1.263,1.263h23.234a1.263,1.263,0,0,0,0-2.527H244.944A1.263,1.263,0,0,0,243.681,328.332Z" transform="translate(-205.173 -271.975)"/><path d="M323.742,363.546H311.763a1.263,1.263,0,0,0,0,2.527h11.978a1.263,1.263,0,1,0,0-2.527Z" transform="translate(-260.737 -302.307)"/><path d="M244.944,366.073h6.876a1.263,1.263,0,0,0,0-2.527h-6.876a1.263,1.263,0,1,0,0,2.527Z" transform="translate(-205.173 -302.307)"/><path d="M268.177,400.023H244.943a1.263,1.263,0,0,0,0,2.527h23.234a1.263,1.263,0,1,0,0-2.527Z" transform="translate(-205.172 -332.64)"/><path d="M352.846,436.5h-6.083a1.263,1.263,0,1,0,0,2.527h6.083a1.263,1.263,0,1,0,0-2.527Z" transform="translate(-289.841 -362.972)"/><path d="M258.221,436.5H244.944a1.263,1.263,0,1,0,0,2.527h13.277a1.263,1.263,0,0,0,0-2.527Z" transform="translate(-205.173 -362.972)"/></g></g></g></svg>