<svg xmlns="http://www.w3.org/2000/svg" xmlns:xlink="http://www.w3.org/1999/xlink" width="340" height="579.334" viewBox="0 0 340 579.334"><defs><clipPath id="a"><path d="M270.787,0H569.213C580.693,0,590,7.646,590,17.077V562.257c0,9.431-9.307,17.077-20.787,17.077H270.787c-11.48,0-20.787-7.646-20.787-17.077V17.077C250,7.646,259.307,0,270.787,0Z" transform="translate(-7067.652 -11080.661)" fill="#dbdbdb" opacity="0.67"/></clipPath><linearGradient id="b" x1="0.5" x2="0.5" y2="1" gradientUnits="objectBoundingBox"><stop offset="0" stop-color="#f7f7f7"/><stop offset="1" stop-color="#d8d8d8" stop-opacity="0"/></linearGradient><linearGradient id="c" x1="0.5" x2="0.5" y2="1" gradientUnits="objectBoundingBox"><stop offset="0" stop-color="#fff"/><stop offset="1" stop-color="#fff" stop-opacity="0"/></linearGradient><clipPath id="d"><rect width="218.751" height="100.049" fill="#f5eec2" stroke="#707070" stroke-width="1"/></clipPath><clipPath id="e"><rect width="218.751" height="100.049" transform="translate(0)" fill="#a9b2c1" stroke="#707070" stroke-width="1"/></clipPath><clipPath id="f"><rect width="21.329" height="18.792" fill="none" stroke="#f6de44" stroke-width="1"/></clipPath><filter id="i" x="19.081" y="18.988" width="245.073" height="62" filterUnits="userSpaceOnUse"><feOffset dy="3" input="SourceAlpha"/><feGaussianBlur stdDeviation="3" result="j"/><feFlood flood-opacity="0.161"/><feComposite operator="in" in2="j"/><feComposite in="SourceGraphic"/></filter><filter id="k" x="107.493" y="339.56" width="191.945" height="62" filterUnits="userSpaceOnUse"><feOffset dy="3" input="SourceAlpha"/><feGaussianBlur stdDeviation="3" result="l"/><feFlood flood-opacity="0.161"/><feComposite operator="in" in2="l"/><feComposite in="SourceGraphic"/></filter><clipPath id="m"><rect width="21.329" height="18.792" fill="none" stroke="#fe8849" stroke-width="1"/></clipPath><linearGradient id="n" x1="0.5" x2="0.5" y2="1" gradientUnits="objectBoundingBox"><stop offset="0" stop-color="#fff"/><stop offset="1" stop-color="#f8f8f8"/></linearGradient><filter id="o" x="70.979" y="245.223" width="75.786" height="75.786" filterUnits="userSpaceOnUse"><feOffset dy="3" input="SourceAlpha"/><feGaussianBlur stdDeviation="3" result="p"/><feFlood flood-opacity="0.161"/><feComposite operator="in" in2="p"/><feComposite in="SourceGraphic"/></filter><filter id="r" x="99.871" y="174.814" width="175.545" height="62" filterUnits="userSpaceOnUse"><feOffset dy="3" input="SourceAlpha"/><feGaussianBlur stdDeviation="3" result="s"/><feFlood flood-opacity="0.161"/><feComposite operator="in" in2="s"/><feComposite in="SourceGraphic"/></filter><filter id="v" x="70.978" y="80.053" width="75.786" height="75.786" filterUnits="userSpaceOnUse"><feOffset dy="3" input="SourceAlpha"/><feGaussianBlur stdDeviation="3" result="w"/><feFlood flood-opacity="0.161"/><feComposite operator="in" in2="w"/><feComposite in="SourceGraphic"/></filter><filter id="y" x="117.156" y="501.661" width="191.945" height="62" filterUnits="userSpaceOnUse"><feOffset dy="3" input="SourceAlpha"/><feGaussianBlur stdDeviation="3" result="z"/><feFlood flood-opacity="0.161"/><feComposite operator="in" in2="z"/><feComposite in="SourceGraphic"/></filter><filter id="ac" x="70.978" y="409.967" width="75.786" height="75.786" filterUnits="userSpaceOnUse"><feOffset dy="3" input="SourceAlpha"/><feGaussianBlur stdDeviation="3" result="ad"/><feFlood flood-opacity="0.161"/><feComposite operator="in" in2="ad"/><feComposite in="SourceGraphic"/></filter></defs><g transform="translate(6982.585 8921.611)"><g transform="translate(-164.933 2159.049)" clip-path="url(#a)"><g transform="translate(-8734.661 -10370.086) rotate(-90)"><g transform="translate(136.014 1900.129)"><rect width="643.897" height="414.775" opacity="0.44" fill="url(#b)"/><rect width="643.897" height="64.373" fill="url(#c)"/></g><g transform="translate(135.975 2227.905) rotate(-90)" opacity="0.25" clip-path="url(#d)"><g transform="translate(5.087 -115.31)"><path d="M105.984,0a106.767,106.767,0,0,0-21.36,2.153A105.4,105.4,0,0,0,46.727,18.1a106.293,106.293,0,0,0-38.4,46.63A105.453,105.453,0,0,0,2.153,84.624a107.019,107.019,0,0,0,0,42.719,105.4,105.4,0,0,0,15.947,37.9,106.293,106.293,0,0,0,46.63,38.4,105.454,105.454,0,0,0,19.894,6.176,107.018,107.018,0,0,0,42.719,0,105.4,105.4,0,0,0,37.9-15.947,106.294,106.294,0,0,0,38.4-46.63,105.455,105.455,0,0,0,6.176-19.894,107.018,107.018,0,0,0,0-42.719,105.4,105.4,0,0,0-15.947-37.9,106.293,106.293,0,0,0-46.63-38.4,105.454,105.454,0,0,0-19.894-6.176A106.767,106.767,0,0,0,105.984,0Zm-.395,161.67a55.7,55.7,0,0,1-11.143-1.123,54.99,54.99,0,0,1-19.771-8.32A55.454,55.454,0,0,1,54.643,127.9a55.011,55.011,0,0,1-3.222-10.379,55.831,55.831,0,0,1,0-22.286,54.988,54.988,0,0,1,8.32-19.771A55.452,55.452,0,0,1,84.067,55.432,55.012,55.012,0,0,1,94.446,52.21a55.831,55.831,0,0,1,22.286,0A54.989,54.989,0,0,1,136.5,60.53a55.453,55.453,0,0,1,20.032,24.327,55.011,55.011,0,0,1,3.222,10.379,55.831,55.831,0,0,1,0,22.286,54.989,54.989,0,0,1-8.32,19.771,55.453,55.453,0,0,1-24.327,20.033,55.01,55.01,0,0,1-10.379,3.222A55.7,55.7,0,0,1,105.589,161.67Z" fill="#f5eec2"/></g></g><g transform="translate(779.911 2062.555) rotate(90)" opacity="0.25" clip-path="url(#e)"><g transform="translate(5.087 -115.31)"><path d="M105.984,0a106.767,106.767,0,0,0-21.36,2.153A105.4,105.4,0,0,0,46.727,18.1a106.293,106.293,0,0,0-38.4,46.63A105.453,105.453,0,0,0,2.153,84.624a107.019,107.019,0,0,0,0,42.719,105.4,105.4,0,0,0,15.947,37.9,106.293,106.293,0,0,0,46.63,38.4,105.454,105.454,0,0,0,19.894,6.176,107.018,107.018,0,0,0,42.719,0,105.4,105.4,0,0,0,37.9-15.947,106.294,106.294,0,0,0,38.4-46.63,105.455,105.455,0,0,0,6.176-19.894,107.018,107.018,0,0,0,0-42.719,105.4,105.4,0,0,0-15.947-37.9,106.293,106.293,0,0,0-46.63-38.4,105.454,105.454,0,0,0-19.894-6.176A106.767,106.767,0,0,0,105.984,0Zm-.395,161.67a55.7,55.7,0,0,1-11.143-1.123,54.99,54.99,0,0,1-19.771-8.32A55.454,55.454,0,0,1,54.643,127.9a55.011,55.011,0,0,1-3.222-10.379,55.831,55.831,0,0,1,0-22.286,54.988,54.988,0,0,1,8.32-19.771A55.452,55.452,0,0,1,84.067,55.432,55.012,55.012,0,0,1,94.446,52.21a55.831,55.831,0,0,1,22.286,0A54.989,54.989,0,0,1,136.5,60.53a55.453,55.453,0,0,1,20.032,24.327,55.011,55.011,0,0,1,3.222,10.379,55.831,55.831,0,0,1,0,22.286,54.989,54.989,0,0,1-8.32,19.771,55.453,55.453,0,0,1-24.327,20.033,55.01,55.01,0,0,1-10.379,3.222A55.7,55.7,0,0,1,105.589,161.67Z" fill="#a9b2c1"/></g></g></g></g><g transform="translate(-6944.685 -8797.945) rotate(-90)"><path d="M0,0V32.675" transform="translate(10.664 0)" fill="none" stroke="#f6de44" stroke-width="2"/><g transform="translate(0 16.892)"><g clip-path="url(#f)"><path d="M20.668,0A21.249,21.249,0,0,0,10.334,18.241,21.248,21.248,0,0,0,0,0" transform="translate(0.33 0.551)" fill="none" stroke="#f6de44" stroke-miterlimit="10" stroke-width="2"/></g></g></g><g transform="translate(-6945.441 -8631.945) rotate(-90)"><path d="M0,0V32.675" transform="translate(10.664 0)" fill="none" stroke="#f6de44" stroke-width="2"/><g transform="translate(0 16.892)"><g clip-path="url(#f)"><path d="M20.668,0A21.249,21.249,0,0,0,10.334,18.241,21.248,21.248,0,0,0,0,0" transform="translate(0.33 0.551)" fill="none" stroke="#f6de44" stroke-miterlimit="10" stroke-width="2"/></g></g></g><g transform="translate(-6945.441 -8465.945) rotate(-90)"><path d="M0,0V32.675" transform="translate(10.664 0)" fill="none" stroke="#f6de44" stroke-width="2"/><g transform="translate(0 16.892)"><g clip-path="url(#f)"><path d="M20.668,0A21.249,21.249,0,0,0,10.334,18.241,21.248,21.248,0,0,0,0,0" transform="translate(0.33 0.551)" fill="none" stroke="#f6de44" stroke-miterlimit="10" stroke-width="2"/></g></g></g><path d="M-8086.715-8736.937h377.723" transform="translate(1792.253 -16562.924) rotate(-90)" fill="none" stroke="#f6de44" stroke-width="2"/><g transform="matrix(1, 0, 0, 1, -6982.58, -8921.61)" filter="url(#i)"><rect width="227.073" height="44" rx="17" transform="translate(28.08 24.99)" fill="#fe8849"/></g><path d="M8.643,17.27A1.5,1.5,0,0,0,8.057,16a7.685,7.685,0,0,0-2.109-.937,14.953,14.953,0,0,1-2.412-.972,3.941,3.941,0,0,1-2.422-3.525A3.434,3.434,0,0,1,1.763,8.5,4.236,4.236,0,0,1,3.628,7.094a7.021,7.021,0,0,1,2.729-.508,6.39,6.39,0,0,1,2.715.552A4.323,4.323,0,0,1,10.923,8.7a4.076,4.076,0,0,1,.659,2.285H8.652a1.917,1.917,0,0,0-.615-1.519A2.529,2.529,0,0,0,6.309,8.92a2.7,2.7,0,0,0-1.67.454,1.432,1.432,0,0,0-.6,1.2,1.372,1.372,0,0,0,.7,1.162,7.889,7.889,0,0,0,2.056.879,8.882,8.882,0,0,1,3.643,1.865,3.715,3.715,0,0,1,1.143,2.773,3.422,3.422,0,0,1-1.4,2.9,6.113,6.113,0,0,1-3.76,1.05,7.26,7.26,0,0,1-2.988-.6,4.729,4.729,0,0,1-2.056-1.646,4.214,4.214,0,0,1-.708-2.422H3.613q0,2.354,2.813,2.354a2.736,2.736,0,0,0,1.631-.425A1.382,1.382,0,0,0,8.643,17.27Zm9.6,3.926a5.187,5.187,0,0,1-3.784-1.426,5.068,5.068,0,0,1-1.46-3.8V15.7a6.383,6.383,0,0,1,.615-2.847,4.515,4.515,0,0,1,1.743-1.934,4.893,4.893,0,0,1,2.573-.679,4.385,4.385,0,0,1,3.413,1.367,5.555,5.555,0,0,1,1.245,3.877v1.152H15.859a2.622,2.622,0,0,0,.825,1.66,2.5,2.5,0,0,0,1.743.625,3.046,3.046,0,0,0,2.549-1.182l1.387,1.553a4.237,4.237,0,0,1-1.719,1.4A5.639,5.639,0,0,1,18.242,21.2Zm-.322-8.672a1.767,1.767,0,0,0-1.362.566,2.926,2.926,0,0,0-.669,1.621h3.926v-.225a2.086,2.086,0,0,0-.508-1.45A1.824,1.824,0,0,0,17.92,12.523ZM27.168,21H24.336V6h2.832Zm7.188.2a5.187,5.187,0,0,1-3.784-1.426,5.068,5.068,0,0,1-1.46-3.8V15.7a6.383,6.383,0,0,1,.615-2.847,4.515,4.515,0,0,1,1.743-1.934,4.893,4.893,0,0,1,2.573-.679,4.385,4.385,0,0,1,3.413,1.367A5.555,5.555,0,0,1,38.7,15.482v1.152H31.973a2.622,2.622,0,0,0,.825,1.66,2.5,2.5,0,0,0,1.743.625,3.046,3.046,0,0,0,2.549-1.182l1.387,1.553a4.237,4.237,0,0,1-1.719,1.4A5.639,5.639,0,0,1,34.355,21.2Zm-.322-8.672a1.767,1.767,0,0,0-1.362.566A2.926,2.926,0,0,0,32,14.711h3.926v-.225a2.086,2.086,0,0,0-.508-1.45A1.824,1.824,0,0,0,34.033,12.523ZM44.7,18.92a1.851,1.851,0,0,0,1.27-.43,1.506,1.506,0,0,0,.508-1.143h2.646a3.62,3.62,0,0,1-.586,1.968A3.866,3.866,0,0,1,46.958,20.7a4.936,4.936,0,0,1-2.212.493,4.587,4.587,0,0,1-3.574-1.44,5.7,5.7,0,0,1-1.309-3.979V15.59a5.635,5.635,0,0,1,1.3-3.9,4.534,4.534,0,0,1,3.564-1.455,4.444,4.444,0,0,1,3.179,1.128,3.994,3.994,0,0,1,1.216,3H46.475a1.923,1.923,0,0,0-.508-1.333,1.892,1.892,0,0,0-2.778.205,4.155,4.155,0,0,0-.5,2.329v.293a4.207,4.207,0,0,0,.5,2.344A1.722,1.722,0,0,0,44.7,18.92Zm10.43,0a1.851,1.851,0,0,0,1.27-.43,1.506,1.506,0,0,0,.508-1.143h2.646a3.62,3.62,0,0,1-.586,1.968A3.866,3.866,0,0,1,57.388,20.7a4.936,4.936,0,0,1-2.212.493,4.587,4.587,0,0,1-3.574-1.44,5.7,5.7,0,0,1-1.309-3.979V15.59a5.635,5.635,0,0,1,1.3-3.9,4.534,4.534,0,0,1,3.564-1.455,4.444,4.444,0,0,1,3.179,1.128,3.994,3.994,0,0,1,1.216,3H56.9a1.923,1.923,0,0,0-.508-1.333,1.892,1.892,0,0,0-2.778.205,4.155,4.155,0,0,0-.5,2.329v.293a4.207,4.207,0,0,0,.5,2.344A1.722,1.722,0,0,0,55.127,18.92ZM64.141,21H61.309V10.434h2.832Zm-3-13.3a1.39,1.39,0,0,1,.425-1.045,1.831,1.831,0,0,1,2.31,0,1.382,1.382,0,0,1,.43,1.045,1.386,1.386,0,0,1-.435,1.055,1.81,1.81,0,0,1-2.295,0A1.386,1.386,0,0,1,61.143,7.7Zm4.883,7.92a6.266,6.266,0,0,1,.605-2.8,4.432,4.432,0,0,1,1.743-1.9,5.086,5.086,0,0,1,2.642-.674,4.812,4.812,0,0,1,3.491,1.309A5.252,5.252,0,0,1,76.016,15.1l.02.723a5.523,5.523,0,0,1-1.357,3.9,5.261,5.261,0,0,1-7.29,0,5.62,5.62,0,0,1-1.362-3.984Zm2.822.205a3.939,3.939,0,0,0,.566,2.3,2.037,2.037,0,0,0,3.223.01,4.31,4.31,0,0,0,.576-2.515,3.9,3.9,0,0,0-.576-2.285,1.874,1.874,0,0,0-1.621-.811,1.843,1.843,0,0,0-1.6.806A4.383,4.383,0,0,0,68.848,15.824ZM71.572,6h3.076L71.943,9.027H69.648Zm8.8,4.434.088,1.221A3.689,3.689,0,0,1,83.5,10.238a3.066,3.066,0,0,1,2.5.986,4.6,4.6,0,0,1,.84,2.949V21H84.014V14.242a1.831,1.831,0,0,0-.391-1.3,1.749,1.749,0,0,0-1.3-.405,1.942,1.942,0,0,0-1.787,1.016V21H77.715V10.434Zm13.145,5.205A6.368,6.368,0,0,1,94.624,11.7a3.6,3.6,0,0,1,3.032-1.465,3.236,3.236,0,0,1,2.549,1.152V6h2.832V21h-2.549l-.137-1.123A3.321,3.321,0,0,1,97.637,21.2a3.587,3.587,0,0,1-2.993-1.47A6.573,6.573,0,0,1,93.516,15.639Zm2.822.205a4.16,4.16,0,0,0,.518,2.275,1.687,1.687,0,0,0,1.5.791,1.889,1.889,0,0,0,1.846-1.1v-4.17a1.862,1.862,0,0,0-1.826-1.1Q96.338,12.533,96.338,15.844Zm13.75,5.352A5.187,5.187,0,0,1,106.3,19.77a5.068,5.068,0,0,1-1.46-3.8V15.7a6.383,6.383,0,0,1,.615-2.847,4.515,4.515,0,0,1,1.743-1.934,4.893,4.893,0,0,1,2.573-.679,4.385,4.385,0,0,1,3.413,1.367,5.555,5.555,0,0,1,1.245,3.877v1.152h-6.729a2.622,2.622,0,0,0,.825,1.66,2.5,2.5,0,0,0,1.743.625,3.046,3.046,0,0,0,2.549-1.182l1.387,1.553a4.237,4.237,0,0,1-1.719,1.4A5.639,5.639,0,0,1,110.088,21.2Zm-.322-8.672a1.767,1.767,0,0,0-1.362.566,2.926,2.926,0,0,0-.669,1.621h3.926v-.225a2.086,2.086,0,0,0-.508-1.45A1.824,1.824,0,0,0,109.766,12.523ZM125.879,21.2a5.187,5.187,0,0,1-3.784-1.426,5.068,5.068,0,0,1-1.46-3.8V15.7a6.383,6.383,0,0,1,.615-2.847,4.515,4.515,0,0,1,1.743-1.934,4.893,4.893,0,0,1,2.573-.679,4.385,4.385,0,0,1,3.413,1.367,5.555,5.555,0,0,1,1.245,3.877v1.152H123.5a2.622,2.622,0,0,0,.825,1.66,2.5,2.5,0,0,0,1.743.625,3.046,3.046,0,0,0,2.549-1.182L130,19.291a4.237,4.237,0,0,1-1.719,1.4A5.639,5.639,0,0,1,125.879,21.2Zm-.322-8.672a1.767,1.767,0,0,0-1.362.566,2.926,2.926,0,0,0-.669,1.621h3.926v-.225a2.086,2.086,0,0,0-.508-1.45A1.824,1.824,0,0,0,125.557,12.523Zm5.83,3.1a6.316,6.316,0,0,1,1.108-3.936,3.624,3.624,0,0,1,3.042-1.445,3.244,3.244,0,0,1,2.705,1.3l.186-1.1h2.48V25.063h-2.832V20.092a3.253,3.253,0,0,1-2.559,1.1,3.6,3.6,0,0,1-3.008-1.465A6.626,6.626,0,0,1,131.387,15.619Zm2.822.205a4.132,4.132,0,0,0,.532,2.3,1.7,1.7,0,0,0,1.5.791,1.9,1.9,0,0,0,1.836-1.035V13.52a1.883,1.883,0,0,0-1.816-1,1.725,1.725,0,0,0-1.514.791A4.563,4.563,0,0,0,134.209,15.824Zm15.244,4.1a3.539,3.539,0,0,1-2.891,1.27,3.338,3.338,0,0,1-2.593-.977,4.169,4.169,0,0,1-.913-2.861V10.434h2.822V17.26q0,1.65,1.5,1.65a2.038,2.038,0,0,0,1.973-1v-7.48h2.832V21h-2.656ZM157.295,21h-2.832V10.434h2.832Zm-3-13.3a1.39,1.39,0,0,1,.425-1.045,1.831,1.831,0,0,1,2.31,0,1.382,1.382,0,0,1,.43,1.045,1.386,1.386,0,0,1-.435,1.055,1.81,1.81,0,0,1-2.295,0A1.386,1.386,0,0,1,154.3,7.7Zm14.834,8.115a6.337,6.337,0,0,1-1.108,3.911,3.554,3.554,0,0,1-2.993,1.47,3.292,3.292,0,0,1-2.588-1.113v4.98h-2.822V10.434h2.617l.1,1.035a3.317,3.317,0,0,1,2.676-1.23,3.578,3.578,0,0,1,3.037,1.445,6.509,6.509,0,0,1,1.084,3.984Zm-2.822-.205a4.158,4.158,0,0,0-.522-2.275,1.7,1.7,0,0,0-1.519-.8,1.848,1.848,0,0,0-1.826,1.016v4.326a1.879,1.879,0,0,0,1.846,1.045Q166.309,18.92,166.309,15.609Zm4.131.01a6.267,6.267,0,0,1,.605-2.8,4.432,4.432,0,0,1,1.743-1.9,5.086,5.086,0,0,1,2.642-.674,4.812,4.812,0,0,1,3.491,1.309A5.252,5.252,0,0,1,180.43,15.1l.02.723a5.523,5.523,0,0,1-1.357,3.9,5.261,5.261,0,0,1-7.29,0,5.62,5.62,0,0,1-1.362-3.984Zm2.822.205a3.939,3.939,0,0,0,.566,2.3,2.037,2.037,0,0,0,3.223.01,4.31,4.31,0,0,0,.576-2.515,3.9,3.9,0,0,0-.576-2.285,1.874,1.874,0,0,0-1.621-.811,1.843,1.843,0,0,0-1.6.806A4.383,4.383,0,0,0,173.262,15.824Z" transform="translate(-6934.657 -8886.623)" fill="#fff"/><g transform="translate(-104.888 659)"><g transform="matrix(1, 0, 0, 1, -6877.7, -9580.61)" filter="url(#k)"><rect width="173.945" height="44" rx="17" transform="translate(116.49 345.56)" fill="#fcfaee"/></g><g transform="translate(-6753.381 -9320.418)" fill="none" stroke="#fe8849" stroke-width="2"><rect width="173.945" height="46.214" rx="17" stroke="none"/><rect x="1" y="1" width="171.945" height="44.214" rx="16" fill="none"/></g><path d="M7.6-2.969H2.836L1.766,0H.219L4.563-11.375H5.875L10.227,0H8.688ZM3.289-4.2H7.156L5.219-9.523ZM12.9-8.453l.047,1.063a3.08,3.08,0,0,1,2.531-1.219q2.68,0,2.7,3.023V0H16.734V-5.594a1.946,1.946,0,0,0-.418-1.352,1.675,1.675,0,0,0-1.277-.437,2.086,2.086,0,0,0-1.234.375,2.546,2.546,0,0,0-.828.984V0H11.531V-8.453ZM23.75-1.023A2.082,2.082,0,0,0,25.1-1.492a1.649,1.649,0,0,0,.641-1.172h1.367a2.621,2.621,0,0,1-.5,1.383,3.293,3.293,0,0,1-1.23,1.047A3.55,3.55,0,0,1,23.75.156,3.482,3.482,0,0,1,21-1a4.59,4.59,0,0,1-1.02-3.152v-.242a5.089,5.089,0,0,1,.453-2.2,3.451,3.451,0,0,1,1.3-1.492,3.7,3.7,0,0,1,2-.531,3.39,3.39,0,0,1,2.363.852,3.043,3.043,0,0,1,1,2.211H25.742a1.992,1.992,0,0,0-.621-1.348,1.932,1.932,0,0,0-1.379-.527,2.023,2.023,0,0,0-1.707.793,3.724,3.724,0,0,0-.605,2.293v.273a3.65,3.65,0,0,0,.6,2.25A2.033,2.033,0,0,0,23.75-1.023ZM30.18-7.43a3.073,3.073,0,0,1,2.5-1.18q2.68,0,2.7,3.023V0H33.938V-5.594a1.946,1.946,0,0,0-.418-1.352,1.675,1.675,0,0,0-1.277-.437,2.086,2.086,0,0,0-1.234.375,2.546,2.546,0,0,0-.828.984V0H28.734V-12H30.18ZM37.164-4.3a4.993,4.993,0,0,1,.488-2.234A3.643,3.643,0,0,1,39.012-8.07,3.7,3.7,0,0,1,41-8.609a3.565,3.565,0,0,1,2.793,1.2,4.6,4.6,0,0,1,1.066,3.18v.1a5.036,5.036,0,0,1-.473,2.215A3.589,3.589,0,0,1,43.035-.391a3.743,3.743,0,0,1-2.02.547,3.556,3.556,0,0,1-2.785-1.2A4.575,4.575,0,0,1,37.164-4.2Zm1.453.172a3.616,3.616,0,0,0,.652,2.258,2.088,2.088,0,0,0,1.746.852,2.075,2.075,0,0,0,1.75-.863A3.955,3.955,0,0,0,43.414-4.3a3.61,3.61,0,0,0-.66-2.254A2.1,2.1,0,0,0,41-7.422a2.075,2.075,0,0,0-1.727.852A3.925,3.925,0,0,0,38.617-4.133ZM50.281-4.3A4.952,4.952,0,0,1,51.2-7.426a2.915,2.915,0,0,1,2.414-1.184,2.932,2.932,0,0,1,2.352,1.016V-12h1.445V0H56.086l-.07-.906A2.943,2.943,0,0,1,53.6.156a2.887,2.887,0,0,1-2.395-1.2,5.008,5.008,0,0,1-.926-3.141Zm1.445.164a3.749,3.749,0,0,0,.594,2.25,1.92,1.92,0,0,0,1.641.813A2.108,2.108,0,0,0,55.969-2.3V-6.187a2.125,2.125,0,0,0-1.992-1.2,1.929,1.929,0,0,0-1.656.82A4.128,4.128,0,0,0,51.727-4.133ZM63.164.156a3.693,3.693,0,0,1-2.8-1.129,4.19,4.19,0,0,1-1.078-3.02v-.266A5.073,5.073,0,0,1,59.77-6.5a3.748,3.748,0,0,1,1.344-1.547,3.378,3.378,0,0,1,1.871-.559,3.166,3.166,0,0,1,2.563,1.086,4.7,4.7,0,0,1,.914,3.109v.6H60.734a3,3,0,0,0,.73,2.02,2.3,2.3,0,0,0,1.777.77,2.517,2.517,0,0,0,1.3-.312,3.259,3.259,0,0,0,.93-.828l.883.688A3.55,3.55,0,0,1,63.164.156Zm-.18-7.578a1.928,1.928,0,0,0-1.469.637A3.1,3.1,0,0,0,60.781-5h4.234v-.109a2.753,2.753,0,0,0-.594-1.707A1.815,1.815,0,0,0,62.984-7.422Zm16.25,3.289a5.062,5.062,0,0,1-.883,3.109A2.829,2.829,0,0,1,75.961.156,3.1,3.1,0,0,1,73.539-.82V3.25H72.094v-11.7h1.32l.07.938a2.977,2.977,0,0,1,2.453-1.094,2.882,2.882,0,0,1,2.41,1.148,5.117,5.117,0,0,1,.887,3.2ZM77.789-4.3a3.735,3.735,0,0,0-.609-2.258,1.963,1.963,0,0,0-1.672-.828,2.125,2.125,0,0,0-1.969,1.164V-2.18a2.129,2.129,0,0,0,1.984,1.156,1.954,1.954,0,0,0,1.652-.824A4.077,4.077,0,0,0,77.789-4.3Zm8.5,4.3a3.036,3.036,0,0,1-.2-.891A3.225,3.225,0,0,1,83.68.156a2.984,2.984,0,0,1-2.051-.707,2.288,2.288,0,0,1-.8-1.793,2.39,2.39,0,0,1,1-2.051,4.733,4.733,0,0,1,2.824-.73h1.406v-.664A1.623,1.623,0,0,0,85.609-7a1.821,1.821,0,0,0-1.336-.449,2.108,2.108,0,0,0-1.3.391,1.151,1.151,0,0,0-.523.945H81a2,2,0,0,1,.449-1.223,3.066,3.066,0,0,1,1.219-.934,4.1,4.1,0,0,1,1.691-.344,3.342,3.342,0,0,1,2.289.73,2.635,2.635,0,0,1,.859,2.012v3.891a4.757,4.757,0,0,0,.3,1.852V0Zm-2.4-1.1a2.54,2.54,0,0,0,1.289-.352,2.127,2.127,0,0,0,.883-.914V-4.1H84.93q-2.656,0-2.656,1.555a1.316,1.316,0,0,0,.453,1.063A1.742,1.742,0,0,0,83.891-1.1ZM94.7-2.242a1.064,1.064,0,0,0-.441-.91,4.249,4.249,0,0,0-1.539-.559,7.277,7.277,0,0,1-1.742-.562,2.479,2.479,0,0,1-.953-.781,1.869,1.869,0,0,1-.309-1.078,2.193,2.193,0,0,1,.879-1.758,3.432,3.432,0,0,1,2.246-.719,3.532,3.532,0,0,1,2.332.742,2.357,2.357,0,0,1,.895,1.9H94.609a1.3,1.3,0,0,0-.5-1.023,1.888,1.888,0,0,0-1.27-.43,1.976,1.976,0,0,0-1.234.344,1.082,1.082,0,0,0-.445.9.877.877,0,0,0,.414.789,5.1,5.1,0,0,0,1.5.508A7.8,7.8,0,0,1,94.82-4.3a2.558,2.558,0,0,1,1,.809,1.988,1.988,0,0,1,.324,1.152,2.163,2.163,0,0,1-.906,1.816,3.8,3.8,0,0,1-2.352.684,4.257,4.257,0,0,1-1.8-.359,2.922,2.922,0,0,1-1.223-1A2.42,2.42,0,0,1,89.422-2.6h1.445a1.5,1.5,0,0,0,.582,1.152,2.258,2.258,0,0,0,1.434.426A2.331,2.331,0,0,0,94.2-1.355,1.02,1.02,0,0,0,94.7-2.242ZM99.594,0H98.148V-8.453h1.445ZM98.031-10.7a.863.863,0,0,1,.215-.594.807.807,0,0,1,.637-.242.819.819,0,0,1,.641.242.854.854,0,0,1,.219.594.826.826,0,0,1-.219.586.834.834,0,0,1-.641.234.821.821,0,0,1-.637-.234A.834.834,0,0,1,98.031-10.7ZM103.477,0h-1.445V-12h1.445Zm3.883,0h-1.445V-12h1.445Zm1.93-4.3a4.993,4.993,0,0,1,.488-2.234,3.643,3.643,0,0,1,1.359-1.531,3.7,3.7,0,0,1,1.988-.539,3.565,3.565,0,0,1,2.793,1.2,4.6,4.6,0,0,1,1.066,3.18v.1a5.036,5.036,0,0,1-.473,2.215A3.589,3.589,0,0,1,115.16-.391a3.743,3.743,0,0,1-2.02.547,3.556,3.556,0,0,1-2.785-1.2A4.575,4.575,0,0,1,109.289-4.2Zm1.453.172a3.616,3.616,0,0,0,.652,2.258,2.088,2.088,0,0,0,1.746.852,2.075,2.075,0,0,0,1.75-.863,3.955,3.955,0,0,0,.648-2.418,3.61,3.61,0,0,0-.66-2.254,2.1,2.1,0,0,0-1.754-.863,2.075,2.075,0,0,0-1.727.852A3.925,3.925,0,0,0,110.742-4.133Zm12.977,1.891a1.064,1.064,0,0,0-.441-.91,4.249,4.249,0,0,0-1.539-.559A7.277,7.277,0,0,1,120-4.273a2.479,2.479,0,0,1-.953-.781,1.869,1.869,0,0,1-.309-1.078,2.193,2.193,0,0,1,.879-1.758,3.432,3.432,0,0,1,2.246-.719,3.532,3.532,0,0,1,2.332.742,2.357,2.357,0,0,1,.895,1.9h-1.453a1.3,1.3,0,0,0-.5-1.023,1.888,1.888,0,0,0-1.27-.43,1.976,1.976,0,0,0-1.234.344,1.082,1.082,0,0,0-.445.9.877.877,0,0,0,.414.789,5.1,5.1,0,0,0,1.5.508,7.8,7.8,0,0,1,1.754.578,2.558,2.558,0,0,1,1,.809,1.988,1.988,0,0,1,.324,1.152,2.163,2.163,0,0,1-.906,1.816,3.8,3.8,0,0,1-2.352.684,4.257,4.257,0,0,1-1.8-.359,2.922,2.922,0,0,1-1.223-1,2.42,2.42,0,0,1-.441-1.395h1.445a1.5,1.5,0,0,0,.582,1.152,2.258,2.258,0,0,0,1.434.426,2.331,2.331,0,0,0,1.316-.332A1.02,1.02,0,0,0,123.719-2.242Z" transform="translate(-6737.204 -9208.052)" fill="#12263f"/><path d="M7.859-4.93h-4.5v3.047H8.641V0H1.016V-11.375H8.625v1.9H3.359v2.711h4.5Zm6.586,2.594a.727.727,0,0,0-.41-.652,4.659,4.659,0,0,0-1.316-.426Q9.7-4.047,9.7-5.977a2.323,2.323,0,0,1,.934-1.879,3.766,3.766,0,0,1,2.441-.754,4.053,4.053,0,0,1,2.574.758,2.388,2.388,0,0,1,.965,1.969H14.359a1.092,1.092,0,0,0-.312-.8A1.322,1.322,0,0,0,13.07-7a1.351,1.351,0,0,0-.883.258.814.814,0,0,0-.312.656.7.7,0,0,0,.355.605,3.657,3.657,0,0,0,1.2.4,9.8,9.8,0,0,1,1.422.379A2.336,2.336,0,0,1,16.641-2.43a2.2,2.2,0,0,1-.992,1.871,4.28,4.28,0,0,1-2.562.715A4.47,4.47,0,0,1,11.2-.223,3.166,3.166,0,0,1,9.906-1.262a2.414,2.414,0,0,1-.469-1.426h2.141a1.179,1.179,0,0,0,.445.922,1.766,1.766,0,0,0,1.109.32,1.635,1.635,0,0,0,.98-.246A.766.766,0,0,0,14.445-2.336ZM25.7-4.148a5.07,5.07,0,0,1-.887,3.129A2.843,2.843,0,0,1,22.422.156a2.633,2.633,0,0,1-2.07-.891V3.25H18.094v-11.7h2.094l.078.828a2.654,2.654,0,0,1,2.141-.984,2.862,2.862,0,0,1,2.43,1.156A5.207,5.207,0,0,1,25.7-4.266Zm-2.258-.164a3.327,3.327,0,0,0-.418-1.82,1.361,1.361,0,0,0-1.215-.641,1.478,1.478,0,0,0-1.461.813V-2.5a1.5,1.5,0,0,0,1.477.836Q23.445-1.664,23.445-4.312ZM32,0a2.507,2.507,0,0,1-.227-.758,2.732,2.732,0,0,1-2.133.914,3,3,0,0,1-2.059-.719,2.312,2.312,0,0,1-.816-1.812,2.389,2.389,0,0,1,1-2.062,4.915,4.915,0,0,1,2.879-.727H31.68v-.484a1.393,1.393,0,0,0-.3-.937,1.183,1.183,0,0,0-.949-.352,1.345,1.345,0,0,0-.895.273.929.929,0,0,0-.324.75H26.953a2.268,2.268,0,0,1,.453-1.359,3,3,0,0,1,1.281-.98,4.669,4.669,0,0,1,1.859-.355,3.689,3.689,0,0,1,2.48.785,2.747,2.747,0,0,1,.918,2.207v3.664a4.041,4.041,0,0,0,.336,1.82V0ZM30.133-1.57a1.945,1.945,0,0,0,.922-.223,1.462,1.462,0,0,0,.625-.6V-3.844h-.844q-1.7,0-1.8,1.172l-.008.133a.9.9,0,0,0,.3.7A1.153,1.153,0,0,0,30.133-1.57ZM39.2-1.664a1.481,1.481,0,0,0,1.016-.344,1.2,1.2,0,0,0,.406-.914h2.117a2.9,2.9,0,0,1-.469,1.574A3.093,3.093,0,0,1,41-.238a3.949,3.949,0,0,1-1.77.395A3.67,3.67,0,0,1,36.375-1,4.56,4.56,0,0,1,35.328-4.18v-.148a4.508,4.508,0,0,1,1.039-3.117,3.627,3.627,0,0,1,2.852-1.164,3.555,3.555,0,0,1,2.543.9,3.2,3.2,0,0,1,.973,2.4H40.617a1.539,1.539,0,0,0-.406-1.066,1.358,1.358,0,0,0-1.031-.41,1.361,1.361,0,0,0-1.191.574,3.324,3.324,0,0,0-.4,1.863v.234a3.366,3.366,0,0,0,.4,1.875A1.378,1.378,0,0,0,39.2-1.664ZM46.406,0H44.141V-8.453h2.266Zm-2.4-10.641a1.112,1.112,0,0,1,.34-.836,1.277,1.277,0,0,1,.926-.328,1.28,1.28,0,0,1,.922.328,1.105,1.105,0,0,1,.344.836,1.108,1.108,0,0,1-.348.844,1.283,1.283,0,0,1-.918.328,1.283,1.283,0,0,1-.918-.328A1.108,1.108,0,0,1,44.008-10.641ZM47.914-4.3A5.013,5.013,0,0,1,48.4-6.547,3.546,3.546,0,0,1,49.793-8.07a4.069,4.069,0,0,1,2.113-.539A3.849,3.849,0,0,1,54.7-7.562a4.2,4.2,0,0,1,1.207,2.844l.016.578A4.418,4.418,0,0,1,54.836-1.02,3.775,3.775,0,0,1,51.922.156,3.793,3.793,0,0,1,49-1.016,4.5,4.5,0,0,1,47.914-4.2Zm2.258.164a3.151,3.151,0,0,0,.453,1.84,1.5,1.5,0,0,0,1.3.637A1.5,1.5,0,0,0,53.2-2.293,3.448,3.448,0,0,0,53.664-4.3,3.12,3.12,0,0,0,53.2-6.133a1.5,1.5,0,0,0-1.3-.648,1.475,1.475,0,0,0-1.281.645A3.506,3.506,0,0,0,50.172-4.141Zm10.773-.148a5.094,5.094,0,0,1,.887-3.148,2.877,2.877,0,0,1,2.426-1.172,2.589,2.589,0,0,1,2.039.922V-12h2.266V0H66.523l-.109-.9A2.657,2.657,0,0,1,64.242.156,2.869,2.869,0,0,1,61.848-1.02,5.258,5.258,0,0,1,60.945-4.289Zm2.258.164a3.328,3.328,0,0,0,.414,1.82,1.349,1.349,0,0,0,1.2.633A1.511,1.511,0,0,0,66.3-2.555V-5.891a1.489,1.489,0,0,0-1.461-.883Q63.2-6.773,63.2-4.125ZM72.7,0H70.43V-8.453H72.7ZM70.3-10.641a1.112,1.112,0,0,1,.34-.836,1.277,1.277,0,0,1,.926-.328,1.28,1.28,0,0,1,.922.328,1.105,1.105,0,0,1,.344.836,1.108,1.108,0,0,1-.348.844,1.283,1.283,0,0,1-.918.328,1.283,1.283,0,0,1-.918-.328A1.108,1.108,0,0,1,70.3-10.641Zm8.836,8.3a.727.727,0,0,0-.41-.652,4.659,4.659,0,0,0-1.316-.426q-3.016-.633-3.016-2.562a2.323,2.323,0,0,1,.934-1.879,3.766,3.766,0,0,1,2.441-.754,4.053,4.053,0,0,1,2.574.758A2.388,2.388,0,0,1,81.3-5.883H79.047a1.092,1.092,0,0,0-.312-.8A1.322,1.322,0,0,0,77.758-7a1.351,1.351,0,0,0-.883.258.814.814,0,0,0-.312.656.7.7,0,0,0,.355.605,3.657,3.657,0,0,0,1.2.4,9.8,9.8,0,0,1,1.422.379A2.336,2.336,0,0,1,81.328-2.43a2.2,2.2,0,0,1-.992,1.871,4.28,4.28,0,0,1-2.562.715,4.47,4.47,0,0,1-1.887-.379,3.166,3.166,0,0,1-1.293-1.039,2.414,2.414,0,0,1-.469-1.426h2.141a1.179,1.179,0,0,0,.445.922,1.766,1.766,0,0,0,1.109.32,1.635,1.635,0,0,0,.98-.246A.766.766,0,0,0,79.133-2.336ZM90.391-4.148A5.07,5.07,0,0,1,89.5-1.02,2.843,2.843,0,0,1,87.109.156a2.633,2.633,0,0,1-2.07-.891V3.25H82.781v-11.7h2.094l.078.828a2.654,2.654,0,0,1,2.141-.984,2.862,2.862,0,0,1,2.43,1.156,5.207,5.207,0,0,1,.867,3.188Zm-2.258-.164a3.327,3.327,0,0,0-.418-1.82A1.361,1.361,0,0,0,86.5-6.773a1.478,1.478,0,0,0-1.461.813V-2.5a1.5,1.5,0,0,0,1.477.836Q88.133-1.664,88.133-4.312Zm3.3.008a5.013,5.013,0,0,1,.484-2.242A3.546,3.546,0,0,1,93.316-8.07a4.069,4.069,0,0,1,2.113-.539,3.849,3.849,0,0,1,2.793,1.047A4.2,4.2,0,0,1,99.43-4.719l.016.578A4.418,4.418,0,0,1,98.359-1.02,3.775,3.775,0,0,1,95.445.156a3.793,3.793,0,0,1-2.918-1.172A4.5,4.5,0,0,1,91.438-4.2Zm2.258.164a3.151,3.151,0,0,0,.453,1.84,1.5,1.5,0,0,0,1.3.637,1.5,1.5,0,0,0,1.281-.629A3.448,3.448,0,0,0,97.188-4.3a3.12,3.12,0,0,0-.461-1.828,1.5,1.5,0,0,0-1.3-.648,1.475,1.475,0,0,0-1.281.645A3.506,3.506,0,0,0,93.7-4.141Zm9.219-4.312.07.977a2.951,2.951,0,0,1,2.43-1.133,2.453,2.453,0,0,1,2,.789,3.682,3.682,0,0,1,.672,2.359V0h-2.258V-5.406a1.465,1.465,0,0,0-.312-1.043,1.4,1.4,0,0,0-1.039-.324,1.553,1.553,0,0,0-1.43.813V0h-2.258V-8.453ZM112.18,0h-2.266V-8.453h2.266Zm-2.4-10.641a1.112,1.112,0,0,1,.34-.836,1.277,1.277,0,0,1,.926-.328,1.28,1.28,0,0,1,.922.328,1.105,1.105,0,0,1,.344.836,1.108,1.108,0,0,1-.348.844,1.283,1.283,0,0,1-.918.328,1.283,1.283,0,0,1-.918-.328A1.108,1.108,0,0,1,109.781-10.641Zm11.875,6.492a5.119,5.119,0,0,1-.867,3.168A2.872,2.872,0,0,1,118.367.156a2.639,2.639,0,0,1-2.2-1.055l-.1.9h-2.031V-12H116.3v4.3a2.571,2.571,0,0,1,2.055-.914,2.9,2.9,0,0,1,2.426,1.137,5.126,5.126,0,0,1,.879,3.2ZM119.4-4.312a3.363,3.363,0,0,0-.406-1.871,1.374,1.374,0,0,0-1.211-.59,1.489,1.489,0,0,0-1.484.883v3.336a1.509,1.509,0,0,0,1.5.891,1.394,1.394,0,0,0,1.438-1.078A5.562,5.562,0,0,0,119.4-4.312ZM125.43,0h-2.266V-12h2.266Zm5.75.156a4.15,4.15,0,0,1-3.027-1.141,4.054,4.054,0,0,1-1.168-3.039v-.219a5.106,5.106,0,0,1,.492-2.277,3.612,3.612,0,0,1,1.395-1.547,3.914,3.914,0,0,1,2.059-.543,3.508,3.508,0,0,1,2.73,1.094,4.444,4.444,0,0,1,1,3.1v.922h-5.383a2.1,2.1,0,0,0,.66,1.328,2,2,0,0,0,1.395.5,2.437,2.437,0,0,0,2.039-.945l1.109,1.242A3.389,3.389,0,0,1,133.1-.246,4.511,4.511,0,0,1,131.18.156Zm-.258-6.937a1.414,1.414,0,0,0-1.09.453,2.341,2.341,0,0,0-.535,1.3h3.141v-.18a1.669,1.669,0,0,0-.406-1.16A1.459,1.459,0,0,0,130.922-6.781Z" transform="translate(-6733.381 -9293.204)" fill="#12263f"/><g transform="translate(-6684.612 -9274.204)"><path d="M0,0V36.143" transform="translate(10.664 0)" fill="none" stroke="#fe8849" stroke-width="2"/><g transform="translate(0 20.36)"><g clip-path="url(#m)"><path d="M20.668,0A21.249,21.249,0,0,0,10.334,18.241,21.248,21.248,0,0,0,0,0" transform="translate(0.33 0.551)" fill="none" stroke="#fe8849" stroke-miterlimit="10" stroke-width="2"/></g></g></g><g transform="translate(-276.234 -73.617)"><g transform="translate(-7169.327 -10937.572)"><path d="M35.286,0A35.286,35.286,0,1,1,0,35.286,35.286,35.286,0,0,1,35.286,0Z" transform="translate(641.449 1675.949)" fill="#f6de44"/><g transform="translate(647.842 1681.8)"><g transform="matrix(1, 0, 0, 1, -79.98, -251.22)" filter="url(#o)"><circle cx="28.893" cy="28.893" r="28.893" transform="translate(79.98 251.22)" fill="url(#n)"/></g></g><g transform="translate(707.398 1729.853) rotate(167)"><circle cx="25.567" cy="25.567" r="25.567" transform="translate(0 0)" fill="url(#n)"/></g></g><g transform="translate(-6509.819 -9243.808)"><path d="M27.285,11.317,35.638,2.97a.566.566,0,0,0-.8-.8l-8.353,8.353H13.321L4.974,2.164a.566.566,0,0,0-.8.8l8.353,8.353V27.881L5.309,35.1a.565.565,0,0,0,0,.8.558.558,0,0,0,.4.165.582.582,0,0,0,.4-.165l7.217-7.217H26.49L28.6,30.788l3.975,3.975L33.707,35.9a.558.558,0,0,0,.4.165.582.582,0,0,0,.4-.165.565.565,0,0,0,0-.8l-.971-.971V12.22a.567.567,0,0,0-.937-.432L28.63,15.2a.574.574,0,0,0-.2.432v13.4L27.3,27.887V11.317Zm-13.628.335H26.149v15.9H23.878V15.059a.57.57,0,0,0-.568-.568H16.5a.57.57,0,0,0-.568.568V27.552H13.657Zm3.407,15.9V15.627h5.678V27.552ZM29.556,15.888,32.4,13.452V33l-2.839-2.839Z" transform="translate(-4.008 -1.997)" fill="#f6de44"/><circle cx="0.5" cy="0.5" r="0.5" transform="translate(16.819 19)" fill="#f6de44"/><path d="M6.178,50.561a.576.576,0,0,0,.386-.148l4.815-4.441a.563.563,0,0,0,.182-.42V42.73a.56.56,0,0,0-.273-.483.587.587,0,0,0-.556-.023L5.917,44.7a.566.566,0,0,0-.307.505v4.787a.574.574,0,0,0,.341.522.541.541,0,0,0,.227.045Zm.568-5.008,3.68-1.891V45.3l-3.68,3.4Z" transform="translate(-4.7 -19.356)" fill="#f6de44"/><path d="M30.7,8.111a1.7,1.7,0,0,0,.568-3.3V3.568a.568.568,0,1,0-1.136,0V4.806a1.7,1.7,0,0,0,.568,3.3Zm0-2.271a.568.568,0,1,1-.568.568A.57.57,0,0,1,30.7,5.839Z" transform="translate(-14.808 -2.431)" fill="#f6de44"/></g></g></g><g transform="translate(-113.348 659)"><g transform="matrix(1, 0, 0, 1, -6869.24, -9580.61)" filter="url(#r)"><rect width="157.545" height="44" rx="17" transform="translate(108.87 180.81)" fill="#fcfaee"/></g><g transform="translate(-6757.609 -9483.449)" fill="none" stroke="#fe8849" stroke-width="2"><rect width="151.945" height="44.5" rx="17" stroke="none"/><rect x="1" y="1" width="149.945" height="42.5" rx="16" fill="none"/></g><path d="M9.578-9.477H6.094V0H3.75V-9.477H.313v-1.9H9.578ZM13.148,0H10.883V-8.453h2.266Zm-2.4-10.641a1.112,1.112,0,0,1,.34-.836,1.277,1.277,0,0,1,.926-.328,1.28,1.28,0,0,1,.922.328,1.105,1.105,0,0,1,.344.836,1.108,1.108,0,0,1-.348.844,1.283,1.283,0,0,1-.918.328A1.283,1.283,0,0,1,11.1-9.8,1.108,1.108,0,0,1,10.75-10.641ZM22.617-4.148A5.07,5.07,0,0,1,21.73-1.02,2.843,2.843,0,0,1,19.336.156a2.633,2.633,0,0,1-2.07-.891V3.25H15.008v-11.7H17.1l.078.828a2.654,2.654,0,0,1,2.141-.984,2.862,2.862,0,0,1,2.43,1.156,5.207,5.207,0,0,1,.867,3.188Zm-2.258-.164a3.327,3.327,0,0,0-.418-1.82,1.361,1.361,0,0,0-1.215-.641,1.478,1.478,0,0,0-1.461.813V-2.5a1.5,1.5,0,0,0,1.477.836Q20.359-1.664,20.359-4.312Zm3.3.008a5.013,5.013,0,0,1,.484-2.242A3.546,3.546,0,0,1,25.543-8.07a4.069,4.069,0,0,1,2.113-.539,3.849,3.849,0,0,1,2.793,1.047,4.2,4.2,0,0,1,1.207,2.844l.016.578A4.418,4.418,0,0,1,30.586-1.02,3.775,3.775,0,0,1,27.672.156a3.793,3.793,0,0,1-2.918-1.172A4.5,4.5,0,0,1,23.664-4.2Zm2.258.164a3.151,3.151,0,0,0,.453,1.84,1.5,1.5,0,0,0,1.3.637,1.5,1.5,0,0,0,1.281-.629A3.448,3.448,0,0,0,29.414-4.3a3.12,3.12,0,0,0-.461-1.828,1.5,1.5,0,0,0-1.3-.648,1.475,1.475,0,0,0-1.281.645A3.506,3.506,0,0,0,25.922-4.141ZM36.7-4.289a5.094,5.094,0,0,1,.887-3.148,2.877,2.877,0,0,1,2.426-1.172,2.589,2.589,0,0,1,2.039.922V-12h2.266V0H42.273l-.109-.9A2.657,2.657,0,0,1,39.992.156,2.869,2.869,0,0,1,37.6-1.02,5.258,5.258,0,0,1,36.7-4.289Zm2.258.164a3.328,3.328,0,0,0,.414,1.82,1.349,1.349,0,0,0,1.2.633,1.511,1.511,0,0,0,1.477-.883V-5.891a1.489,1.489,0,0,0-1.461-.883Q38.953-6.773,38.953-4.125Zm11,4.281A4.15,4.15,0,0,1,46.926-.984a4.054,4.054,0,0,1-1.168-3.039v-.219A5.106,5.106,0,0,1,46.25-6.52a3.612,3.612,0,0,1,1.395-1.547A3.914,3.914,0,0,1,49.7-8.609a3.508,3.508,0,0,1,2.73,1.094,4.444,4.444,0,0,1,1,3.1v.922H48.047a2.1,2.1,0,0,0,.66,1.328,2,2,0,0,0,1.395.5,2.437,2.437,0,0,0,2.039-.945L53.25-1.367A3.389,3.389,0,0,1,51.875-.246,4.511,4.511,0,0,1,49.953.156ZM49.7-6.781a1.414,1.414,0,0,0-1.09.453,2.341,2.341,0,0,0-.535,1.3h3.141v-.18a1.669,1.669,0,0,0-.406-1.16A1.459,1.459,0,0,0,49.7-6.781ZM66.313-4.148A5.119,5.119,0,0,1,65.445-.98,2.872,2.872,0,0,1,63.023.156,2.639,2.639,0,0,1,60.828-.9l-.1.9H58.7V-12h2.258v4.3a2.571,2.571,0,0,1,2.055-.914,2.9,2.9,0,0,1,2.426,1.137,5.126,5.126,0,0,1,.879,3.2Zm-2.258-.164a3.363,3.363,0,0,0-.406-1.871,1.374,1.374,0,0,0-1.211-.59,1.489,1.489,0,0,0-1.484.883v3.336a1.509,1.509,0,0,0,1.5.891,1.394,1.394,0,0,0,1.438-1.078A5.562,5.562,0,0,0,64.055-4.312ZM70.086,0H67.82V-8.453h2.266Zm-2.4-10.641a1.112,1.112,0,0,1,.34-.836,1.277,1.277,0,0,1,.926-.328,1.28,1.28,0,0,1,.922.328,1.105,1.105,0,0,1,.344.836,1.108,1.108,0,0,1-.348.844,1.283,1.283,0,0,1-.918.328,1.283,1.283,0,0,1-.918-.328A1.108,1.108,0,0,1,67.688-10.641ZM75.836.156A4.15,4.15,0,0,1,72.809-.984a4.054,4.054,0,0,1-1.168-3.039v-.219a5.106,5.106,0,0,1,.492-2.277,3.612,3.612,0,0,1,1.395-1.547,3.914,3.914,0,0,1,2.059-.543,3.508,3.508,0,0,1,2.73,1.094,4.444,4.444,0,0,1,1,3.1v.922H73.93a2.1,2.1,0,0,0,.66,1.328,2,2,0,0,0,1.395.5,2.437,2.437,0,0,0,2.039-.945l1.109,1.242A3.389,3.389,0,0,1,77.758-.246,4.511,4.511,0,0,1,75.836.156Zm-.258-6.937a1.414,1.414,0,0,0-1.09.453,2.341,2.341,0,0,0-.535,1.3h3.141v-.18a1.669,1.669,0,0,0-.406-1.16A1.459,1.459,0,0,0,75.578-6.781Zm7.094-1.672.07.977a2.951,2.951,0,0,1,2.43-1.133,2.453,2.453,0,0,1,2,.789,3.682,3.682,0,0,1,.672,2.359V0H85.586V-5.406a1.465,1.465,0,0,0-.312-1.043,1.4,1.4,0,0,0-1.039-.324,1.553,1.553,0,0,0-1.43.813V0H80.547V-8.453Z" transform="translate(-6725.609 -9457.949)" fill="#12263f"/><path d="M2.82-4.453V0H1.32V-11.375h4.2a4.215,4.215,0,0,1,2.926.953A3.231,3.231,0,0,1,9.5-7.9,3.189,3.189,0,0,1,8.465-5.348,4.4,4.4,0,0,1,5.5-4.453Zm0-1.227h2.7a2.7,2.7,0,0,0,1.844-.566A2.069,2.069,0,0,0,8-7.883a2.138,2.138,0,0,0-.641-1.625A2.528,2.528,0,0,0,5.6-10.141H2.82ZM14.7.156A3.693,3.693,0,0,1,11.9-.973a4.19,4.19,0,0,1-1.078-3.02v-.266A5.073,5.073,0,0,1,11.3-6.5a3.748,3.748,0,0,1,1.344-1.547,3.378,3.378,0,0,1,1.871-.559,3.166,3.166,0,0,1,2.563,1.086,4.7,4.7,0,0,1,.914,3.109v.6H12.266A3,3,0,0,0,13-1.793a2.3,2.3,0,0,0,1.777.77,2.517,2.517,0,0,0,1.3-.312A3.259,3.259,0,0,0,17-2.164l.883.688A3.55,3.55,0,0,1,14.7.156Zm-.18-7.578a1.928,1.928,0,0,0-1.469.637A3.1,3.1,0,0,0,12.313-5h4.234v-.109a2.753,2.753,0,0,0-.594-1.707A1.815,1.815,0,0,0,14.516-7.422Zm10.07,5.18a1.064,1.064,0,0,0-.441-.91,4.249,4.249,0,0,0-1.539-.559,7.277,7.277,0,0,1-1.742-.562,2.479,2.479,0,0,1-.953-.781A1.869,1.869,0,0,1,19.6-6.133a2.193,2.193,0,0,1,.879-1.758,3.432,3.432,0,0,1,2.246-.719,3.532,3.532,0,0,1,2.332.742,2.357,2.357,0,0,1,.895,1.9H24.5A1.3,1.3,0,0,0,24-6.992a1.888,1.888,0,0,0-1.27-.43,1.976,1.976,0,0,0-1.234.344,1.082,1.082,0,0,0-.445.9.877.877,0,0,0,.414.789,5.1,5.1,0,0,0,1.5.508,7.8,7.8,0,0,1,1.754.578,2.558,2.558,0,0,1,1,.809,1.988,1.988,0,0,1,.324,1.152,2.163,2.163,0,0,1-.906,1.816,3.8,3.8,0,0,1-2.352.684,4.257,4.257,0,0,1-1.8-.359,2.922,2.922,0,0,1-1.223-1A2.42,2.42,0,0,1,19.313-2.6h1.445a1.5,1.5,0,0,0,.582,1.152,2.258,2.258,0,0,0,1.434.426,2.331,2.331,0,0,0,1.316-.332A1.02,1.02,0,0,0,24.586-2.242ZM27.531-4.3a4.993,4.993,0,0,1,.488-2.234A3.643,3.643,0,0,1,29.379-8.07a3.7,3.7,0,0,1,1.988-.539,3.565,3.565,0,0,1,2.793,1.2,4.6,4.6,0,0,1,1.066,3.18v.1a5.036,5.036,0,0,1-.473,2.215A3.589,3.589,0,0,1,33.4-.391a3.743,3.743,0,0,1-2.02.547,3.556,3.556,0,0,1-2.785-1.2A4.575,4.575,0,0,1,27.531-4.2Zm1.453.172a3.616,3.616,0,0,0,.652,2.258,2.088,2.088,0,0,0,1.746.852,2.075,2.075,0,0,0,1.75-.863A3.955,3.955,0,0,0,33.781-4.3a3.61,3.61,0,0,0-.66-2.254,2.1,2.1,0,0,0-1.754-.863,2.075,2.075,0,0,0-1.727.852A3.925,3.925,0,0,0,28.984-4.133ZM41.289.977H40.047L44.8-11.375h1.234ZM55.547-1.992l3.25-9.383h1.641L56.219,0H54.891L50.68-11.375h1.633ZM60.992-4.3a4.993,4.993,0,0,1,.488-2.234A3.643,3.643,0,0,1,62.84-8.07a3.7,3.7,0,0,1,1.988-.539,3.565,3.565,0,0,1,2.793,1.2,4.6,4.6,0,0,1,1.066,3.18v.1a5.036,5.036,0,0,1-.473,2.215A3.589,3.589,0,0,1,66.863-.391a3.743,3.743,0,0,1-2.02.547,3.556,3.556,0,0,1-2.785-1.2A4.575,4.575,0,0,1,60.992-4.2Zm1.453.172A3.616,3.616,0,0,0,63.1-1.875a2.088,2.088,0,0,0,1.746.852,2.075,2.075,0,0,0,1.75-.863A3.955,3.955,0,0,0,67.242-4.3a3.61,3.61,0,0,0-.66-2.254,2.1,2.1,0,0,0-1.754-.863A2.075,2.075,0,0,0,63.1-6.57,3.925,3.925,0,0,0,62.445-4.133ZM72.07,0H70.625V-12H72.07ZM79.6-.836a3.07,3.07,0,0,1-2.477.992,2.628,2.628,0,0,1-2.059-.785,3.4,3.4,0,0,1-.715-2.324v-5.5H75.8v5.461q0,1.922,1.563,1.922a2.163,2.163,0,0,0,2.2-1.234V-8.453h1.445V0H79.633Zm4.961-7.617.039.938a3.122,3.122,0,0,1,2.508-1.094A2.417,2.417,0,0,1,89.523-7.25a3.2,3.2,0,0,1,1.1-.984,3.242,3.242,0,0,1,1.6-.375q2.781,0,2.828,2.945V0H93.6V-5.578a1.941,1.941,0,0,0-.414-1.355A1.823,1.823,0,0,0,91.8-7.383a1.916,1.916,0,0,0-1.336.48,1.949,1.949,0,0,0-.617,1.293V0H88.391V-5.539a1.613,1.613,0,0,0-1.8-1.844,1.934,1.934,0,0,0-1.945,1.211V0H83.2V-8.453ZM100.734.156a3.693,3.693,0,0,1-2.8-1.129,4.19,4.19,0,0,1-1.078-3.02v-.266A5.073,5.073,0,0,1,97.34-6.5a3.748,3.748,0,0,1,1.344-1.547,3.378,3.378,0,0,1,1.871-.559,3.166,3.166,0,0,1,2.563,1.086,4.7,4.7,0,0,1,.914,3.109v.6H98.3a3,3,0,0,0,.73,2.02,2.3,2.3,0,0,0,1.777.77,2.517,2.517,0,0,0,1.3-.312,3.259,3.259,0,0,0,.93-.828l.883.688A3.55,3.55,0,0,1,100.734.156Zm-.18-7.578a1.928,1.928,0,0,0-1.469.637A3.1,3.1,0,0,0,98.352-5h4.234v-.109a2.753,2.753,0,0,0-.594-1.707A1.815,1.815,0,0,0,100.555-7.422Zm6.516-1.031.047,1.063a3.08,3.08,0,0,1,2.531-1.219q2.68,0,2.7,3.023V0h-1.445V-5.594a1.946,1.946,0,0,0-.418-1.352,1.675,1.675,0,0,0-1.277-.437,2.086,2.086,0,0,0-1.234.375,2.546,2.546,0,0,0-.828.984V0H105.7V-8.453Z" transform="translate(-6737.366 -9372.797)" fill="#12263f"/><g transform="translate(-6691.774 -9438.949)"><path d="M0,0V36.143" transform="translate(10.664 0)" fill="none" stroke="#fe8849" stroke-width="2"/><g transform="translate(0 20.36)"><g clip-path="url(#m)"><path d="M20.668,0A21.249,21.249,0,0,0,10.334,18.241,21.248,21.248,0,0,0,0,0" transform="translate(0.33 0.551)" fill="none" stroke="#fe8849" stroke-miterlimit="10" stroke-width="2"/></g></g></g><g transform="translate(-323.774 157.214)"><g transform="translate(-7113.327 -11333.572)"><path d="M35.286,0A35.286,35.286,0,1,1,0,35.286,35.286,35.286,0,0,1,35.286,0Z" transform="translate(641.449 1675.949)" fill="#f6de44"/><g transform="translate(647.842 1681.8)"><g transform="matrix(1, 0, 0, 1, -79.98, -86.05)" filter="url(#v)"><circle cx="28.893" cy="28.893" r="28.893" transform="translate(79.98 86.05)" fill="url(#n)"/></g></g><g transform="translate(707.398 1729.853) rotate(167)"><circle cx="25.567" cy="25.567" r="25.567" transform="translate(0 0)" fill="url(#n)"/></g></g><g transform="translate(-6454.342 -9635.838)"><path d="M32.367,11.407H28.96a.568.568,0,0,0,0,1.136h3.407a3.979,3.979,0,0,0,3.975-3.975A.568.568,0,0,0,35.774,8H.568A.568.568,0,0,0,0,8.568a3.979,3.979,0,0,0,3.975,3.975H15.332v2.318A11.925,11.925,0,0,0,4.5,25.345L3.56,33.354a1.7,1.7,0,0,0,1.692,1.9H31.089a1.7,1.7,0,0,0,1.692-1.9l-.942-8.007A11.925,11.925,0,0,0,21.01,14.861V12.543h5.678a.568.568,0,0,0,0-1.136H3.975A2.844,2.844,0,0,1,1.192,9.136H35.149a2.844,2.844,0,0,1-2.782,2.271ZM30.712,25.478l.942,8.007a.568.568,0,0,1-.564.636H5.252a.568.568,0,0,1-.564-.634L5.63,25.48A10.789,10.789,0,0,1,16.345,15.95H20a10.789,10.789,0,0,1,10.715,9.528ZM19.874,12.543v2.271H16.467V12.543Z" transform="translate(0 -8)" fill="#f6de44"/><path d="M18,31.95A7.95,7.95,0,1,0,25.95,24,7.95,7.95,0,0,0,18,31.95Zm13.541-3.884-.466.269a.568.568,0,1,0,.568.984l.464-.268a6.754,6.754,0,0,1,.627,2.332H32.2a.568.568,0,0,0,0,1.136h.539a6.75,6.75,0,0,1-.625,2.332l-.464-.268a.568.568,0,1,0-.568.984l.466.269a6.871,6.871,0,0,1-1.707,1.708l-.269-.466a.568.568,0,1,0-.984.568l.268.464a6.751,6.751,0,0,1-2.334.627V38.2a.568.568,0,1,0-1.136,0v.539a6.75,6.75,0,0,1-2.332-.625l.268-.464a.568.568,0,1,0-.984-.568l-.269.466a6.871,6.871,0,0,1-1.707-1.707l.466-.269a.568.568,0,1,0-.568-.984l-.464.268a6.751,6.751,0,0,1-.627-2.334H19.7a.568.568,0,0,0,0-1.136h-.539a6.754,6.754,0,0,1,.627-2.332l.464.268a.568.568,0,0,0,.568-.984l-.466-.269a6.871,6.871,0,0,1,1.707-1.707l.269.466a.568.568,0,0,0,.492.284.558.558,0,0,0,.284-.077.568.568,0,0,0,.208-.776l-.268-.464a6.75,6.75,0,0,1,2.331-.627V25.7a.568.568,0,1,0,1.136,0v-.539a6.75,6.75,0,0,1,2.332.627l-.268.464a.568.568,0,0,0,.208.776.558.558,0,0,0,.284.077.568.568,0,0,0,.492-.284l.269-.466a6.871,6.871,0,0,1,1.707,1.707Z" transform="translate(-7.779 -14.915)" fill="#f6de44"/><path d="M31.271,32.944V30.568a.568.568,0,1,0-1.136,0v2.376a1.7,1.7,0,1,0,1.136,0ZM30.7,35.111a.568.568,0,1,1,.568-.568A.568.568,0,0,1,30.7,35.111Z" transform="translate(-12.533 -17.507)" fill="#f6de44"/></g></g></g><g transform="translate(-98.953 659)"><g transform="matrix(1, 0, 0, 1, -6883.63, -9580.61)" filter="url(#y)"><rect width="173.945" height="44" rx="17" transform="translate(126.16 507.66)" fill="#fcfaee"/></g><g transform="translate(-6757.719 -9158.316)" fill="none" stroke="#fe8849" stroke-width="2"><rect width="173.945" height="46.214" rx="17" stroke="none"/><rect x="1" y="1" width="171.945" height="44.214" rx="16" fill="none"/></g><path d="M10.063,0H8.555V-5.258H2.82V0H1.32V-11.375h1.5v4.891H8.555v-4.891h1.508Zm2.055-4.3a4.993,4.993,0,0,1,.488-2.234A3.643,3.643,0,0,1,13.965-8.07a3.7,3.7,0,0,1,1.988-.539,3.565,3.565,0,0,1,2.793,1.2,4.6,4.6,0,0,1,1.066,3.18v.1a5.036,5.036,0,0,1-.473,2.215A3.589,3.589,0,0,1,17.988-.391a3.743,3.743,0,0,1-2.02.547,3.556,3.556,0,0,1-2.785-1.2A4.575,4.575,0,0,1,12.117-4.2Zm1.453.172a3.616,3.616,0,0,0,.652,2.258,2.088,2.088,0,0,0,1.746.852,2.075,2.075,0,0,0,1.75-.863A3.955,3.955,0,0,0,18.367-4.3a3.61,3.61,0,0,0-.66-2.254,2.1,2.1,0,0,0-1.754-.863,2.075,2.075,0,0,0-1.727.852A3.925,3.925,0,0,0,13.57-4.133ZM25.711-7.156A4.331,4.331,0,0,0,25-7.211,1.9,1.9,0,0,0,23.07-6V0H21.625V-8.453h1.406l.023.977A2.251,2.251,0,0,1,25.07-8.609a1.477,1.477,0,0,1,.641.109ZM31.945,0a3.036,3.036,0,0,1-.2-.891A3.225,3.225,0,0,1,29.336.156a2.984,2.984,0,0,1-2.051-.707,2.287,2.287,0,0,1-.8-1.793,2.39,2.39,0,0,1,1-2.051,4.733,4.733,0,0,1,2.824-.73h1.406v-.664A1.623,1.623,0,0,0,31.266-7a1.821,1.821,0,0,0-1.336-.449,2.108,2.108,0,0,0-1.3.391,1.151,1.151,0,0,0-.523.945H26.656a2,2,0,0,1,.449-1.223,3.066,3.066,0,0,1,1.219-.934,4.1,4.1,0,0,1,1.691-.344,3.342,3.342,0,0,1,2.289.73,2.635,2.635,0,0,1,.859,2.012v3.891a4.757,4.757,0,0,0,.3,1.852V0Zm-2.4-1.1a2.54,2.54,0,0,0,1.289-.352,2.127,2.127,0,0,0,.883-.914V-4.1H30.586q-2.656,0-2.656,1.555a1.316,1.316,0,0,0,.453,1.063A1.742,1.742,0,0,0,29.547-1.1Zm10.8-1.141a1.064,1.064,0,0,0-.441-.91,4.249,4.249,0,0,0-1.539-.559,7.277,7.277,0,0,1-1.742-.562,2.479,2.479,0,0,1-.953-.781,1.869,1.869,0,0,1-.309-1.078,2.193,2.193,0,0,1,.879-1.758,3.432,3.432,0,0,1,2.246-.719,3.532,3.532,0,0,1,2.332.742,2.357,2.357,0,0,1,.895,1.9H40.266a1.3,1.3,0,0,0-.5-1.023,1.888,1.888,0,0,0-1.27-.43,1.976,1.976,0,0,0-1.234.344,1.082,1.082,0,0,0-.445.9.877.877,0,0,0,.414.789,5.1,5.1,0,0,0,1.5.508,7.8,7.8,0,0,1,1.754.578,2.558,2.558,0,0,1,1,.809A1.988,1.988,0,0,1,41.8-2.344a2.163,2.163,0,0,1-.906,1.816,3.8,3.8,0,0,1-2.352.684,4.257,4.257,0,0,1-1.8-.359,2.922,2.922,0,0,1-1.223-1A2.42,2.42,0,0,1,35.078-2.6h1.445a1.5,1.5,0,0,0,.582,1.152,2.258,2.258,0,0,0,1.434.426,2.331,2.331,0,0,0,1.316-.332A1.02,1.02,0,0,0,40.352-2.242ZM47.289-4.3a4.952,4.952,0,0,1,.922-3.129,2.915,2.915,0,0,1,2.414-1.184,2.932,2.932,0,0,1,2.352,1.016V-12h1.445V0H53.094l-.07-.906A2.943,2.943,0,0,1,50.609.156a2.887,2.887,0,0,1-2.395-1.2,5.008,5.008,0,0,1-.926-3.141Zm1.445.164a3.749,3.749,0,0,0,.594,2.25,1.92,1.92,0,0,0,1.641.813A2.108,2.108,0,0,0,52.977-2.3V-6.187a2.125,2.125,0,0,0-1.992-1.2,1.929,1.929,0,0,0-1.656.82A4.128,4.128,0,0,0,48.734-4.133ZM60.172.156a3.693,3.693,0,0,1-2.8-1.129A4.19,4.19,0,0,1,56.3-3.992v-.266a5.073,5.073,0,0,1,.48-2.246,3.748,3.748,0,0,1,1.344-1.547,3.378,3.378,0,0,1,1.871-.559,3.166,3.166,0,0,1,2.563,1.086,4.7,4.7,0,0,1,.914,3.109v.6H57.742a3,3,0,0,0,.73,2.02,2.3,2.3,0,0,0,1.777.77,2.517,2.517,0,0,0,1.3-.312,3.259,3.259,0,0,0,.93-.828l.883.688A3.55,3.55,0,0,1,60.172.156Zm-.18-7.578a1.928,1.928,0,0,0-1.469.637A3.1,3.1,0,0,0,57.789-5h4.234v-.109a2.753,2.753,0,0,0-.594-1.707A1.815,1.815,0,0,0,59.992-7.422ZM68.719-4.3a4.993,4.993,0,0,1,.488-2.234A3.643,3.643,0,0,1,70.566-8.07a3.7,3.7,0,0,1,1.988-.539,3.565,3.565,0,0,1,2.793,1.2,4.6,4.6,0,0,1,1.066,3.18v.1a5.036,5.036,0,0,1-.473,2.215A3.589,3.589,0,0,1,74.59-.391a3.743,3.743,0,0,1-2.02.547,3.556,3.556,0,0,1-2.785-1.2A4.575,4.575,0,0,1,68.719-4.2Zm1.453.172a3.616,3.616,0,0,0,.652,2.258,2.088,2.088,0,0,0,1.746.852,2.075,2.075,0,0,0,1.75-.863A3.955,3.955,0,0,0,74.969-4.3a3.61,3.61,0,0,0-.66-2.254,2.1,2.1,0,0,0-1.754-.863,2.075,2.075,0,0,0-1.727.852A3.925,3.925,0,0,0,70.172-4.133Zm15.2,0a5.062,5.062,0,0,1-.883,3.109A2.829,2.829,0,0,1,82.094.156,3.1,3.1,0,0,1,79.672-.82V3.25H78.227v-11.7h1.32l.07.938A2.977,2.977,0,0,1,82.07-8.609a2.882,2.882,0,0,1,2.41,1.148,5.117,5.117,0,0,1,.887,3.2ZM83.922-4.3a3.735,3.735,0,0,0-.609-2.258,1.963,1.963,0,0,0-1.672-.828,2.125,2.125,0,0,0-1.969,1.164V-2.18a2.129,2.129,0,0,0,1.984,1.156,1.954,1.954,0,0,0,1.652-.824A4.077,4.077,0,0,0,83.922-4.3ZM90.711.156a3.693,3.693,0,0,1-2.8-1.129,4.19,4.19,0,0,1-1.078-3.02v-.266a5.073,5.073,0,0,1,.48-2.246A3.748,3.748,0,0,1,88.66-8.051a3.378,3.378,0,0,1,1.871-.559,3.166,3.166,0,0,1,2.563,1.086,4.7,4.7,0,0,1,.914,3.109v.6H88.281a3,3,0,0,0,.73,2.02,2.3,2.3,0,0,0,1.777.77,2.517,2.517,0,0,0,1.3-.312,3.259,3.259,0,0,0,.93-.828l.883.688A3.55,3.55,0,0,1,90.711.156Zm-.18-7.578a1.928,1.928,0,0,0-1.469.637A3.1,3.1,0,0,0,88.328-5h4.234v-.109a2.753,2.753,0,0,0-.594-1.707A1.815,1.815,0,0,0,90.531-7.422Zm9.234.266a4.331,4.331,0,0,0-.711-.055A1.9,1.9,0,0,0,97.125-6V0H95.68V-8.453h1.406l.023.977a2.251,2.251,0,0,1,2.016-1.133,1.477,1.477,0,0,1,.641.109ZM106,0a3.036,3.036,0,0,1-.2-.891A3.225,3.225,0,0,1,103.391.156a2.984,2.984,0,0,1-2.051-.707,2.288,2.288,0,0,1-.8-1.793,2.39,2.39,0,0,1,1-2.051,4.733,4.733,0,0,1,2.824-.73h1.406v-.664A1.623,1.623,0,0,0,105.32-7a1.821,1.821,0,0,0-1.336-.449,2.108,2.108,0,0,0-1.3.391,1.151,1.151,0,0,0-.523.945h-1.453a2,2,0,0,1,.449-1.223,3.066,3.066,0,0,1,1.219-.934,4.1,4.1,0,0,1,1.691-.344,3.342,3.342,0,0,1,2.289.73,2.635,2.635,0,0,1,.859,2.012v3.891a4.757,4.757,0,0,0,.3,1.852V0Zm-2.4-1.1a2.54,2.54,0,0,0,1.289-.352,2.127,2.127,0,0,0,.883-.914V-4.1h-1.133q-2.656,0-2.656,1.555a1.316,1.316,0,0,0,.453,1.063A1.742,1.742,0,0,0,103.6-1.1Zm9.273.078a2.082,2.082,0,0,0,1.352-.469,1.649,1.649,0,0,0,.641-1.172h1.367a2.621,2.621,0,0,1-.5,1.383A3.293,3.293,0,0,1,114.5-.234a3.55,3.55,0,0,1-1.629.391A3.482,3.482,0,0,1,110.129-1a4.59,4.59,0,0,1-1.02-3.152v-.242a5.089,5.089,0,0,1,.453-2.2,3.451,3.451,0,0,1,1.3-1.492,3.7,3.7,0,0,1,2-.531,3.39,3.39,0,0,1,2.363.852,3.043,3.043,0,0,1,1,2.211h-1.367a1.992,1.992,0,0,0-.621-1.348,1.932,1.932,0,0,0-1.379-.527,2.023,2.023,0,0,0-1.707.793,3.724,3.724,0,0,0-.605,2.293v.273a3.65,3.65,0,0,0,.6,2.25A2.033,2.033,0,0,0,112.875-1.023ZM119.43,0h-1.445V-8.453h1.445Zm-1.562-10.7a.863.863,0,0,1,.215-.594.807.807,0,0,1,.637-.242.819.819,0,0,1,.641.242.854.854,0,0,1,.219.594.826.826,0,0,1-.219.586.834.834,0,0,1-.641.234.821.821,0,0,1-.637-.234A.834.834,0,0,1,117.867-10.7ZM121.359-4.3a4.993,4.993,0,0,1,.488-2.234,3.643,3.643,0,0,1,1.359-1.531,3.7,3.7,0,0,1,1.988-.539,3.565,3.565,0,0,1,2.793,1.2,4.6,4.6,0,0,1,1.066,3.18v.1a5.036,5.036,0,0,1-.473,2.215A3.589,3.589,0,0,1,127.23-.391a3.743,3.743,0,0,1-2.02.547,3.556,3.556,0,0,1-2.785-1.2A4.575,4.575,0,0,1,121.359-4.2Zm1.453.172a3.616,3.616,0,0,0,.652,2.258,2.088,2.088,0,0,0,1.746.852,2.075,2.075,0,0,0,1.75-.863,3.955,3.955,0,0,0,.648-2.418,3.61,3.61,0,0,0-.66-2.254,2.1,2.1,0,0,0-1.754-.863,2.075,2.075,0,0,0-1.727.852A3.925,3.925,0,0,0,122.813-4.133ZM125.852-12h1.75l-2.094,2.3h-1.164Zm6.383,3.547.047,1.063a3.08,3.08,0,0,1,2.531-1.219q2.68,0,2.7,3.023V0H136.07V-5.594a1.946,1.946,0,0,0-.418-1.352,1.675,1.675,0,0,0-1.277-.437,2.086,2.086,0,0,0-1.234.375,2.546,2.546,0,0,0-.828.984V0h-1.445V-8.453Z" transform="translate(-6739.476 -9045.95)" fill="#12263f"/><path d="M7.859-4.648h-4.5V0H1.016V-11.375H8.422v1.9H3.359v2.938h4.5Zm6.32-1.687a6.134,6.134,0,0,0-.812-.062,1.654,1.654,0,0,0-1.68.867V0H9.43V-8.453h2.133l.063,1.008a2.092,2.092,0,0,1,1.883-1.164,2.366,2.366,0,0,1,.7.1ZM19.156.156A4.15,4.15,0,0,1,16.129-.984a4.054,4.054,0,0,1-1.168-3.039v-.219a5.106,5.106,0,0,1,.492-2.277,3.612,3.612,0,0,1,1.395-1.547,3.914,3.914,0,0,1,2.059-.543,3.508,3.508,0,0,1,2.73,1.094,4.444,4.444,0,0,1,1,3.1v.922H17.25a2.1,2.1,0,0,0,.66,1.328,2,2,0,0,0,1.395.5,2.437,2.437,0,0,0,2.039-.945l1.109,1.242A3.389,3.389,0,0,1,21.078-.246,4.511,4.511,0,0,1,19.156.156ZM18.9-6.781a1.414,1.414,0,0,0-1.09.453,2.341,2.341,0,0,0-.535,1.3h3.141v-.18a1.669,1.669,0,0,0-.406-1.16A1.459,1.459,0,0,0,18.9-6.781ZM27.43-1.664a1.481,1.481,0,0,0,1.016-.344,1.2,1.2,0,0,0,.406-.914h2.117A2.9,2.9,0,0,1,30.5-1.348,3.093,3.093,0,0,1,29.238-.238a3.949,3.949,0,0,1-1.77.395A3.67,3.67,0,0,1,24.609-1,4.56,4.56,0,0,1,23.563-4.18v-.148A4.508,4.508,0,0,1,24.6-7.445a3.627,3.627,0,0,1,2.852-1.164,3.555,3.555,0,0,1,2.543.9,3.2,3.2,0,0,1,.973,2.4H28.852a1.539,1.539,0,0,0-.406-1.066,1.358,1.358,0,0,0-1.031-.41,1.361,1.361,0,0,0-1.191.574,3.324,3.324,0,0,0-.4,1.863v.234a3.366,3.366,0,0,0,.4,1.875A1.378,1.378,0,0,0,27.43-1.664Zm9.891.8A2.831,2.831,0,0,1,35.008.156a2.67,2.67,0,0,1-2.074-.781,3.335,3.335,0,0,1-.73-2.289V-8.453h2.258v5.461q0,1.32,1.2,1.32a1.631,1.631,0,0,0,1.578-.8V-8.453h2.266V0H37.383ZM45.1.156A4.15,4.15,0,0,1,42.074-.984a4.054,4.054,0,0,1-1.168-3.039v-.219A5.106,5.106,0,0,1,41.4-6.52a3.612,3.612,0,0,1,1.395-1.547,3.914,3.914,0,0,1,2.059-.543,3.508,3.508,0,0,1,2.73,1.094,4.444,4.444,0,0,1,1,3.1v.922H43.2a2.1,2.1,0,0,0,.66,1.328,2,2,0,0,0,1.395.5,2.437,2.437,0,0,0,2.039-.945L48.4-1.367A3.389,3.389,0,0,1,47.023-.246,4.511,4.511,0,0,1,45.1.156Zm-.258-6.937a1.414,1.414,0,0,0-1.09.453,2.341,2.341,0,0,0-.535,1.3h3.141v-.18a1.669,1.669,0,0,0-.406-1.16A1.459,1.459,0,0,0,44.844-6.781Zm7.094-1.672.07.977a2.951,2.951,0,0,1,2.43-1.133,2.453,2.453,0,0,1,2,.789,3.682,3.682,0,0,1,.672,2.359V0H54.852V-5.406a1.465,1.465,0,0,0-.312-1.043A1.4,1.4,0,0,0,53.5-6.773a1.553,1.553,0,0,0-1.43.813V0H49.813V-8.453Zm10.4,6.789a1.481,1.481,0,0,0,1.016-.344,1.2,1.2,0,0,0,.406-.914h2.117a2.9,2.9,0,0,1-.469,1.574A3.093,3.093,0,0,1,64.145-.238a3.949,3.949,0,0,1-1.77.395A3.67,3.67,0,0,1,59.516-1,4.56,4.56,0,0,1,58.469-4.18v-.148a4.508,4.508,0,0,1,1.039-3.117,3.627,3.627,0,0,1,2.852-1.164,3.555,3.555,0,0,1,2.543.9,3.2,3.2,0,0,1,.973,2.4H63.758a1.539,1.539,0,0,0-.406-1.066,1.358,1.358,0,0,0-1.031-.41,1.361,1.361,0,0,0-1.191.574,3.324,3.324,0,0,0-.4,1.863v.234a3.366,3.366,0,0,0,.4,1.875A1.378,1.378,0,0,0,62.336-1.664ZM69.547,0H67.281V-8.453h2.266Zm-2.4-10.641a1.112,1.112,0,0,1,.34-.836,1.277,1.277,0,0,1,.926-.328,1.28,1.28,0,0,1,.922.328,1.105,1.105,0,0,1,.344.836,1.108,1.108,0,0,1-.348.844,1.283,1.283,0,0,1-.918.328A1.283,1.283,0,0,1,67.5-9.8,1.108,1.108,0,0,1,67.148-10.641ZM76.3,0a2.507,2.507,0,0,1-.227-.758,2.732,2.732,0,0,1-2.133.914,3,3,0,0,1-2.059-.719,2.312,2.312,0,0,1-.816-1.812,2.389,2.389,0,0,1,1-2.062,4.915,4.915,0,0,1,2.879-.727h1.039v-.484a1.393,1.393,0,0,0-.3-.937,1.183,1.183,0,0,0-.949-.352,1.345,1.345,0,0,0-.895.273.929.929,0,0,0-.324.75H71.258a2.268,2.268,0,0,1,.453-1.359,3,3,0,0,1,1.281-.98,4.669,4.669,0,0,1,1.859-.355,3.689,3.689,0,0,1,2.48.785,2.747,2.747,0,0,1,.918,2.207v3.664a4.041,4.041,0,0,0,.336,1.82V0ZM74.438-1.57a1.945,1.945,0,0,0,.922-.223,1.462,1.462,0,0,0,.625-.6V-3.844h-.844q-1.7,0-1.8,1.172l-.008.133a.9.9,0,0,0,.3.7A1.153,1.153,0,0,0,74.438-1.57Zm9.18-2.719A5.094,5.094,0,0,1,84.5-7.437,2.877,2.877,0,0,1,86.93-8.609a2.589,2.589,0,0,1,2.039.922V-12h2.266V0H89.2l-.109-.9A2.657,2.657,0,0,1,86.914.156,2.869,2.869,0,0,1,84.52-1.02,5.258,5.258,0,0,1,83.617-4.289Zm2.258.164a3.328,3.328,0,0,0,.414,1.82,1.349,1.349,0,0,0,1.2.633,1.511,1.511,0,0,0,1.477-.883V-5.891a1.489,1.489,0,0,0-1.461-.883Q85.875-6.773,85.875-4.125Zm11,4.281A4.15,4.15,0,0,1,93.848-.984,4.054,4.054,0,0,1,92.68-4.023v-.219a5.106,5.106,0,0,1,.492-2.277,3.612,3.612,0,0,1,1.395-1.547,3.914,3.914,0,0,1,2.059-.543,3.508,3.508,0,0,1,2.73,1.094,4.444,4.444,0,0,1,1,3.1v.922H94.969a2.1,2.1,0,0,0,.66,1.328,2,2,0,0,0,1.395.5,2.437,2.437,0,0,0,2.039-.945l1.109,1.242A3.389,3.389,0,0,1,98.8-.246,4.511,4.511,0,0,1,96.875.156Zm-.258-6.937a1.414,1.414,0,0,0-1.09.453,2.341,2.341,0,0,0-.535,1.3h3.141v-.18a1.669,1.669,0,0,0-.406-1.16A1.459,1.459,0,0,0,96.617-6.781ZM110.68-.859A2.831,2.831,0,0,1,108.367.156a2.67,2.67,0,0,1-2.074-.781,3.335,3.335,0,0,1-.73-2.289V-8.453h2.258v5.461q0,1.32,1.2,1.32a1.631,1.631,0,0,0,1.578-.8V-8.453h2.266V0h-2.125Zm8.469-1.477a.727.727,0,0,0-.41-.652,4.659,4.659,0,0,0-1.316-.426q-3.016-.633-3.016-2.562a2.323,2.323,0,0,1,.934-1.879,3.766,3.766,0,0,1,2.441-.754,4.053,4.053,0,0,1,2.574.758,2.388,2.388,0,0,1,.965,1.969h-2.258a1.092,1.092,0,0,0-.312-.8A1.322,1.322,0,0,0,117.773-7a1.351,1.351,0,0,0-.883.258.814.814,0,0,0-.312.656.7.7,0,0,0,.355.605,3.657,3.657,0,0,0,1.2.4,9.8,9.8,0,0,1,1.422.379,2.336,2.336,0,0,1,1.789,2.273,2.2,2.2,0,0,1-.992,1.871,4.28,4.28,0,0,1-2.562.715A4.47,4.47,0,0,1,115.9-.223a3.166,3.166,0,0,1-1.293-1.039,2.414,2.414,0,0,1-.469-1.426h2.141a1.179,1.179,0,0,0,.445.922,1.766,1.766,0,0,0,1.109.32,1.635,1.635,0,0,0,.98-.246A.766.766,0,0,0,119.148-2.336Zm3.3-1.969a5.013,5.013,0,0,1,.484-2.242,3.546,3.546,0,0,1,1.395-1.523,4.069,4.069,0,0,1,2.113-.539,3.849,3.849,0,0,1,2.793,1.047,4.2,4.2,0,0,1,1.207,2.844l.016.578a4.418,4.418,0,0,1-1.086,3.121A3.775,3.775,0,0,1,126.453.156a3.793,3.793,0,0,1-2.918-1.172,4.5,4.5,0,0,1-1.09-3.187Zm2.258.164a3.151,3.151,0,0,0,.453,1.84,1.5,1.5,0,0,0,1.3.637,1.5,1.5,0,0,0,1.281-.629A3.448,3.448,0,0,0,128.2-4.3a3.12,3.12,0,0,0-.461-1.828,1.5,1.5,0,0,0-1.3-.648,1.475,1.475,0,0,0-1.281.645A3.506,3.506,0,0,0,124.7-4.141Z" transform="translate(-6735.719 -9131.103)" fill="#12263f"/><g transform="translate(-6681.412 -9114.89)"><path d="M0,0V36.143" transform="translate(10.664 0)" fill="none" stroke="#fe8849" stroke-width="2"/><g transform="translate(0 20.36)"><g clip-path="url(#m)"><path d="M20.668,0A21.249,21.249,0,0,0,10.334,18.241,21.248,21.248,0,0,0,0,0" transform="translate(0.33 0.551)" fill="none" stroke="#fe8849" stroke-miterlimit="10" stroke-width="2"/></g></g></g><g transform="translate(-492.169 91.128)"><g transform="translate(-6959.327 -10937.572)"><path d="M35.286,0A35.286,35.286,0,1,1,0,35.286,35.286,35.286,0,0,1,35.286,0Z" transform="translate(641.449 1675.949)" fill="#f6de44"/><g transform="translate(647.842 1681.8)"><g transform="matrix(1, 0, 0, 1, -79.98, -415.97)" filter="url(#ac)"><circle cx="28.893" cy="28.893" r="28.893" transform="translate(79.98 415.97)" fill="url(#n)"/></g></g><g transform="translate(707.398 1729.853) rotate(167)"><circle cx="25.567" cy="25.567" r="25.567" transform="translate(0 0)" fill="url(#n)"/></g></g><g transform="translate(-6297.692 -9242.677)"><path d="M5.792,25.469a2.686,2.686,0,0,0-1.3.331,15.188,15.188,0,0,1,15-24.214A.643.643,0,0,0,19.745.326,16.59,16.59,0,0,0,16.467,0,16.468,16.468,0,0,0,3.543,26.673a2.7,2.7,0,1,0,2.249-1.2Zm1,3.7a1.415,1.415,0,1,1,.415-1A1.405,1.405,0,0,1,6.793,29.172Zm0,0" transform="translate(0 0.001)" fill="#f6de44"/><path d="M214.171,36.25a2.7,2.7,0,1,0-.951.873,15.188,15.188,0,0,1-14.967,24.219A.643.643,0,1,0,198,62.6a16.6,16.6,0,0,0,3.247.32A16.468,16.468,0,0,0,214.171,36.25Zm-3.249-.5a1.416,1.416,0,1,1,1,.414,1.406,1.406,0,0,1-1-.414Zm0,0" transform="translate(-184.78 -29.989)" fill="#f6de44"/><path d="M83.038,96.772a.643.643,0,0,0,.643.643H87.7a.643.643,0,0,0,.643-.643V95.524a10.073,10.073,0,0,0,2.414-1l.88.88a.643.643,0,0,0,.91,0l2.843-2.845a.643.643,0,0,0,0-.91l-.879-.879a10.073,10.073,0,0,0,1-2.414h1.242a.643.643,0,0,0,.643-.643V83.69a.643.643,0,0,0-.643-.643H95.515a10.075,10.075,0,0,0-1-2.414l.875-.875a.643.643,0,0,0,0-.91l-2.845-2.843a.643.643,0,0,0-.91,0l-.873.874a10.074,10.074,0,0,0-2.414-1V74.643A.643.643,0,0,0,87.7,74H83.681a.643.643,0,0,0-.643.643v1.236a10.065,10.065,0,0,0-2.414,1l-.874-.874a.643.643,0,0,0-.91,0L76,78.849a.643.643,0,0,0,0,.91l.875.875a10.072,10.072,0,0,0-1,2.414H74.63a.643.643,0,0,0-.643.643l0,4.022a.643.643,0,0,0,.643.644H75.87a10.074,10.074,0,0,0,1,2.414l-.879.879a.643.643,0,0,0,0,.91L78.834,95.4a.643.643,0,0,0,.455.189h0a.643.643,0,0,0,.455-.188l.88-.88a10.082,10.082,0,0,0,2.414,1Zm-2.162-3.6a.643.643,0,0,0-.8.085l-.783.783L77.355,92.1l.782-.783a.643.643,0,0,0,.085-.8A8.8,8.8,0,0,1,77,87.577a.643.643,0,0,0-.629-.508h-1.1l0-2.736h1.1A.643.643,0,0,0,77,83.826a8.805,8.805,0,0,1,1.218-2.94.643.643,0,0,0-.085-.8L77.36,79.3,79.3,77.37l.777.777a.644.644,0,0,0,.8.085,8.8,8.8,0,0,1,2.94-1.218.644.644,0,0,0,.508-.629v-1.1H87.06v1.1a.643.643,0,0,0,.508.629,8.809,8.809,0,0,1,2.94,1.218.643.643,0,0,0,.8-.085l.777-.777L94.025,79.3l-.777.777a.643.643,0,0,0-.085.8,8.811,8.811,0,0,1,1.218,2.94.643.643,0,0,0,.629.508h1.105v2.736H95.009a.643.643,0,0,0-.629.508,8.8,8.8,0,0,1-1.218,2.94.643.643,0,0,0,.085.8l.782.782L92.1,94.039l-.783-.783a.643.643,0,0,0-.8-.085,8.811,8.811,0,0,1-2.94,1.218.643.643,0,0,0-.508.629v1.11H84.325v-1.11a.644.644,0,0,0-.508-.629A8.805,8.805,0,0,1,80.876,93.171Zm0,0" transform="translate(-69.225 -69.24)" fill="#f6de44"/><path d="M184,178.686A5.315,5.315,0,1,0,178.686,184,5.321,5.321,0,0,0,184,178.686Zm-9.344,0a4.029,4.029,0,1,1,4.029,4.029A4.033,4.033,0,0,1,174.658,178.686Zm0,0" transform="translate(-162.219 -162.219)" fill="#f6de44"/><path d="M338.721,19.1a.644.644,0,1,0-.455-.188A.648.648,0,0,0,338.721,19.1Zm0,0" transform="translate(-316.331 -16.663)" fill="#f6de44"/><path d="M155,474.359a.643.643,0,1,0,.455.188A.648.648,0,0,0,155,474.359Zm0,0" transform="translate(-144.43 -443.845)" fill="#f6de44"/></g></g></g></g></svg>